<?xml version="1.0" encoding="utf-8"?>
<!-- Generator: Adobe Illustrator 18.1.1, SVG Export Plug-In . SVG Version: 6.00 Build 0)  -->
<svg version="1.1" xmlns="http://www.w3.org/2000/svg" xmlns:xlink="http://www.w3.org/1999/xlink" x="0px" y="0px"
	 viewBox="0 0 493 207" enable-background="new 0 0 493 207" xml:space="preserve">
<g id="Vector_elements">
	<path d="M229.6,169l0.2,0.4l-0.1,0.2l0.2,0.1l-0.1,0.4v1.5l-0.1,0.6l0.1,0.2v0.4l-0.1,0.4l0.1,0.2l-0.1,0.8l0.1,0.2l-0.1,0.7
		l0.1,0.2l-0.1,0.3l0.1,0.8l-0.1,0.3l0.2,0.4l-0.1,0.4l0.1,0.8l0,0.4l-0.1,0.2l0.1,0.2v0.9l-0.1,0.2l0.1,0.2l-0.1,0.6l0.1,0.1l0,0.4
		l-0.1,0.2l0.1,0.1l0,0.7l0.1,0.4l-0.1,0.2l0.2,0.2l-0.1,0.2v0.4l-0.1,0.2l0.1,0.2l0,0.6l-0.1,0.2l0.3,0.6l-0.2,0.4l0.1,0.3l0.1,0.6
		l0.1,0.1l-0.2,0.6l0,0.2l-0.1,0.2l0.1,0.3l-0.1,0.2l0.1,0.9l-0.1,0.2l-0.1,0l0.1,0.4l0.1,0.8l-0.1,0.1l0.1,0.3l-0.1,0.4l0.1,0.6
		l0.2,0.1l0.3,0.1l0.6-0.2l0.2-0.2l0.2,0l0.5-0.3l0.2,0l1.6-0.8l0.4-0.1l0.3-0.3l0.4,0l0.3-0.2l0.2,0.1v-0.2l0.5-0.2l0.1-0.1l0.2,0
		l0.2-0.2l0.1,0l0.4-0.3l0.5-0.1l0.5-0.3l0.1-0.2l0.2,0l1.8-0.9l0.2,0l0.4-0.3l0.2,0l0.4-0.1l0.2,0.1l-0.1,0.2h0.4l0.2-0.1l0.3,0.2
		l0.6,0.2l0.1,0.1l0.2,0l0.1,0.2l0.2,0l0.5,0.3h0.3l0.3,0.2l0.3,0.3l0.3-0.1l0.3,0.2l0.5,0.2l0.3,0.2l1,0.3l0.1,0.1l0.3,0.1l0.5,0.3
		l0.2,0l0.2,0.2h0.2l0.7,0.3l0.2,0l0.1,0.1l0.2,0.1h0.2l0.1,0.2l0.4,0l0.1,0.2l0.8,0.3l0.2-0.1l0.2-0.4l0-0.2l-0.1-0.2l0.1-0.2
		l-0.1-0.8l0.1-0.7l0-0.9l0.1-0.2l-0.1-0.4l0.1-0.6l-0.1-0.2l0.1-0.2l0-0.4l0.1-0.4l-0.1-0.3l0-1.2l0.1-0.2l-0.1-0.7l0.1-0.2
		l-0.1-0.2l0.1-0.3l-0.1-0.2v-1.2l0.1-0.8l-0.1-0.3l0.1-0.2l-0.1-0.4l0.1-0.2v-0.2l-0.1-0.2l0.1-0.2l-0.1-0.2l0.1-0.4l0-0.7l0.1-0.1
		v-0.3l-0.1-0.2l0.1-0.3l0-0.5l-0.1-0.1v-0.4l0.1-0.7l-0.1-0.2l0.1-0.1l-0.1-0.1l0-0.4l0.1-0.2l-0.1-0.3v-0.8l0.1-0.6l-0.1-0.3
		l0-0.5h0.1l-0.2-0.2l0.1-0.2l0-0.3l-0.1-0.3l0.1-0.8l-0.1-1.2l-0.1-0.2l0.1-0.2l-0.1-0.8l0.2-0.4l-0.1-0.6l0.1-0.4l-0.2-0.4
		l0.2-0.2l-0.1-0.8l0.1-0.2l-0.1-0.3l0.1-0.5l-0.1-0.5l0-0.4l-0.1-0.3l0.2-0.3l-0.1-1.3l0.1-0.8l-0.1-1.1l0.1-0.8l-0.1-0.1l0.1-0.7
		l0-0.4l0.1-0.2l-0.1-0.3l0.1-0.2l-0.1-0.2l0-0.3l-0.1-0.2l0.2-0.4v-0.2l0.3-0.2l0.4,0l0.5,0.1l0.1,0.2l0,0.6l0.1,0.2l-0.1,0.2
		l0.1,0.3v1.7l0.1,0.2l-0.2,0.2l0.1,0.3l0,0.8l-0.1,0.2l0,0.4l0.1,0.2l0,0.2l0.1,0.4l0,0.4l-0.1,0.1l0.1,0.5l0.1,0.2l-0.1,0.2v0.6
		l0.1,0.1l-0.1,0.2l0,1.1l-0.1,0.2l0.1,1.3l-0.1,0.3l0.1,0.4l-0.2,0.3l0.1,0.4l0.1,1.1l-0.2,0.5l0.2,0.2v0.7l-0.1,0.2l0.1,0.7
		l-0.1,0.5l0.1,1.2l-0.2,0.2l0.1,0.4l0,1.2l0.1,0.4l-0.1,0.6l0.1,0.2l-0.1,0.4l0.1,0.1v0.4l-0.1,0.1l0.1,0.2l0,0.5l0.1,0.2l-0.2,0.3
		l0.1,0.1v0.2l-0.1,0.1h0.2v0.2l-0.3,0.3l0.2-0.1v0.8l0.1,0.3l-0.1,0.2l0.1,0.2l-0.1,0.3l0,0.2l-0.1,0.1l0.1,0.9l-0.1,0.3l0.1,0.2
		l0,0.4l0.1,0.2l-0.1,0.1l0.1,0.1l-0.2,0.6l0.1,0.1l-0.1,0.4l0.1,0.2v0.2l-0.1,0.2l0.1,0.8l0,0.6l0.1,0.3l-0.1,0.8l0.1,0.6l-0.1,0.3
		l0.1,0.7l0,0.2l-0.1,0.2l0.1,0.6l-0.1,0.3l0.1,0.1v0.4l-0.1,0.1l0.1,0.2l0.1,1.1l-0.1,0.3l0.1,0.2l0,0.6l-0.1,0.6l0.1,0.2l-0.3,0.4
		l-0.2,0l-0.3-0.2h-0.2l-0.4-0.2h-0.2l-0.5-0.4l0-0.2l-0.3,0.1l-1-0.4l-0.2-0.1l-1.4-0.5l-0.1-0.2l-1.4-0.5l-1.7-0.9l-0.2,0
		l-0.5-0.3l-0.3,0l-0.1-0.1h-0.2l-0.1-0.1l-0.2-0.1l-0.1-0.1l-0.3-0.1v-0.2H242l-0.1-0.3l-0.4,0.1l-0.3-0.2l-0.1-0.2l-0.9-0.1
		l-0.1-0.2v0.3l-0.7,0.4l-0.5,0.1l-0.1,0.1l-0.7,0.3l-0.2,0.1l-0.3,0l-0.4,0.2l-0.1,0.2l-0.4,0.1l-0.3,0.2l-0.2-0.1l-0.2,0.1
		l-0.2,0.3l-0.8,0.3l-0.4,0l-0.6,0.5H234l-0.4,0.3l-0.2-0.1l-0.1,0.1l-0.2-0.1l0.1,0.2l-0.4,0.1l-0.2,0.1l-0.1-0.1l0,0.2l-0.4,0.2
		l-0.1,0.2l-0.2,0l-0.2,0.1l-0.2,0l-0.4,0.2l-0.2,0.2l-0.2,0l-0.3,0.2l-0.4,0l-0.2,0.2h-0.2l-0.1,0.1l-0.8,0.3l-0.2,0l-0.2-0.2
		l0-0.4l-0.1-0.9l0.2-0.1l0-0.2l-0.1-0.1v-1l0.2-0.1l0.2-0.2l-0.4-0.1l0.2-0.2l-0.1-0.4l0-0.6l0.2,0l-0.2-0.3l0.1-0.1l0.1,0
		l-0.1-0.2l-0.2-0.3l0-0.3l0.2-0.2l-0.2-0.1l0-0.4l-0.1-0.2l0.1-0.1l0-0.6l0.1,0.1v-0.2l-0.2-0.2l0.2-0.3l-0.1-0.2l-0.1-0.1v-0.3
		l0.3-0.1l-0.1-0.1l-0.1,0.1l0-0.1l0.2-0.1l0.1-0.1l-0.2-0.1l-0.1-1.2l0.3,0.1l0.4,0.1l0.1-0.3l-0.3,0.2l0-0.1l-0.4-0.1l-0.1-0.8
		l0.1-0.1l-0.1-0.4l0.1-0.2l0.4,0.1l-0.1-0.3l0.2,0.1l-0.2-0.4l-0.1,0.4l-0.2,0.1l0.1-0.2v-0.6l0.1-0.2h0.2l0.1,0.1l0.1-0.1l0.1-0.1
		l0.3,0.1l-0.1-0.1l0.2-0.1l0.1-0.2h-0.2l0.2-0.2l-0.1-0.1l-0.2,0.2l-0.2,0.1l0.1,0.4l-0.4,0.1l-0.2,0l0-0.3h0.2l-0.1-0.2l-0.1-0.1
		l0.1-0.4l-0.1-0.2l0.2-0.4l-0.3-0.1l0.1-0.7l-0.1-0.2l0.2,0l0.1-0.1l-0.3,0v-0.2l-0.1-0.1l0.2-0.4l-0.2-0.3l0.2-0.7l-0.1-0.4
		l0.1-0.3l-0.1-0.2l0.1-0.4v-1.7l-0.1-0.2l0.1-0.6v-0.4l-0.1-0.2l0.1-0.3l-0.1-0.3l0.1-0.1l-0.1-0.2l0.1-0.2l-0.1-0.8l0.1-0.3
		l-0.1-0.3l0.1-0.4l-0.1-0.2l0.2-0.1l-0.2-0.8l0.1-1l-0.1-0.1l0-1l0.1-0.1l-0.2-0.2l0.2-0.2l-0.2-0.6l0.1-0.8l-0.1-0.3l0.1-0.3
		l-0.1-0.2l0.1-1l-0.1-0.4l0.1-1.4l-0.1-0.2l0.1-0.3l-0.1-0.6l0.1-0.6l0.1-0.1l-0.1-0.5l0.1-0.2v-0.4l-0.1-0.6l0.1-0.4l-0.1-0.3
		v-0.8l0.1-0.7h0.2l0.2-0.2l0.3,0l0.1,0.1l0.5,0.2l0,0.4l0.1,0.3l-0.1,0.4l0.1,1l-0.1,0.2l0.1,0.4l0,0.4l-0.1,0.2l0.1,0.2l0,0.4
		l0.1,0.2l-0.1,0.9l-0.1,0.2l0.1,0.2l-0.1,0.4l0.1,0.4l-0.1,0.2l0.1,0.2l-0.1,0.3l0.1,0.4l-0.1,0.7l0.1,0.5l-0.1,0.2l0.1,0.4l0,0.2
		l0.1,0.5l-0.2,0.3l0.1,0.2l0,0.9l0.1,0.2l-0.1,0.3l0.1,0.8l-0.1,0.6l0.1,0.2l-0.1,0.2L229.6,169z M228.4,188.1l0.2,0l0.1-0.1
		l-0.3-0.2l0,0.2V188.1z M228.5,179.7l0.2,0l0,0.2l0.2,0.1l-0.2-0.3l0.1-0.2l-0.1,0l-0.2-0.2l-0.1,0.4L228.5,179.7z M228.4,183.1
		l0,0.2l0.2-0.2H228.4z M228.5,156.5L228.5,156.5L228.5,156.5L228.5,156.5z M228.5,177.7l0.1-0.3l-0.2,0.1L228.5,177.7z M228.5,187
		l0.4,0l0.1-0.1l-0.4,0L228.5,187z M228.5,189.1l0.2-0.1l0-0.2l-0.2,0.1L228.5,189.1z M228.5,176.9l0.1-0.1l0-0.2h-0.1v0.2
		L228.5,176.9z M228.7,184.1l0.1-0.2l-0.1-0.2l-0.2-0.1L228.7,184.1L228.7,184.1z M228.5,181.1h0.1H228.5L228.5,181.1z M228.5,187.6
		L228.5,187.6l0.1-0.1h-0.1L228.5,187.6z M228.5,188.3h0.3l0.1-0.1l-0.2-0.1L228.5,188.3z M228.6,174.7v0.1l0.3,0l-0.1-0.2H228.6z
		 M228.7,162.1l0-0.2l-0.1-0.1L228.7,162.1z M228.8,178.4l-0.1-0.2l-0.2-0.1l0,0.2L228.8,178.4z M228.7,180.3l0.1,0.3l-0.2,0
		l0.1,0.2l0.2,0.1l0-0.3h0.1l-0.1-0.2L228.7,180.3z M228.8,157.7l-0.2-0.1l0.1,0.2L228.8,157.7z M228.7,173.1L228.7,173.1l0.1-0.2
		h-0.1V173.1z M228.7,184.7l0,0.2h0.2v-0.2H228.7z M228.7,185.3l0.3,0.1l0-0.2h-0.2L228.7,185.3z M228.7,189.4l0.1,0.3l0.1-0.3
		L228.7,189.4z M228.7,176.5l0.2,0.1l0-0.2L228.7,176.5z M228.8,164l0-0.1L228.8,164L228.8,164z M228.8,192.6L228.8,192.6l0.1-0.1
		L228.8,192.6L228.8,192.6z M228.8,177.9l0.1,0.1l0.1-0.2l-0.1-0.2l-0.1,0.2L228.8,177.9z M229,184.1l0-0.4l-0.1-0.1v0.3L229,184.1z
		 M228.9,193.2L228.9,193.2L228.9,193.2L228.9,193.2L228.9,193.2z M228.9,185.6l0.1-0.2h-0.1V185.6z M228.9,191.3h0.2l-0.2-0.2
		L228.9,191.3z M229,178.9l0.2,0l0-0.1L229,178.9z M229,182.6l0.2-0.1l0.1-0.2l-0.2,0l-0.1,0.1V182.6z M229,191l0.1-0.1l-0.1-0.1
		L229,191z M229,192.1l0.2,0.1l0-0.2L229,192.1z M229.1,164.8v-0.2l-0.1-0.1l0,0.1L229.1,164.8z M229,179.4l0.2,0l-0.2-0.2V179.4z
		 M229.2,180.6l0-0.1l-0.2,0.1L229.2,180.6z M229,178.6l0.2-0.1L229,178.6L229,178.6z M229.4,179.8h-0.2l-0.1,0.1l0.1,0.1
		L229.4,179.8L229.4,179.8l0.1-0.1L229.4,179.8z M229.1,188.4l0.1,0.2L229.1,188.4L229.1,188.4z M229.4,183.2l0.1-0.2l-0.4-0.1
		l0.1,0.2L229.4,183.2z M229.2,186.2L229.2,186.2L229.2,186.2L229.2,186.2L229.2,186.2z M229.2,187L229.2,187l0.2,0L229.2,187z
		 M229.3,178.8h0.1l-0.1-0.1V178.8z M229.5,183.8l0-0.2l-0.1-0.1l-0.1,0.2L229.5,183.8z M229.3,191.9h0.1v-0.1L229.3,191.9
		L229.3,191.9z M229.5,184.6v-0.2h-0.1L229.5,184.6z M229.4,193.6h0.1l-0.1-0.1L229.4,193.6z M229.5,163.2l0-0.1h-0.1L229.5,163.2z
		 M229.5,181.5h0.2v-0.2L229.5,181.5z M229.5,189.1L229.5,189.1L229.5,189.1L229.5,189.1L229.5,189.1z M234.3,155.5l0.2-0.2l1.1-0.1
		l0.3,0.1l0.1-0.1l0.4,0.1l1.2-0.1l0.4,0.1l0.3-0.1l0.3,0.1l0.2,0l0.1-0.1l0.4,0.1l1.1-0.1l0.3,0.1l0.4-0.1l0.2,0.1l0.2-0.1h0.3
		l0.4,0.1l0.7-0.1l0.2,0.1h0.4l0.2-0.1l0.1,0.2l0.2-0.2h0.8l0.1,0.1l0.3-0.2l0.4,0.1l0.2-0.1l0.4,0l0.4-0.1l0.2,0.1l0.4,0.1l0.2-0.1
		h0.4v0.2l0.4-0.1l0.3-0.2l0.4,0.2l0.4-0.1l0.3,0.1l0.2-0.1l0.1,0l0.4-0.1l0.5,0.1l0.2,0.4l-0.1,0.2l0.1,0.4l0.1,1.6l-0.1,0.1
		l0.1,0.2l-0.1,0.2l0.1,0.1l-0.1,0.2l0.2,0.5l-0.1,0.4l0.1,0.5v0.9l-0.1,0.2l0,0.8l-0.1,0.6l0.1,0.3v0.9l-0.2,0.1l0.2,0.1l-0.1,0.4
		l0.1,0.4l-0.1,0.6l0.1,0.4l-0.1,0.2l0,0.2l-0.1,0.2l0.2,0.1l0,0.6l-0.1,0.2v1.1l-0.1,0.2l0.1,0.1l0,0.4l-0.1,0.4l0.1,0.4l-0.1,0.4
		l0.1,0.2l-0.1,1.5l-0.1,0.2l0.1,0.2l0,0.4l-0.1,0.2l0.1,0.3l-0.1,0.3l0.1,0.8v1.6l0.1,0.2l-0.1,0.6l0.1,0.3l-0.1,0.1v0.7l-0.1,0.2
		l0.1,0.1v0.5l0.1,0.2l-0.1,0.4l0.1,0.2l-0.1,0.2l0.1,0.8l-0.1,0.6l0.2,0.3l-0.1,0.2v2.1l-0.1,0.1l0.1,0.2v0.5l0.1,0.2l-0.1,0.7
		l0.1,1l-0.1,0.5l0.1,0.3l-0.1,1.2l0.1,0.3l0,1.1l-0.1,0.2l0.1,0.2l-0.1,0.1l0,0.2l-0.1,0.2l0.1,0.2l-0.3,0.5h-0.2l-0.1,0.1
		l-0.4-0.2l-0.3-0.2l-0.8-0.2l-0.3-0.2l-0.2,0l-0.6-0.4l-0.2,0.1l-0.1-0.1l-0.2,0l-0.1-0.2l-0.4,0l-0.3-0.2l-0.2,0l-0.3-0.3
		l-0.2,0.1l-0.2-0.1l-0.1-0.2l-0.4-0.1l-0.1-0.1l-0.5-0.1l-0.3-0.2l-0.4-0.1l-0.1-0.2l-0.3-0.2l-0.1-0.1l-0.3,0.1l-0.4-0.3l-0.4-0.1
		l-0.2-0.3l-0.3-0.1l-0.1-0.1l-0.1,0.1l-0.5-0.2l-0.1-0.2l0.2-0.1l0.3,0.2l0.2,0l-0.1-0.2l-0.4-0.2l0.1-0.2l-0.3-0.3l0,0.2l0.2,0.2
		l0,0.2l-0.2,0.3h-0.3l-0.2-0.6l-0.1,0.2l0.1,0.2l-0.1,0.1l-0.1,0.1l0.1,0l0.1-0.2v0.2l-0.3,0.2h-0.2l-0.5,0.2l-0.1-0.1H239v0.3
		l-0.7,0.2h-0.2l-0.1,0.1l-0.6,0.2l-0.1,0.2l-0.2,0l-0.5,0.3l-0.2,0l-0.3,0.1H236l-0.2,0.1l-0.1,0.2l-0.7,0.1l-0.2,0.2l-0.4,0.1
		l0.1-0.3l-0.1,0.1l-0.1,0.4l-2,1l-0.3-0.1l-0.1,0.2l-0.3,0.2l-0.4,0l0,0.1l-0.3,0.2h-0.4l-0.2-0.1l-0.1-0.4v-0.4l-0.1-0.2l0.1-0.3
		l-0.2-0.2l0.1-0.3l-0.1-1.1l0-0.5l0.2-0.1l-0.2-0.1l-0.1-0.8l0.1-0.4l-0.1-0.2v-0.5l0.3-0.1l-0.1-0.1h-0.2l0-0.6l0.2-0.1l-0.1-0.1
		l-0.1-0.4l0.1-0.2l-0.1-0.5l0.1-0.2l-0.2-0.3l0.2-0.2l-0.1-0.4l0.1-0.2l0.1-0.1l-0.3-0.7l0-0.2l0.1-0.2l-0.1-0.2l-0.1-0.4l0.1-0.4
		v-0.4l0.1-0.1l-0.2-0.3V179l0.1-0.1l-0.1-0.3l0.4,0l-0.3-0.2l0-1.6l0.1-0.2l-0.1-0.8l0-1l0.1-0.2l-0.2-0.3l0.1-0.2v-0.8l-0.1-0.3
		l0-0.2l0.2-0.3l-0.1-0.4l0-0.6l-0.1-0.3l0-0.6l-0.1-0.2l0.2-0.5l-0.2-0.3l0.1-0.2l-0.1-0.2l0.1-0.2l-0.1-0.7l0.1-0.2l-0.1-0.4
		l0.1-1.6l-0.1-0.5l0.1-0.3l0-0.4l0.1-0.4l-0.1-0.3V163l0.1-0.4l-0.1-0.3l0.1-0.1l-0.1-0.2v-0.9l0.2-0.2l-0.2-0.2l0.1-0.5l-0.1-0.4
		l-0.1-0.2l0.1-0.2l0-0.4l-0.1-0.1l0.1-0.2v-0.6l0.1-0.2l-0.1-0.3v-1.9l0.2-0.4l0.2-0.1l0.3,0.1l0.2-0.2l1.2,0.1l0.2-0.1l0.3,0.1
		l1.4,0L234.3,155.5z M230.7,183.1l-0.2-0.1v0.2L230.7,183.1z M230.5,185.8L230.5,185.8l0.2,0L230.5,185.8z M230.5,187.7l0.3,0.3
		l-0.1-0.4L230.5,187.7z M230.8,188.3l-0.1-0.2h-0.1l0,0.2L230.8,188.3z M230.6,179.9h0.1l-0.1-0.1L230.6,179.9z M230.7,183.6
		L230.7,183.6L230.7,183.6L230.7,183.6z M230.7,180.2l0.1,0.1h0.2l-0.1-0.2L230.7,180.2L230.7,180.2z M230.7,184.9h0.2l-0.2-0.2
		V184.9z M230.7,181.4h0.1v-0.1L230.7,181.4L230.7,181.4z M230.9,168.1L230.9,168.1l0-0.1L230.9,168.1z M230.9,186.5l0.2-0.1l-0.2,0
		V186.5z M231.1,179.9l0-0.1l-0.2-0.1L231.1,179.9z M231,181.1l0.2,0.1L231,181.1L231,181.1z M231.2,176.9l-0.2,0L231.2,176.9
		L231.2,176.9z M231.1,185.9l0.2,0l0.1-0.2l-0.2,0L231.1,185.9L231.1,185.9z M231.1,189.2l0.1,0.1L231.1,189.2L231.1,189.2z
		 M231.1,181.9l0.1-0.1h-0.1V181.9z M231.1,184.9l0.2-0.1l-0.1-0.1L231.1,184.9z M231.2,182.8l0.1,0.1l-0.1,0.2l0.2,0.1l0.1-0.6
		L231.2,182.8z M231.2,187.4L231.2,187.4L231.2,187.4L231.2,187.4L231.2,187.4z M231.2,184.5l0.2-0.1l-0.1-0.2l-0.1,0.1V184.5z
		 M231.2,186.3h0.2v-0.1L231.2,186.3z M231.3,182.4L231.3,182.4L231.3,182.4L231.3,182.4L231.3,182.4z M231.3,184.2L231.3,184.2
		L231.3,184.2L231.3,184.2L231.3,184.2z M231.3,184.9l0.1,0.2l0.2-0.2H231.3z M231.4,187l0-0.2h-0.2L231.4,187z M231.5,181.4l0.1,0
		l0.1-0.1l-0.2,0L231.5,181.4z M231.5,183.1h0.1V183L231.5,183.1L231.5,183.1z M231.5,183.5L231.5,183.5h0.2l0-0.1L231.5,183.5z
		 M231.7,185.8l0.1-0.2l-0.2,0L231.7,185.8z M231.8,182.7l-0.1-0.2l0,0.2L231.8,182.7z M231.9,181.1l-0.1-0.1l-0.2,0l0.1,0.2H231.9z
		 M232.7,181.7l-0.3,0.4l-0.2,0l0,0.1l-0.3-0.1l-0.2,0.1l0.3,0.1l0.4,0.1l0-0.3l0.2,0l0-0.2L232.7,181.7l0-0.3l-0.2-0.1l0.1,0.2
		L232.7,181.7z M231.8,183.9l0.1,0v-0.1h-0.1V183.9z M231.8,192.1l0.2,0V192L231.8,192.1z M232,183.2h0.3v-0.1L232,183.2L232,183.2z
		 M232.1,185.2L232.1,185.2L232.1,185.2L232.1,185.2L232.1,185.2z M232.1,186.3l0.1,0.1v-0.2L232.1,186.3z M232.2,181.6l0.1,0.1
		l0.2,0l-0.1-0.2L232.2,181.6z M232.3,192.4l0.1-0.2l-0.1-0.1l-0.1,0.1L232.3,192.4z M232.2,165.3L232.2,165.3L232.2,165.3
		L232.2,165.3L232.2,165.3z M233.2,183.7l-0.4-0.1l-0.1-0.1l-0.1,0.2l-0.1,0v-0.2l-0.1,0.1v0.2l0.2,0.1l0,0.2l-0.2-0.1l-0.1-0.2
		l-0.1,0.2l0.1,0.2l0.3,0.2l-0.1,0.2l0.2-0.1l0.2,0.1l-0.1-0.4l0.2-0.4l0.1,0.2l0.2,0l0.1,0.1l0.2-0.3l0.2,0.2l0.2-0.1l-0.1-0.2
		l-0.4-0.1L233.2,183.7L233.2,183.7z M232.3,184.8l0.1-0.1l-0.1-0.1L232.3,184.8z M232.4,179.2h0.2l0.1-0.2l-0.2-0.1l-0.1,0.1
		L232.4,179.2z M232.5,183.1v-0.2h-0.1L232.5,183.1z M232.4,156.2L232.4,156.2L232.4,156.2L232.4,156.2L232.4,156.2z M232.4,191.6
		h0.3l-0.1-0.1v-0.1l-0.2,0.1L232.4,191.6z M232.5,180.9l0.1,0.2l0.2-0.2l-0.1-0.1h-0.1L232.5,180.9z M232.7,184.6l0.1,0.2l-0.1,0.2
		l0.2-0.1l0.1-0.2l0.1,0.1l0.1-0.1l-0.2-0.1L232.7,184.6z M232.8,182.6l0-0.2l-0.1-0.1l0,0.2L232.8,182.6z M232.7,185.3h0.1
		l-0.1-0.2V185.3z M232.8,189.8h0.2l0.1-0.1l-0.2-0.1L232.8,189.8z M232.9,182L232.9,182l0-0.2L232.9,182z M233.3,183l-0.3-0.1
		l-0.1,0.1l0,0.3l0.7-0.3l0.1-0.1l-0.4,0L233.3,183z M233,184.1l0.1,0.2l0.2,0.1l0.1-0.1l0.1-0.2H233z M233,191.3l0.2,0l-0.1-0.1
		L233,191.3z M233,179.9l0.2,0L233,179.9L233,179.9z M233.2,181.6l0-0.2l-0.1-0.1L233.2,181.6z M233.1,182.6h0.1v-0.1L233.1,182.6
		L233.1,182.6z M233.6,180.9l-0.1,0.2l-0.1-0.2l0,0.2l0.1,0.1l0.2,0l0.1-0.1L233.6,180.9z M233.5,184.6v-0.2h-0.2l0.1,0.2
		L233.5,184.6z M233.5,185.1l0,0.3l0.1,0v-0.4l-0.2,0L233.5,185.1z M233.4,182.1l0.2,0l-0.1-0.4l-0.1,0.2L233.4,182.1z M233.5,184.2
		l0.1,0.1l0.1-0.1H233.5z M233.5,189.2L233.5,189.2l0.2,0L233.5,189.2z M233.6,155.7L233.6,155.7L233.6,155.7L233.6,155.7
		L233.6,155.7z M233.6,186.5L233.6,186.5L233.6,186.5L233.6,186.5z M233.7,183.4l0.2,0l0.1-0.1l-0.2-0.1L233.7,183.4z M233.7,191.4
		l0.1-0.1h-0.1V191.4z M233.8,182.4l0.2,0L233.8,182.4L233.8,182.4z M233.8,185.2L233.8,185.2l0.3,0.1l-0.1-0.2L233.8,185.2z
		 M233.8,189l0.2-0.1l0-0.2h-0.1L233.8,189z M233.9,182.7L233.9,182.7L233.9,182.7L233.9,182.7z M233.9,180.2h0.2l0.1-0.2H234
		L233.9,180.2z M233.9,163.2L233.9,163.2L233.9,163.2L233.9,163.2L233.9,163.2z M233.9,183.1l0.1,0.1V183L233.9,183.1z M234.2,184.8
		l0-0.2l-0.2-0.1l0.1,0.1L234.2,184.8z M234,158.9L234,158.9L234,158.9L234,158.9L234,158.9z M234,176.6L234,176.6l0.2-0.1l-0.1-0.1
		L234,176.6z M234.2,183L234.2,183l0.1-0.4l-0.1,0l-0.1,0.3L234.2,183z M234.2,182.1l0.1,0.1l0.2,0.1l0-0.2l-0.1-0.1L234.2,182.1z
		 M234.2,181.4h0.2l0.1-0.1l-0.2,0L234.2,181.4z M234.3,183.9l0.1-0.2h-0.2L234.3,183.9z M234.4,179.8L234.4,179.8L234.4,179.8
		L234.4,179.8z M234.5,182.6l0.2-0.1l0.3,0.4l-0.1,0.1h0.1v0.2l-0.1,0.1l-0.2,0l-0.2-0.4l-0.2,0l0,0.2l-0.1,0.1l0.2,0.3l0.4-0.1
		l0.3-0.3l0-0.2l-0.1-0.2l0.2-0.1l0.1-0.2l-0.4,0.1v-0.2l-0.5-0.3l-0.1,0.1L234.5,182.6z M234.4,184.3l0.1,0.1h0.2l0.1-0.2l-0.1-0.1
		l-0.1,0.1H234.4z M234.4,191L234.4,191L234.4,191L234.4,191z M234.4,184.1l0.1,0l0.1-0.1L234.4,184.1L234.4,184.1z M234.6,178.4
		L234.6,178.4L234.6,178.4L234.6,178.4L234.6,178.4z M234.8,182.3L234.8,182.3l0-0.2h-0.2L234.8,182.3z M234.8,181.7v-0.2l-0.1-0.1
		l0,0.2L234.8,181.7z M234.7,184.9L234.7,184.9l0.1-0.3h-0.1l0,0.2L234.7,184.9z M234.7,191.3L234.7,191.3L234.7,191.3L234.7,191.3
		L234.7,191.3z M234.9,182.1L234.9,182.1L234.9,182.1L234.9,182.1L234.9,182.1z M234.9,182.5l0.2-0.1l0-0.2l-0.2,0.1L234.9,182.5z
		 M235.4,175.7l0-0.3l-0.2,0l0,0.2L235.4,175.7z M235.2,183.7L235.2,183.7L235.2,183.7L235.2,183.7L235.2,183.7z M235.4,183.2
		L235.4,183.2L235.4,183.2L235.4,183.2L235.4,183.2z M235.5,182.3l0.1-0.1V182l-0.2,0.1L235.5,182.3z M235.7,177l0-0.1l-0.1-0.1
		L235.7,177z M235.9,181.6h-0.2l-0.2-0.1l0.1,0.2l0.2,0L235.9,181.6z M235.6,176.2l0.1,0.1h0.1l-0.1-0.1H235.6z M235.6,190.6
		L235.6,190.6L235.6,190.6L235.6,190.6z M235.7,183.8l0.2,0l0.1-0.2l0.1-0.1l0-0.1l-0.2,0.3L235.7,183.8z M235.7,188.2L235.7,188.2
		L235.7,188.2L235.7,188.2z M235.9,182.8v-0.1l-0.1,0L235.9,182.8z M235.8,183l0.2-0.1l-0.1-0.1L235.8,183z M235.8,181.3l0.2,0.1
		l0-0.2L235.8,181.3z M236,190.6v-0.3h-0.1l0,0.2L236,190.6z M236,176.4L236,176.4L236,176.4L236,176.4L236,176.4z M236.1,176.6
		l0.2,0.1v-0.2L236.1,176.6z M236.2,177.8L236.2,177.8L236.2,177.8L236.2,177.8z M236.2,184.1l0.1,0.1h0.2l-0.1-0.2L236.2,184.1z
		 M236.3,182.1l0.1-0.2h-0.1L236.3,182.1z M236.4,185.6l0-0.2h-0.2L236.4,185.6z M236.3,182.7L236.3,182.7l0.3,0.1l-0.1-0.2
		L236.3,182.7z M236.4,183.8L236.4,183.8L236.4,183.8L236.4,183.8z M236.4,174.8L236.4,174.8L236.4,174.8L236.4,174.8L236.4,174.8z
		 M236.5,180.1L236.5,180.1L236.5,180.1L236.5,180.1L236.5,180.1z M236.5,184l0.3,0.1l0-0.4l-0.2,0.1L236.5,184z M236.6,182.4h0.2
		l-0.1-0.2L236.6,182.4z M236.8,187l0.1-0.2L236.8,187L236.8,187z M236.9,161.4L236.9,161.4L236.9,161.4L236.9,161.4L236.9,161.4z
		 M236.9,186.3h0.2v-0.1H237L236.9,186.3z M236.9,187.1L236.9,187.1l0.1-0.1L236.9,187.1z M237.2,187.7l0-0.2l-0.1-0.1v0.1
		L237.2,187.7z M237.4,183.2L237.4,183.2L237.4,183.2L237.4,183.2L237.4,183.2z M237.7,185.4L237.7,185.4l0.2,0.1l-0.1-0.2V185h-0.1
		l0,0.2V185.4z M237.9,162.5l-0.1-0.2l0,0.1L237.9,162.5z M237.8,186.4l0.2-0.1l0-0.2l-0.1-0.2l-0.2-0.1l0.1,0.4L237.8,186.4z
		 M237.8,183.9v0.4l0.1-0.1l0.1-0.4L237.8,183.9z M238,187.1h-0.2H238L238,187.1z M237.9,184.6l0.1,0.2l0.1-0.1L237.9,184.6z
		 M238,189.1L238,189.1l0-0.1L238,189.1z M238.1,187.4L238.1,187.4L238.1,187.4L238.1,187.4z M238.2,185.5L238.2,185.5v-0.1V185.5z
		 M238.2,187l0.1-0.1h0.1l0-0.2l-0.2-0.1l0,0.2V187z M238.4,184.5L238.4,184.5l-0.2-0.2L238.4,184.5z M238.3,184.8l0.1,0.2l0.1-0.2
		H238.3z M238.3,186.5L238.3,186.5h0.2H238.3z M238.4,185.4l0.2-0.1l-0.1-0.1L238.4,185.4z M238.4,183.9h0.1H238.4L238.4,183.9z
		 M238.5,188.9l0.1,0l0.1-0.1h-0.2L238.5,188.9z M239,186.1l0-0.2l-0.4-0.1l0.3,0.5h0.4l-0.1-0.2l0.2-0.3l-0.2-0.3l0,0.4L239,186.1z
		 M238.6,186.4L238.6,186.4L238.6,186.4L238.6,186.4L238.6,186.4z M238.7,186.8l0,0.2l0.2,0l0.2,0.1l0-0.2L238.7,186.8L238.7,186.8z
		 M238.7,186.6l0.2-0.2l-0.2,0.1V186.6z M238.8,185.4h0.2H238.8L238.8,185.4z M238.9,184.3l0.1,0.4l0.2-0.1l-0.1-0.4L238.9,184.3z
		 M239.2,186.8l0.1,0.1l0.1-0.3h0.3l-0.2-0.3l-0.2,0l0,0.4L239.2,186.8z M239.3,173.1h0.2H239.3L239.3,173.1z M239.3,184.6
		L239.3,184.6l0.2,0L239.3,184.6z M239.4,183.2l0.1-0.1l-0.1,0L239.4,183.2z M239.4,184v0.1l0.2,0.1l0-0.2H239.4z M239.5,185.4
		l0.1-0.1l-0.1-0.1l-0.1,0.1L239.5,185.4z M239.6,188.8v-0.2h-0.1l0,0.1L239.6,188.8z M239.6,185.8l0,0.2l0.1,0l0.2-0.1l-0.1,0.3
		l0.1,0.1l0.3-0.2l-0.1,0.3l0.3-0.1l-0.1-0.2l-0.4-0.4l-0.1,0.1L239.6,185.8z M239.9,183.7L239.9,183.7l0.1-0.2l-0.1,0.1
		L239.9,183.7z M240,164.4L240,164.4L240,164.4L240,164.4L240,164.4z M240,185.6l0.3,0l-0.1-0.2H240L240,185.6z M240.1,171.4
		L240.1,171.4L240.1,171.4L240.1,171.4L240.1,171.4z M240.2,184.4l-0.1,0.3l0.2,0l0.1,0.1l0,0.2l0.1,0.1l0.2,0.3l0.2,0l0-0.2
		l-0.1-0.1l-0.1-0.2l0.4,0.1l-0.1-0.2l-0.6-0.2l-0.1-0.1l0.2,0l-0.1-0.2l-0.1,0.1H240.2z M240.4,184.1l-0.1-0.2l-0.1,0.2
		L240.4,184.1z M240.3,188.1v0.2l0.4,0.1l0.1-0.3l-0.1-0.1l-0.2,0.1L240.3,188.1z M240.5,186.8l0.2-0.4l-0.2,0l-0.1,0.2L240.5,186.8
		z M240.5,186l0.4-0.3l-0.4-0.1V186z M240.8,168.6L240.8,168.6L240.8,168.6L240.8,168.6L240.8,168.6z M240.8,184.6L240.8,184.6
		L240.8,184.6L240.8,184.6L240.8,184.6z M241.1,188.7l0-0.3h-0.2l0.1,0.2L241.1,188.7z M240.9,183.8L240.9,183.8L240.9,183.8
		L240.9,183.8z M241.4,188.7l-0.2,0.1l-0.4,0.1l0,0.1l0.2-0.1l0.6-0.1l0,0.2l0.1,0.1l0.1-0.2v-0.4l-0.3,0.1L241.4,188.7z M241,188.1
		L241,188.1L241,188.1L241,188.1L241,188.1z M241.1,184.1l0.1-0.1l-0.1-0.1L241.1,184.1z M241.1,186.5l0.1,0.2l0.1-0.2L241.1,186.5z
		 M241.2,163.9L241.2,163.9L241.2,163.9L241.2,163.9L241.2,163.9z M241.2,185.6v0.1l0.2-0.2L241.2,185.6z M241.2,184.4L241.2,184.4
		h0.2H241.2z M241.4,186.6L241.4,186.6l0.1-0.1L241.4,186.6z M241.5,186.2l0,0.2l0.2,0.1l0.1-0.2H241.5z M241.6,172.4L241.6,172.4
		L241.6,172.4L241.6,172.4L241.6,172.4z M241.6,184.2l0.1-0.1l-0.1-0.1V184.2z M241.7,185.8l0.1-0.1l0-0.2l-0.2,0V185.8z
		 M241.8,187.1l0.2-0.1l0-0.1L241.8,187.1z M242.1,185.3l-0.2-0.1l0.1,0.2h0.2V185.3z M242,186.4L242,186.4L242,186.4L242,186.4
		L242,186.4z M242,185.9l0.1,0.2l-0.1,0.2l0.2-0.1V186l-0.1-0.2L242,185.9z M242.1,174.3l0.2,0l0-0.1L242.1,174.3z M242.2,168.1h0.1
		H242.2L242.2,168.1z M242.3,189.4h0.2l-0.2-0.2L242.3,189.4z M242.5,175.3l0-0.2L242.5,175.3L242.5,175.3z M242.4,178.3h0.1
		l-0.1-0.1L242.4,178.3z M242.6,186.5l0.1-0.2l-0.2-0.1v0.2L242.6,186.5z M242.8,185.8L242.8,185.8L242.8,185.8L242.8,185.8z
		 M243,187.1l0-0.2h-0.1L243,187.1z M242.9,187.4l0.2,0.1h0.2l-0.1-0.2l-0.2-0.1L242.9,187.4z M243,175.1h0.1l-0.1-0.2V175.1z
		 M243.1,186.4l0.1-0.1l-0.2-0.1L243.1,186.4z M243.1,189.8L243.1,189.8L243.1,189.8L243.1,189.8L243.1,189.8z M243.4,186.3v-0.2
		h-0.1L243.4,186.3z M243.3,189.8l0.2,0l0-0.1h-0.1L243.3,189.8z M243.4,187.4l0.1,0.1v-0.2L243.4,187.4z M243.4,186.6L243.4,186.6
		l0.2,0L243.4,186.6z M244,163.4v-0.1h-0.1L244,163.4z M244,175.2l0.2-0.1l-0.2-0.1V175.2z M244,179.3L244,179.3L244,179.3
		L244,179.3L244,179.3z M244,172.9l0.1-0.1L244,172.9L244,172.9z M244,175.8h0.1l-0.1-0.1V175.8z M244.1,180l0-0.2l-0.1,0L244.1,180
		L244.1,180z M244.3,185.7l0.2,0l-0.2-0.2V185.7z M244.4,189.9L244.4,189.9L244.4,189.9L244.4,189.9L244.4,189.9z M244.4,162.1
		l0.1-0.1h-0.1V162.1z M244.4,176.4l0.1,0.1l0.1-0.2l-0.1-0.1L244.4,176.4z M244.4,188.2L244.4,188.2L244.4,188.2L244.4,188.2z
		 M244.5,171.3l0.2-0.1l-0.2-0.1V171.3z M244.6,174.9L244.6,174.9l0.1-0.1L244.6,174.9L244.6,174.9z M244.9,190.7l0.1-0.2h-0.3
		l0,0.2L244.9,190.7z M244.8,176.1l0.1,0L244.8,176.1L244.8,176.1z M244.9,162.4L244.9,162.4L244.9,162.4L244.9,162.4z M245,165.8
		L245,165.8L245,165.8L245,165.8L245,165.8z M245.2,190.3L245.2,190.3l0.1-0.1h-0.1L245.2,190.3z M245.4,190.9l-0.1-0.2l-0.1,0.1
		L245.4,190.9z M245.4,176.1L245.4,176.1L245.4,176.1L245.4,176.1L245.4,176.1z M245.6,175.4h0.1l-0.1-0.1L245.6,175.4z
		 M245.8,177.8l0.1-0.2h-0.1V177.8z M246,191.3l0.1-0.1v-0.1L246,191.3z M246.1,159.5L246.1,159.5L246.1,159.5L246.1,159.5
		L246.1,159.5z M246.2,176.9l0.1,0.1l0.1-0.1H246.2z M246.3,172.8L246.3,172.8L246.3,172.8L246.3,172.8L246.3,172.8z M246.3,189
		l0.1-0.1h-0.1V189z M246.5,176.4L246.5,176.4L246.5,176.4L246.5,176.4L246.5,176.4z M247.3,176l0.2-0.1l-0.1-0.2L247.3,176z
		 M247.5,155.9L247.5,155.9L247.5,155.9L247.5,155.9L247.5,155.9z M247.8,179.6L247.8,179.6l0.1-0.1L247.8,179.6L247.8,179.6z
		 M249.8,174.8l-0.1-0.1v0.2L249.8,174.8z M251.5,156.2l0.5-0.1l0.1,0.1l0.1,0l0-0.2l-0.1-0.1l-0.1,0.1l0,0l-0.7,0L251.5,156.2z
		 M251.5,155.9l0.1-0.1l-0.3-0.1L251.5,155.9z M251.7,193.2l-0.2,0L251.7,193.2L251.7,193.2z M251.7,157.1l0-0.2l-0.2-0.1v0.2
		L251.7,157.1z M251.7,174.8l0.1-0.3l-0.2,0v0.2L251.7,174.8z M251.8,172.3l0.1,0L251.8,172.3L251.8,172.3z M251.8,175.5
		L251.8,175.5l0.2-0.1L251.8,175.5z M251.8,175.9l0.2-0.1L251.8,175.9L251.8,175.9z M251.8,171.6l0.1,0.1l0.1-0.1H251.8z M251.9,178
		l0.3,0l-0.2-0.1L251.9,178z M252,159.8l0.2-0.1l-0.1,0L252,159.8z M252,193.6L252,193.6L252,193.6L252,193.6z M252,168.7L252,168.7
		l0.2,0L252,168.7z M252.1,192.2L252.1,192.2L252.1,192.2L252.1,192.2L252.1,192.2z M252.2,162.4L252.2,162.4L252.2,162.4
		L252.2,162.4L252.2,162.4z M252.5,175.7l-0.1-0.2h-0.1l0.1,0.2H252.5z M252.5,156.6v-0.2h-0.1l0,0.1L252.5,156.6z"/>
</g>
<g id="Typography">
	<text transform="matrix(1 -0.1534 0 1 11.7974 160.6112)" font-family="'PressStyle'" font-size="136.6481">deansredhalo</text>
	<text transform="matrix(1 -0.1534 0 1 167.8252 153.9436)" font-family="'ROADMOVIE'" font-size="19.6682" letter-spacing="1">fulL STACK WEB DEVELOPER</text>
	<text transform="matrix(1 -0.1534 0 1 350.1588 141.9393)" font-family="'Pacifico'" font-size="12.293">Timothy Jay Tipps</text>
	<g>
		<g>
			<path d="M211.3,170.6c0.1-0.1,0.1-0.1,0.1-0.1c-0.1-0.1-0.3-0.2-0.4-0.3c0,0,0,0,0,0C211,170.4,211.2,170.4,211.3,170.6z"/>
			<path d="M204.7,172.2C204.7,172.2,204.7,172.2,204.7,172.2C204.7,172.1,204.7,172.2,204.7,172.2
				C204.7,172.2,204.7,172.2,204.7,172.2z"/>
			<path d="M212.5,172.6c0,0,0-0.1,0-0.1c0,0-0.1,0-0.1,0C212.4,172.5,212.4,172.5,212.5,172.6C212.5,172.6,212.5,172.6,212.5,172.6
				z"/>
			<path d="M204.9,172C204.8,172,204.8,172,204.9,172c-0.1,0-0.1,0-0.1,0C204.8,172,204.8,172,204.9,172z"/>
			<path d="M211.8,171.6c0-0.1-0.1-0.1-0.1-0.2c0,0-0.1,0-0.1,0.1c0.2,0.1-0.2,0.3,0.1,0.3C211.6,171.6,211.8,171.7,211.8,171.6z"/>
			<path d="M212.3,172.2c0,0,0.1,0,0.1-0.1c-0.1-0.2-0.1-0.3-0.2-0.5c-0.1,0-0.2,0-0.3-0.1c0.1,0.1,0,0.2,0,0.2c0.1,0,0.1-0.1,0.2,0
				c0,0.1,0,0.1,0,0.3C212.2,171.9,212.1,172.1,212.3,172.2c0-0.1-0.1-0.2,0-0.2C212.4,172,212.2,172,212.3,172.2z M212.1,171.9
				c0-0.1,0-0.1,0-0.2C212.3,171.7,212.3,171.9,212.1,171.9z"/>
			<path d="M211.9,172.6c0.1,0.1,0.1,0.2,0.1,0.2c0-0.1,0,0,0.1,0C212.1,172.6,212,172.5,211.9,172.6z"/>
			<path d="M212.6,173.5C212.6,173.5,212.6,173.5,212.6,173.5C212.6,173.5,212.6,173.5,212.6,173.5z"/>
			<path d="M212.5,174.2C212.5,174.2,212.5,174.2,212.5,174.2c0.1-0.1,0.1-0.1,0.1-0.2c-0.1,0-0.2,0-0.2-0.1c0.1,0,0.2,0,0.2,0
				c0-0.1,0-0.2,0-0.3c-0.1,0-0.1-0.1-0.2,0c-0.1,0.1,0.1,0.1,0,0.2c-0.1,0-0.1-0.3-0.2-0.3c0.1,0,0.1-0.2,0-0.2
				c0.1,0.1-0.1,0.1-0.2,0.2c-0.1,0,0-0.1,0-0.2c0.1,0,0.2,0.1,0.1-0.1c-0.1,0-0.1,0.1-0.1-0.1c0-0.1,0.3-0.1,0.2-0.2
				c0,0-0.1,0-0.1,0c-0.1,0-0.2-0.1-0.2,0c-0.1,0-0.2-0.2-0.3-0.1c0-0.1,0-0.3-0.1-0.2c0.1-0.2,0-0.3-0.1-0.4c0.3-0.1,0-0.4,0.1-0.7
				c-0.2,0,0,0.1-0.2,0.2c0-0.1-0.1-0.3-0.3-0.2c0-0.1,0-0.1-0.1-0.2c0.2,0,0.2-0.4,0.2-0.1c0.2-0.1-0.1-0.2,0.1-0.2
				c0,0.1,0.1,0.1,0.2,0.3c-0.1,0-0.1,0-0.1,0.1c0.2-0.1,0.1-0.3,0.2-0.3c-0.1,0.1,0,0.1,0.2,0c-0.1,0-0.2-0.2-0.3-0.2
				c0-0.1,0.2-0.1,0.2,0c0.1-0.1,0-0.1-0.1-0.2c0,0,0,0,0,0c0,0.1-0.1-0.1-0.2,0c-0.1,0-0.2,0.2,0,0.2c-0.1,0.2-0.1-0.2-0.4,0
				c-0.1-0.1,0-0.2,0-0.3c0.1,0,0.2-0.1,0.1-0.2c-0.1,0.1,0,0.2-0.2,0.2c0-0.2-0.1-0.1-0.3-0.3c0.3,0,0.2-0.3,0.1-0.4
				c0,0-0.1,0.1,0,0.2c-0.1,0-0.1-0.1-0.2-0.2c0.1,0,0.1,0,0.1-0.1c-0.2-0.1-0.4-0.2-0.7-0.3c-0.1,0.1-0.1,0.3,0.1,0.4
				c-0.1,0-0.2,0-0.3,0c0-0.3-0.2,0-0.2-0.2c0.2,0.1,0.2-0.1,0.1-0.3c-0.1,0-0.2,0-0.2,0c0,0.1-0.1,0.1,0,0.2
				c-0.2,0-0.2-0.1-0.2-0.2c-0.1,0-0.2,0-0.3,0c0,0.1,0.1,0.2,0,0.3c0,0.1,0.2,0,0.2,0.1c0,0.1-0.2,0-0.3,0c0-0.1-0.2-0.3,0-0.4l0,0
				c0,0,0,0-0.1,0c0,0,0,0-0.1,0c0,0,0,0.1,0,0.1c0,0-0.1-0.1-0.1-0.1c-1.4,0-2.6,0.8-3.3,1.9c0,0,0.1,0.1,0.2,0c0,0.1,0,0.2,0,0.2
				c-0.2,0-0.2,0.1-0.3,0.1c0,0,0,0,0,0c0,0,0,0.1,0,0.1c0.1,0.2,0.1,0.4,0,0.6c-0.1,0-0.1-0.1-0.2,0c0,0,0,0,0,0
				c0,0.2-0.1,0.3-0.1,0.5c0.1,0,0.1,0,0.2,0c0,0.1,0,0.2-0.1,0.2c0,0,0-0.1-0.1-0.1c0,0.1,0,0.1,0,0.2c0.1,0,0.1,0,0.2,0
				c0,0.1-0.1,0.1-0.2,0.2c0,0.1,0,0.2,0,0.2c0,2.2,1.8,4.1,4.1,4.1c1.9,0,3.5-1.3,4-3.1C212.4,174.3,212.5,174.2,212.5,174.2z
				 M208.7,175.6C208.7,175.6,208.7,175.6,208.7,175.6c0.1,0.1,0.2,0,0.3,0.2c-0.1,0-0.2,0.1-0.2,0.1
				C208.6,175.7,208.7,175.7,208.7,175.6z M208.6,170.3c0.1,0,0.2,0,0.2,0c-0.1,0.1-0.1,0.1-0.2,0.2
				C208.5,170.4,208.6,170.4,208.6,170.3z M208.3,173.4c-0.2,0-0.1-0.1-0.1-0.2c0,0,0.1,0,0.1-0.1
				C208.4,173.3,208.3,173.3,208.3,173.4z M208.3,170.2c-0.2,0,0.1-0.4-0.2-0.3C208.3,169.6,208.4,170,208.3,170.2z M208.3,173.8
				c-0.1,0-0.1,0-0.2,0c0-0.1-0.1-0.1-0.1-0.2c-0.1,0.1,0,0.1-0.2,0.1c0.1-0.2,0.2-0.1,0.4-0.3C208.3,173.6,208.1,173.7,208.3,173.8
				z M208.1,173.3c-0.1,0.1-0.2-0.1-0.3-0.1c-0.1,0,0.1,0.1,0.1,0.1c0,0,0,0,0,0.1c0,0,0,0,0,0.1c-0.2-0.2-0.2-0.3-0.4-0.3
				c0,0,0.1,0,0.1-0.1C207.9,173.3,207.9,172.9,208.1,173.3z M208,172.8c0,0.1-0.2-0.1-0.3,0.1c0-0.1,0-0.1-0.1-0.2
				C207.8,172.8,207.9,172.8,208,172.8z M207.2,172c0,0,0.1,0,0.1-0.1c0.1,0.2,0.2,0.1,0.3,0.4c-0.1,0.1-0.2,0.1-0.1,0.3
				c-0.1,0-0.1-0.2,0-0.3c-0.1-0.1-0.1,0.1-0.2,0.1c-0.1-0.1,0.1-0.1,0-0.2c0,0-0.1,0-0.2,0C207.2,172.1,207.2,172.1,207.2,172z
				 M207.1,173c-0.1-0.2-0.1-0.1-0.2,0c0-0.2,0.2-0.3,0.2-0.5c0.1,0,0.2,0,0.2,0.2C207.1,172.6,207.4,172.9,207.1,173z M207.2,173.5
				c0,0.1,0.1,0.1,0.1,0.2c0,0-0.1,0-0.1,0C207.2,173.6,207.1,173.5,207.2,173.5z M207.3,173.2c-0.1,0,0-0.1-0.1-0.2
				c0.1,0,0.1,0,0.2-0.1C207.3,173,207.4,173.1,207.3,173.2z M207.1,169.7c0,0,0,0.2,0.1,0.2c0,0.1-0.1-0.1-0.2,0
				C206.9,169.8,207,169.7,207.1,169.7z M207,172.2c0.2-0.1,0-0.2,0-0.2c0.1,0,0.1,0.1,0.1,0.2c-0.1,0.1-0.3,0.2-0.5,0.3
				c0.1-0.2,0-0.4,0.1-0.7C206.9,171.8,206.8,172.2,207,172.2z M206.7,173.6c0,0.1,0,0.1,0,0.2c-0.1,0.1-0.1,0-0.2,0
				c0-0.1,0,0,0.1,0C206.6,173.7,206.5,173.6,206.7,173.6z M206.6,175.8c0.2-0.1,0.1,0.2,0.2,0.3
				C206.5,176.1,206.6,175.9,206.6,175.8z M206.6,175.4c-0.1-0.1,0.1-0.1,0-0.2c0,0,0.1,0,0.1,0c0,0.1,0,0.2,0,0.2
				C206.7,175.5,206.7,175.4,206.6,175.4z M206.7,170.8c-0.2,0,0,0.2-0.2,0.2c0-0.1,0-0.2,0-0.3
				C206.6,170.7,206.7,170.7,206.7,170.8z M206.4,170.2c0.1,0-0.1,0.2,0.1,0.2c-0.1,0.2-0.4-0.1-0.5-0.2
				C206.2,170.1,206.4,170.3,206.4,170.2z M206.2,176.3c-0.3-0.1,0.1-0.5,0.2-0.2c-0.1,0-0.1,0-0.2,0
				C206.2,176.1,206.3,176.3,206.2,176.3z M206,175.7c-0.2,0,0-0.2,0.1-0.2c0,0,0,0.1,0.1,0.1C206.3,175.8,206,175.5,206,175.7z
				 M206.4,175.9c-0.1,0.1-0.1-0.2-0.2-0.1C206.1,175.7,206.3,175.8,206.4,175.9z M206.1,174.2c0-0.1,0-0.1-0.1-0.2
				c0.1,0.1,0.2-0.1,0.2,0.1C206.2,174.2,206.2,174.2,206.1,174.2z M206.2,174.7c0,0.1-0.1,0.1-0.1,0.1c-0.1-0.1,0-0.1,0-0.3
				C206.1,174.6,206.2,174.7,206.2,174.7z M206.1,171.4c0.1,0,0.2,0.2,0,0.2C206,171.5,206.1,171.4,206.1,171.4z M206.3,172.5
				c0,0.1,0,0.2,0,0.2C206.1,172.8,206.1,172.5,206.3,172.5z M206.2,170.5C206.2,170.5,206.2,170.6,206.2,170.5
				C206.1,170.6,206.1,170.5,206.2,170.5C206.3,170.5,206.3,170.5,206.2,170.5C206.3,170.5,206.3,170.5,206.2,170.5z M206,170.3
				c0.1,0,0.2,0.3,0,0.3C205.8,170.5,206,170.5,206,170.3z M206,173.8c0,0.2,0,0.3-0.1,0.4C205.8,174,205.9,173.9,206,173.8z
				 M205.9,173.6c0,0.1,0,0.1,0,0.2c-0.1,0.1-0.2,0.1-0.2,0C205.8,173.6,205.8,173.6,205.9,173.6z M205.4,172.8c0,0.1,0.1,0,0.2,0.2
				c-0.1,0,0,0.1-0.1,0.1c0,0.1,0.1,0.1,0.2,0c0,0.2-0.2,0.3,0.1,0.3c0,0.1-0.2,0.1-0.1,0.2c0,0-0.3-0.1-0.2,0
				c-0.1,0-0.1-0.1-0.1-0.1c0.2-0.1,0.2-0.3,0.1-0.5c0.1-0.1,0.1,0,0.2,0c0-0.2-0.2,0-0.2-0.1c0,0,0,0.1,0,0.2
				c-0.1-0.1-0.2-0.1-0.2-0.2c0.1,0,0.1-0.1,0.1-0.2c0.1,0,0.1,0,0.2-0.1C205.4,172.7,205.5,172.7,205.4,172.8
				C205.6,172.8,205.5,172.8,205.4,172.8z M205.1,171.7c0.1,0.1,0.4,0.5,0.2,0.7c0.1,0.1,0.1-0.1,0.2-0.1c0.1,0.1,0,0.1,0,0.2
				C205.1,172.6,205,172.1,205.1,171.7z M205.1,174.8c-0.1-0.1,0.1-0.1,0.1-0.2c-0.1,0.1-0.2,0,0-0.2c0.1,0,0.1,0.1,0.1,0.2
				C205.2,174.6,205.2,174.7,205.1,174.8z M205.4,174.4c0-0.1-0.1-0.1-0.1-0.2c-0.1,0-0.1,0.1-0.1,0.2c-0.1,0-0.1,0-0.2-0.1
				c0.2-0.1,0-0.2,0.1-0.3c0-0.1-0.1,0.2-0.2-0.1c0.1,0,0.1,0,0.2-0.1c0,0.1,0.1,0.2,0,0.3c0,0,0.1,0,0.1,0.1c0.1-0.1,0-0.2,0-0.3
				c0.2,0,0.1,0.5,0.2,0.3c0.1,0,0,0.1,0.1,0.1C205.4,174.1,205.6,174.3,205.4,174.4z M205.8,174.4c0,0.1,0,0.3-0.2,0.4
				c0,0.1,0.1,0,0.1,0.1c0.2,0-0.2,0.1-0.2,0c0,0-0.1,0.1-0.1,0.2C205.4,174.8,205.7,174.7,205.8,174.4z M205.6,175.3
				c0.1-0.2,0.3-0.3,0.5-0.2c0,0,0-0.1,0-0.1c0.1,0,0.1,0.2,0.3,0.1C206.3,175.4,205.8,175.1,205.6,175.3z M206,176.4
				c-0.1,0-0.1-0.1-0.2-0.1L206,176.4c0.1,0.1,0.2,0.1,0.3-0.1c0,0.3,0.6,0.4,0.5,0.7L206,176.4z M206.9,176.2
				c-0.1,0-0.1-0.3-0.1-0.4c0.2,0,0,0.3,0.2,0.2c0,0,0,0.1,0,0.1C206.9,176.1,206.9,176.1,206.9,176.2z M207,176.4
				c-0.1-0.1,0-0.1,0-0.2c0.1-0.1,0.1,0.1,0.2,0C207.2,176.4,207.2,176.4,207,176.4z M207.3,175.3c-0.1-0.2-0.1,0-0.2,0
				c0-0.1,0-0.2,0-0.3c0.1,0.2,0.2,0.2,0.4,0C207.6,175.3,207.3,175.1,207.3,175.3z M207.7,174.8c0.2-0.1,0-0.1,0-0.2
				c0,0,0.1,0,0.1-0.1c0,0.2,0.1,0.1,0.2,0.2C207.9,174.8,207.8,174.9,207.7,174.8z M208,175.1c0-0.1,0.2-0.2,0.3-0.3
				C208.2,174.9,208.2,175,208,175.1z M208.2,175.3C208.2,175.2,208.2,175.3,208.2,175.3c0,0.1,0.1,0.1,0.1,0.2c-0.1,0-0.1,0-0.2,0
				C208.1,175.4,208.2,175.4,208.2,175.3z M208.2,175.8c-0.1-0.1-0.1-0.2,0-0.2c0.1-0.1,0.1,0.2,0.2,0.1
				C208.3,175.7,208.3,175.7,208.2,175.8z M208.2,174.2c-0.1,0,0.1,0.1,0,0.1c-0.1,0.1,0-0.1-0.1-0.1c0-0.1,0.1-0.1,0.2-0.1
				c-0.1,0-0.5-0.1-0.2-0.2c0,0-0.1,0.1,0,0.1c0.1,0.1,0.1-0.1,0.2-0.2c-0.1,0.2,0.1,0.4,0.3,0.5
				C208.3,174.4,208.3,174.2,208.2,174.2z M208.4,174.1c0-0.2,0.2-0.3,0-0.4C208.7,173.7,208.6,174.1,208.4,174.1z M208.7,174.2
				c0.1,0.1,0.1,0.2,0.1,0.3C208.6,174.6,208.6,174.3,208.7,174.2z M208.7,176.3c-0.1-0.1,0-0.1,0-0.2c0,0,0.1,0,0.1,0.1
				c0,0,0-0.1,0-0.2c0.2,0,0,0.1,0.2,0.2C208.8,176.2,208.8,176.2,208.7,176.3z M209,176.1c-0.1,0-0.1-0.1-0.1-0.2
				c0,0,0.1,0,0.1-0.1C209.1,175.8,208.9,176,209,176.1z M208.9,175c0.1-0.1,0.2,0,0.3,0C209.3,175.2,209,175.1,208.9,175z
				 M209.1,174.6c-0.1,0-0.1-0.1-0.2-0.2c0.1,0,0.1-0.1,0.1-0.1c0,0.1,0.1,0.1,0.1,0.1C209.1,174.5,209.1,174.5,209.1,174.6z
				 M209.2,171.2c-0.1,0-0.1,0-0.2,0c0-0.1,0.3-0.1,0.1-0.2c0.1,0,0.1-0.1,0.1-0.1C209.2,171,209.1,171.1,209.2,171.2
				C209.2,171.3,209.2,171.3,209.2,171.2z M212.1,173.5c0.1,0,0.1,0.1,0.1,0.2c-0.1,0-0.1,0-0.2,0.1
				C212,173.6,212.1,173.6,212.1,173.5z M211.8,174.2c0,0,0,0.1,0,0.2c-0.1,0-0.1-0.2-0.2-0.1C211.6,174.1,211.7,174.3,211.8,174.2z
				 M211.7,173.5c0.1,0.1-0.1,0.1-0.1,0.2c-0.1,0-0.1-0.1-0.1-0.1C211.6,173.6,211.6,173.6,211.7,173.5z M211.1,172.7
				c0-0.1,0.1,0,0.1-0.1c0.1,0.1,0,0.2-0.1,0.3C211.1,172.8,211,172.9,211.1,172.7C211.2,172.8,211.2,172.8,211.1,172.7z
				 M211.1,173.9c0.1,0,0.1,0.1,0.1,0.1c0.1-0.1,0-0.1-0.1-0.3c0.1,0,0.2,0.1,0.3,0c0,0.2,0.1,0.3,0.1,0.5c0-0.2-0.1-0.2-0.1-0.4
				c-0.1,0.1-0.1,0.1-0.3,0.1C211,174,211.1,174,211.1,173.9z M211.5,173c0,0.1-0.3,0-0.2-0.1C211.4,172.8,211.4,173,211.5,173z
				 M211.4,172.5c-0.1-0.1-0.5,0-0.4-0.2c0.1,0,0.1,0.1,0.1,0.1c0.1,0,0-0.1,0.2-0.2C211.4,172.3,211.4,172.4,211.4,172.5z
				 M211.3,171.6c0.2,0.2-0.1,0.1-0.3,0.1C211,171.5,211.3,171.8,211.3,171.6z M211.1,171c0,0.1,0,0.1,0,0.1c-0.1,0-0.2,0-0.2-0.1
				C210.9,171,211,171.1,211.1,171z M210,170c0,0.1,0.1,0.3,0.2,0.3c0,0.1,0,0.1,0,0.2c0.1,0.1,0.2-0.1,0.2,0.1c-0.1,0-0.2,0-0.3,0
				c0-0.2,0-0.2-0.1-0.3C209.9,170.2,209.9,170,210,170z M210,170.8c0.1,0.1-0.2,0.1-0.1,0.2c-0.1,0-0.1,0-0.1-0.1
				C209.9,170.8,209.9,170.7,210,170.8z M209.7,171.2c0.1,0.1-0.1,0.2-0.1,0.3c-0.1-0.1-0.1-0.2-0.2-0.4
				C209.6,171.1,209.6,171.3,209.7,171.2z M209.6,175.1c0.1-0.1,0.3-0.1,0.4,0.1C209.8,175.3,209.7,175.2,209.6,175.1z M209.6,172.4
				c0,0.1-0.1,0.1,0,0.2c-0.2,0,0-0.3,0.1-0.5C209.8,172.3,209.7,172.4,209.6,172.4c0.2,0,0.3,0,0.4,0
				C210,172.5,209.7,172.7,209.6,172.4z M210.1,170.9c-0.1-0.1,0.1-0.1,0-0.2c0,0,0.1,0,0.1,0c0.2,0,0.1,0.2,0.3,0.2
				c0,0.1-0.2,0.2,0,0.2c0,0,0,0,0,0.1c0,0-0.1,0-0.1,0c0-0.1-0.1-0.2-0.1-0.3C210.2,170.8,210.2,170.9,210.1,170.9z M210.2,173.9
				c0,0,0.1,0,0.1-0.1c0,0,0,0.2,0.1,0.2C210.4,174.1,210.2,174,210.2,173.9z M210.8,172c-0.1,0-0.1,0.1-0.1,0.1
				C210.7,172.1,210.6,172,210.8,172c-0.1-0.1-0.2,0-0.3-0.1c-0.1-0.1,0-0.2-0.1-0.3c0.1,0,0.1-0.1,0.1-0.1
				c-0.1-0.1-0.2-0.2-0.3-0.3c0.1,0,0.2,0.2,0.2,0.1c0.1,0,0.1,0.1,0.2,0.2c0.1,0,0.1-0.1,0.1-0.2c0-0.1,0.2,0.3,0.2,0
				c0.2,0,0,0.2,0,0.2c-0.2-0.1-0.5,0.4-0.1,0.4c0-0.1-0.1-0.1-0.1-0.1c0.1-0.1,0.1-0.2,0.3-0.2c0,0.2,0,0.1,0.1,0.2
				c-0.3,0.1,0.2,0.2-0.1,0.3C210.8,172.1,210.9,172.1,210.8,172z M211,175.4c0.1-0.1-0.1,0.3,0.1,0.4
				C210.9,175.8,210.9,175.5,211,175.4z M211.5,175.2c0.2-0.1,0,0.2,0,0.2C211.4,175.4,211.6,175.3,211.5,175.2z M211.5,175.5
				c0.1-0.1,0.2-0.1,0.2,0C211.7,175.6,211.6,175.6,211.5,175.5z M211.5,174.9c0.1-0.1-0.2-0.3,0-0.4c-0.1,0-0.2,0.2-0.2,0.4
				c-0.1-0.1-0.2-0.2-0.4-0.3c0.2-0.1,0.3,0.2,0.5-0.1c0-0.1-0.1-0.1-0.1-0.1c0.1-0.2,0.2,0.2,0.4,0.1c-0.2,0.2,0.1,0.3,0.2,0.6
				C211.7,175.1,211.7,174.8,211.5,174.9z M211.7,174.4c0.1,0,0.1,0.1,0.2,0.1C211.8,174.7,211.6,174.5,211.7,174.4z M212,175
				c-0.2,0.1-0.1-0.2-0.2-0.2C211.9,174.7,212.2,174.8,212,175z M212.2,174.8c0-0.1,0.1-0.2-0.1-0.1c-0.1-0.1-0.1-0.2,0-0.2
				c0.2,0.1,0.1,0,0.2-0.1C212.2,174.5,212.4,174.8,212.2,174.8z"/>
		</g>
		<g>
			<path d="M275.1,170.6c0.1-0.1,0.1-0.1,0.1-0.1c-0.1-0.1-0.3-0.2-0.4-0.3c0,0,0,0,0,0C274.8,170.4,275,170.4,275.1,170.6z"/>
			<path d="M268.5,172.2C268.6,172.2,268.6,172.2,268.5,172.2C268.5,172.1,268.5,172.2,268.5,172.2
				C268.5,172.2,268.5,172.2,268.5,172.2z"/>
			<path d="M276.3,172.6c0,0,0-0.1,0-0.1c0,0-0.1,0-0.1,0C276.2,172.5,276.2,172.5,276.3,172.6C276.3,172.6,276.3,172.6,276.3,172.6
				z"/>
			<path d="M268.7,172C268.7,172,268.6,172,268.7,172c-0.1,0-0.1,0-0.1,0C268.6,172,268.7,172,268.7,172z"/>
			<path d="M275.6,171.6c0-0.1-0.1-0.1-0.1-0.2c0,0-0.1,0-0.1,0.1c0.2,0.1-0.2,0.3,0.1,0.3C275.4,171.6,275.6,171.7,275.6,171.6z"/>
			<path d="M276.1,172.2c0,0,0.1,0,0.1-0.1c-0.1-0.2-0.1-0.3-0.2-0.5c-0.1,0-0.2,0-0.3-0.1c0.1,0.1,0,0.2,0,0.2c0.1,0,0.2-0.1,0.2,0
				c0,0.1,0,0.1,0,0.3C276.1,171.9,275.9,172.1,276.1,172.2c0-0.1-0.1-0.2,0-0.2C276.2,172,276,172,276.1,172.2z M275.9,171.9
				c0-0.1,0-0.1,0-0.2C276.1,171.7,276.1,171.9,275.9,171.9z"/>
			<path d="M275.8,172.6c0.1,0.1,0.1,0.2,0.1,0.2c0-0.1,0,0,0.1,0C275.9,172.6,275.9,172.5,275.8,172.6z"/>
			<path d="M276.4,173.5C276.4,173.5,276.4,173.5,276.4,173.5C276.4,173.5,276.4,173.5,276.4,173.5z"/>
			<path d="M276.3,174.2C276.3,174.2,276.4,174.2,276.3,174.2c0.1-0.1,0.1-0.1,0.1-0.2c-0.1,0-0.2,0-0.2-0.1c0.1,0,0.2,0,0.2,0
				c0-0.1,0-0.2,0-0.3c-0.1,0-0.1-0.1-0.2,0c-0.1,0.1,0.1,0.1,0,0.2c-0.1,0-0.1-0.3-0.2-0.3c0.1,0,0.1-0.2,0-0.2
				c0.1,0.1-0.1,0.1-0.2,0.2c-0.1,0,0-0.1,0-0.2c0.1,0,0.2,0.1,0.1-0.1c-0.1,0-0.1,0.1-0.1-0.1c0-0.1,0.3-0.1,0.2-0.2
				c0,0-0.1,0-0.1,0c-0.1,0-0.2-0.1-0.2,0c-0.1,0-0.2-0.2-0.3-0.1c0-0.1,0-0.3-0.1-0.2c0.1-0.2,0-0.3-0.1-0.4c0.3-0.1,0-0.4,0.1-0.7
				c-0.2,0,0,0.1-0.2,0.2c0-0.1-0.1-0.3-0.3-0.2c0-0.1,0-0.1-0.1-0.2c0.2,0,0.2-0.4,0.2-0.1c0.2-0.1-0.1-0.2,0.1-0.2
				c0,0.1,0.1,0.1,0.2,0.3c-0.1,0-0.1,0-0.1,0.1c0.2-0.1,0.1-0.3,0.2-0.3c-0.1,0.1,0,0.1,0.2,0c-0.1,0-0.2-0.2-0.3-0.2
				c0-0.1,0.1-0.1,0.2,0c0.1-0.1-0.1-0.1-0.1-0.2c0,0,0,0,0,0c0,0.1-0.1-0.1-0.2,0c-0.1,0-0.2,0.2,0,0.2c-0.1,0.2-0.1-0.2-0.4,0
				c-0.1-0.1,0-0.2,0-0.3c0.1,0,0.2-0.1,0.1-0.2c-0.1,0.1,0,0.2-0.2,0.2c0-0.2-0.1-0.1-0.3-0.3c0.3,0,0.2-0.3,0.1-0.4
				c0,0-0.1,0.1,0,0.2c-0.1,0-0.1-0.1-0.2-0.2c0.1,0,0.1,0,0.1-0.1c-0.2-0.1-0.5-0.2-0.7-0.3c-0.1,0.1-0.1,0.3,0.1,0.4
				c-0.1,0-0.2,0-0.3,0c0-0.3-0.2,0-0.2-0.2c0.2,0.1,0.2-0.1,0.1-0.3c-0.1,0-0.2,0-0.2,0c0,0.1-0.1,0.1,0,0.2
				c-0.2,0-0.2-0.1-0.2-0.2c-0.1,0-0.2,0-0.3,0c0,0.1,0,0.2,0,0.3c0,0.1,0.2,0,0.2,0.1c0,0.1-0.2,0-0.3,0c-0.1-0.1-0.2-0.3,0-0.4
				l0,0c0,0,0,0-0.1,0c0,0,0,0-0.1,0c0,0,0,0.1,0,0.1c0,0-0.1-0.1-0.1-0.1c-1.4,0-2.6,0.8-3.3,1.9c0,0,0.1,0.1,0.2,0
				c0,0.1,0,0.2,0,0.2c-0.2,0-0.2,0.1-0.3,0.1c0,0,0,0,0,0c0,0,0,0.1,0,0.1c0.1,0.2,0.1,0.4,0,0.6c-0.1,0-0.1-0.1-0.2,0c0,0,0,0,0,0
				c-0.1,0.2-0.1,0.3-0.1,0.5c0.1,0,0.1,0,0.2,0c-0.1,0.1,0,0.2-0.1,0.2c0,0,0-0.1-0.1-0.1c0,0.1,0,0.1,0,0.2c0.1,0,0.1,0,0.2,0
				c0,0.1-0.1,0.1-0.2,0.2c0,0.1,0,0.2,0,0.2c0,2.2,1.8,4.1,4.1,4.1c1.9,0,3.5-1.3,4-3.1C276.3,174.3,276.3,174.2,276.3,174.2z
				 M272.5,175.6C272.5,175.6,272.5,175.6,272.5,175.6c0.1,0.1,0.2,0,0.3,0.2c-0.1,0-0.2,0.1-0.2,0.1
				C272.4,175.7,272.6,175.7,272.5,175.6z M272.4,170.3c0.1,0,0.2,0,0.2,0c-0.1,0.1-0.1,0.1-0.2,0.2
				C272.3,170.4,272.5,170.4,272.4,170.3z M272.1,173.4c-0.2,0-0.1-0.1-0.1-0.2c0,0,0.1,0,0.1-0.1
				C272.2,173.3,272.1,173.3,272.1,173.4z M272.1,170.2c-0.2,0,0.1-0.4-0.2-0.3C272.1,169.6,272.2,170,272.1,170.2z M272.1,173.8
				c-0.1,0-0.1,0-0.2,0c0-0.1-0.1-0.1-0.1-0.2c-0.1,0.1,0,0.1-0.2,0.1c0.1-0.2,0.2-0.1,0.4-0.3C272.1,173.6,272,173.7,272.1,173.8z
				 M272,173.3c-0.1,0.1-0.2-0.1-0.3-0.1c-0.1,0,0.1,0.1,0.1,0.1c0,0,0,0,0,0.1c0,0,0,0,0,0.1c-0.2-0.2-0.2-0.3-0.4-0.3
				c0.1,0,0.1,0,0.1-0.1C271.7,173.3,271.7,172.9,272,173.3z M271.8,172.8c0,0.1-0.2-0.1-0.3,0.1c0-0.1,0-0.1-0.1-0.2
				C271.6,172.8,271.7,172.8,271.8,172.8z M271,172c0,0,0.1,0,0.1-0.1c0.1,0.2,0.2,0.1,0.3,0.4c-0.1,0.1-0.2,0.1-0.1,0.3
				c-0.1,0-0.1-0.2,0-0.3c-0.1-0.1-0.1,0.1-0.2,0.1c-0.1-0.1,0.1-0.1,0-0.2c0,0-0.1,0-0.1,0C271.1,172.1,271,172.1,271,172z
				 M271,173c-0.1-0.2-0.1-0.1-0.2,0c0-0.2,0.2-0.3,0.2-0.5c0.1,0,0.2,0,0.2,0.2C270.9,172.6,271.2,172.9,271,173z M271.1,173.5
				c0,0.1,0.1,0.1,0.1,0.2c0,0-0.1,0-0.1,0C271,173.6,270.9,173.5,271.1,173.5z M271.1,173.2c-0.1,0,0-0.1-0.1-0.2
				c0.1,0,0.1,0,0.2-0.1C271.1,173,271.2,173.1,271.1,173.2z M270.9,169.7c0,0,0,0.2,0.1,0.2c0,0.1-0.1-0.1-0.2,0
				C270.8,169.8,270.8,169.7,270.9,169.7z M270.8,172.2c0.2-0.1,0-0.2,0-0.2c0.1,0,0.1,0.1,0.1,0.2c-0.1,0.1-0.3,0.2-0.5,0.3
				c0.1-0.2,0-0.4,0.1-0.7C270.7,171.8,270.6,172.2,270.8,172.2z M270.5,173.6c0,0.1,0,0.1,0,0.2c-0.1,0.1-0.1,0-0.2,0
				c0-0.1,0,0,0.1,0C270.4,173.7,270.3,173.6,270.5,173.6z M270.4,175.8c0.2-0.1,0.1,0.2,0.2,0.3
				C270.3,176.1,270.4,175.9,270.4,175.8z M270.5,175.4c-0.1-0.1,0.1-0.1,0-0.2c0,0,0.1,0,0.1,0c0,0.1,0,0.2,0,0.2
				C270.6,175.5,270.5,175.4,270.5,175.4z M270.6,170.8c-0.2,0,0,0.2-0.2,0.2c0-0.1,0-0.2,0-0.3
				C270.4,170.7,270.5,170.7,270.6,170.8z M270.2,170.2c0.1,0-0.1,0.2,0.1,0.2c-0.1,0.2-0.4-0.1-0.5-0.2
				C270,170.1,270.2,170.3,270.2,170.2z M270,176.3c-0.3-0.1,0.1-0.5,0.2-0.2c-0.1,0-0.1,0-0.2,0C270,176.1,270.1,176.3,270,176.3z
				 M269.8,175.7c-0.2,0,0-0.2,0.1-0.2c0,0,0,0.1,0.1,0.1C270.1,175.8,269.8,175.5,269.8,175.7z M270.2,175.9
				c-0.1,0.1-0.1-0.2-0.2-0.1C270,175.7,270.2,175.8,270.2,175.9z M269.9,174.2c0-0.1,0-0.1-0.1-0.2c0.1,0.1,0.2-0.1,0.2,0.1
				C270,174.2,270,174.2,269.9,174.2z M270,174.7c0,0.1-0.1,0.1-0.1,0.1c-0.1-0.1,0-0.1,0-0.3C269.9,174.6,270,174.7,270,174.7z
				 M269.9,171.4c0.1,0,0.2,0.2,0,0.2C269.8,171.5,269.9,171.4,269.9,171.4z M270.1,172.5c0,0.1,0,0.2,0,0.2
				C269.9,172.8,269.9,172.5,270.1,172.5z M270.1,170.5C270,170.5,270,170.6,270.1,170.5C269.9,170.6,269.9,170.5,270.1,170.5
				C270.1,170.5,270.1,170.5,270.1,170.5C270.1,170.5,270.1,170.5,270.1,170.5z M269.8,170.3c0.1,0,0.2,0.3,0,0.3
				C269.7,170.5,269.9,170.5,269.8,170.3z M269.8,173.8c0,0.2,0,0.3-0.1,0.4C269.6,174,269.7,173.9,269.8,173.8z M269.7,173.6
				c0,0.1,0,0.1,0,0.2c-0.1,0.1-0.2,0.1-0.2,0C269.6,173.6,269.6,173.6,269.7,173.6z M269.2,172.8c0,0.1,0.1,0,0.2,0.2
				c-0.1,0,0,0.1-0.1,0.1c0,0.1,0.1,0.1,0.2,0c0,0.2-0.2,0.3,0.1,0.3c0,0.1-0.2,0.1-0.1,0.2c0,0-0.3-0.1-0.2,0
				c-0.1,0-0.1-0.1-0.1-0.1c0.2-0.1,0.1-0.3,0.1-0.5c0.1-0.1,0.1,0,0.2,0c0-0.2-0.2,0-0.2-0.1c0,0,0,0.1,0,0.2
				c-0.1-0.1-0.2-0.1-0.2-0.2c0.1,0,0.1-0.1,0.1-0.2c0.1,0,0.1,0,0.2-0.1C269.2,172.7,269.3,172.7,269.2,172.8
				C269.4,172.8,269.3,172.8,269.2,172.8z M268.9,171.7c0.1,0.1,0.4,0.5,0.2,0.7c0.1,0.1,0.1-0.1,0.2-0.1c0.1,0.1,0,0.1,0,0.2
				C268.9,172.6,268.8,172.1,268.9,171.7z M268.9,174.8c-0.1-0.1,0.1-0.1,0.1-0.2c-0.1,0.1-0.2,0,0-0.2c0.1,0,0.1,0.1,0.1,0.2
				C269,174.6,269,174.7,268.9,174.8z M269.3,174.4c0-0.1-0.1-0.1-0.1-0.2c-0.1,0-0.1,0.1-0.1,0.2c-0.1,0-0.1,0-0.2-0.1
				c0.2-0.1,0-0.2,0.1-0.3c0-0.1-0.1,0.2-0.2-0.1c0.1,0,0.1,0,0.2-0.1c0,0.1,0.1,0.2,0,0.3c0,0,0.1,0,0.1,0.1c0.1-0.1,0-0.2,0-0.3
				c0.2,0,0.1,0.5,0.2,0.3c0.1,0,0,0.1,0,0.1C269.2,174.1,269.4,174.3,269.3,174.4z M269.6,174.4c0,0.1,0,0.3-0.2,0.4
				c0,0.1,0.1,0,0.1,0.1c0.2,0-0.2,0.1-0.2,0c0,0-0.1,0.1-0.1,0.2C269.2,174.8,269.6,174.7,269.6,174.4z M269.4,175.3
				c0.1-0.2,0.3-0.3,0.5-0.2c0,0,0-0.1,0-0.1c0.1,0,0.1,0.2,0.3,0.1C270.1,175.4,269.7,175.1,269.4,175.3z M269.9,176.4
				c-0.1,0-0.1-0.1-0.2-0.1L269.9,176.4c0.1,0.1,0.2,0.1,0.3-0.1c0,0.3,0.6,0.4,0.5,0.7L269.9,176.4z M270.7,176.2
				c-0.1,0-0.1-0.3-0.1-0.4c0.2,0,0,0.3,0.2,0.2c0,0,0,0.1,0,0.1C270.8,176.1,270.7,176.1,270.7,176.2z M270.8,176.4
				c-0.1-0.1,0-0.1,0-0.2c0.1-0.1,0.1,0.1,0.2,0C271,176.4,271,176.4,270.8,176.4z M271.1,175.3c-0.1-0.2-0.1,0-0.2,0
				c0-0.1,0-0.2,0-0.3c0.2,0.2,0.3,0.2,0.4,0C271.4,175.3,271.2,175.1,271.1,175.3z M271.5,174.8c0.2-0.1,0-0.1,0-0.2
				c0,0,0.1,0,0.1-0.1c0,0.2,0.1,0.1,0.2,0.2C271.7,174.8,271.6,174.9,271.5,174.8z M271.9,175.1c0-0.1,0.2-0.2,0.3-0.3
				C272.1,174.9,272.1,175,271.9,175.1z M272,175.3C272.1,175.2,272.1,175.3,272,175.3c0,0.1,0.1,0.1,0.1,0.2c-0.1,0-0.1,0-0.2,0
				C271.9,175.4,272.1,175.4,272,175.3z M272,175.8c-0.1-0.1-0.1-0.2,0-0.2c0.1-0.1,0.1,0.2,0.2,0.1
				C272.2,175.7,272.1,175.7,272,175.8z M272,174.2c-0.1,0,0.1,0.1,0,0.1c-0.1,0.1,0-0.1-0.1-0.1c0-0.1,0.1-0.1,0.2-0.1
				c-0.1,0-0.5-0.1-0.2-0.2c0,0-0.1,0.1,0,0.1c0.1,0.1,0.1-0.1,0.2-0.2c-0.1,0.2,0.1,0.4,0.3,0.5C272.2,174.4,272.1,174.2,272,174.2
				z M272.2,174.1c0-0.2,0.2-0.3,0-0.4C272.5,173.7,272.4,174.1,272.2,174.1z M272.5,174.2c0.1,0.1,0.1,0.2,0.1,0.3
				C272.4,174.6,272.4,174.3,272.5,174.2z M272.5,176.3c-0.1-0.1,0-0.1,0-0.2c0,0,0.1,0,0.1,0.1c0,0,0-0.1,0-0.2
				c0.2,0,0,0.1,0.2,0.2C272.7,176.2,272.6,176.2,272.5,176.3z M272.8,176.1c-0.1,0-0.1-0.1-0.1-0.2c0,0,0.1,0,0.1-0.1
				C272.9,175.8,272.7,176,272.8,176.1z M272.7,175c0.1-0.1,0.2,0,0.3,0C273.1,175.2,272.8,175.1,272.7,175z M273,174.6
				c-0.1,0-0.1-0.1-0.2-0.2c0.1,0,0.1-0.1,0.1-0.1c0,0.1,0.1,0.1,0.1,0.1C273,174.5,272.9,174.5,273,174.6z M273,171.2
				c-0.1,0-0.1,0-0.2,0c0-0.1,0.3-0.1,0.1-0.2c0.1,0,0.1-0.1,0.1-0.1C273,171,272.9,171.1,273,171.2C273,171.3,273,171.3,273,171.2z
				 M275.9,173.5c0.1,0,0.1,0.1,0.1,0.2c-0.1,0-0.1,0-0.2,0.1C275.8,173.6,275.9,173.6,275.9,173.5z M275.6,174.2c0,0,0,0.1,0,0.2
				c-0.1,0-0.1-0.2-0.2-0.1C275.4,174.1,275.6,174.3,275.6,174.2z M275.5,173.5c0.1,0.1-0.1,0.1-0.1,0.2c-0.1,0-0.1-0.1-0.1-0.1
				C275.4,173.6,275.4,173.6,275.5,173.5z M274.9,172.7c0-0.1,0.1,0,0.1-0.1c0.1,0.1,0,0.2-0.1,0.3
				C274.9,172.8,274.8,172.9,274.9,172.7C275,172.8,275.1,172.8,274.9,172.7z M274.9,173.9c0.1,0,0.1,0.1,0.1,0.1
				c0.1-0.1,0-0.1-0.1-0.3c0.2,0,0.2,0.1,0.3,0c0,0.2,0.1,0.3,0.1,0.5c0-0.2-0.1-0.2-0.1-0.4c-0.1,0.1-0.1,0.1-0.3,0.1
				C274.8,174,274.9,174,274.9,173.9z M275.3,173c0,0.1-0.3,0-0.2-0.1C275.2,172.8,275.2,173,275.3,173z M275.3,172.5
				c-0.1-0.1-0.5,0-0.4-0.2c0.1,0,0.1,0.1,0.1,0.1c0.1,0,0-0.1,0.2-0.2C275.2,172.3,275.2,172.4,275.3,172.5z M275.1,171.6
				c0.2,0.2-0.1,0.1-0.3,0.1C274.8,171.5,275.1,171.8,275.1,171.6z M274.9,171c0,0.1,0,0.1,0,0.1c-0.1,0-0.2,0-0.2-0.1
				C274.7,171,274.8,171.1,274.9,171z M273.8,170c0,0.1,0.1,0.3,0.2,0.3c0,0.1,0,0.1,0,0.2c0.1,0.1,0.2-0.1,0.2,0.1
				c-0.1,0-0.2,0-0.3,0c0-0.2,0-0.2-0.1-0.3C273.8,170.2,273.7,170,273.8,170z M273.8,170.8c0.1,0.1-0.2,0.1-0.1,0.2
				c-0.1,0-0.1,0-0.1-0.1C273.7,170.8,273.7,170.7,273.8,170.8z M273.6,171.2c0.1,0.1-0.1,0.2-0.1,0.3c-0.1-0.1-0.1-0.2-0.2-0.4
				C273.4,171.1,273.4,171.3,273.6,171.2z M273.5,175.1c0.1-0.1,0.3-0.1,0.4,0.1C273.7,175.3,273.6,175.2,273.5,175.1z M273.5,172.4
				c0,0.1-0.1,0.1,0,0.2c-0.2,0,0-0.3,0.1-0.5C273.6,172.3,273.5,172.4,273.5,172.4c0.2,0,0.3,0,0.4,0
				C273.8,172.5,273.6,172.7,273.5,172.4z M273.9,170.9c-0.1-0.1,0.1-0.1,0-0.2c0,0,0.1,0,0.1,0c0.2,0,0.1,0.2,0.3,0.2
				c0,0.1-0.2,0.2,0,0.2c0,0,0,0,0,0.1c0,0-0.1,0-0.1,0c0-0.1-0.1-0.2-0.1-0.3C274,170.8,274,170.9,273.9,170.9z M274,173.9
				c0,0,0.1,0,0.1-0.1c0,0,0,0.2,0.1,0.2C274.2,174.1,274,174,274,173.9z M274.7,172c-0.1,0-0.1,0.1-0.1,0.1
				C274.6,172.1,274.4,172,274.7,172c-0.1-0.1-0.2,0-0.3-0.1c-0.1-0.1,0-0.2-0.1-0.3c0.1,0,0.1-0.1,0.1-0.1
				c-0.1-0.1-0.2-0.2-0.3-0.3c0.1,0,0.2,0.2,0.2,0.1c0.1,0,0.1,0.1,0.2,0.2c0.1,0,0.1-0.1,0.1-0.2c0-0.1,0.2,0.3,0.2,0
				c0.2,0,0,0.2,0,0.2c-0.2-0.1-0.5,0.4-0.1,0.4c0-0.1-0.1-0.1-0.1-0.1c0.1-0.1,0.1-0.2,0.3-0.2c0,0.2,0,0.1,0.1,0.2
				c-0.3,0.1,0.2,0.2-0.1,0.3C274.7,172.1,274.7,172.1,274.7,172z M274.8,175.4c0.1-0.1-0.1,0.3,0.1,0.4
				C274.7,175.8,274.7,175.5,274.8,175.4z M275.3,175.2c0.2-0.1,0,0.2,0,0.2C275.2,175.4,275.4,175.3,275.3,175.2z M275.4,175.5
				c0.1-0.1,0.2-0.1,0.2,0C275.5,175.6,275.4,175.6,275.4,175.5z M275.3,174.9c0.1-0.1-0.2-0.3,0-0.4c-0.1,0-0.2,0.2-0.2,0.4
				c-0.1-0.1-0.2-0.2-0.4-0.3c0.2-0.1,0.3,0.2,0.5-0.1c0-0.1-0.1-0.1-0.1-0.1c0.1-0.2,0.2,0.2,0.4,0.1c-0.2,0.2,0.1,0.3,0.2,0.6
				C275.5,175.1,275.5,174.8,275.3,174.9z M275.5,174.4c0.1,0,0.1,0.1,0.2,0.1C275.6,174.7,275.5,174.5,275.5,174.4z M275.9,175
				c-0.2,0.1-0.1-0.2-0.2-0.2C275.7,174.7,276,174.8,275.9,175z M276,174.8c0-0.1,0.1-0.2-0.1-0.1c-0.1-0.1-0.1-0.2,0-0.2
				c0.2,0.1,0.1,0,0.2-0.1C276,174.5,276.2,174.8,276,174.8z"/>
		</g>
	</g>
	<text transform="matrix(1 0 0 1 233.6016 182.8296)" fill="#FFFFFF" font-family="'ROADMOVIE'" font-size="34.0695">T</text>
</g>
</svg>
