<?xml version="1.0" encoding="utf-8"?>
<!-- Generator: Adobe Illustrator 18.1.1, SVG Export Plug-In . SVG Version: 6.00 Build 0)  -->
<svg version="1.1" id="Layer_1" xmlns="http://www.w3.org/2000/svg" xmlns:xlink="http://www.w3.org/1999/xlink" x="0px" y="0px"
	 viewBox="0 0 360 42.4" enable-background="new 0 0 360 42.4" xml:space="preserve">
<path d="M169.3,15.6l0.2,0.4l-0.1,0.2l0.2,0.1l-0.1,0.4v1.5l-0.1,0.6l0.1,0.2v0.4l-0.1,0.4l0.1,0.2l-0.1,0.8l0.1,0.2l-0.1,0.7
	l0.1,0.2l-0.1,0.3l0.1,0.8l-0.1,0.3l0.2,0.4l-0.1,0.4l0.1,0.8l0,0.4l-0.1,0.2l0.1,0.2v0.9l-0.1,0.2l0.1,0.2l-0.1,0.6l0.1,0.1l0,0.4
	l-0.1,0.2l0.1,0.1l0,0.7l0.1,0.4l-0.1,0.2l0.2,0.2l-0.1,0.2V30l-0.1,0.2l0.1,0.2l0,0.6l-0.1,0.2l0.3,0.6l-0.2,0.4l0.1,0.3l0.1,0.6
	l0.1,0.1l-0.2,0.6l0,0.2l-0.1,0.2l0.1,0.3l-0.1,0.2l0.1,0.9l-0.1,0.2l-0.1,0l0.1,0.4l0.1,0.8l-0.1,0.1l0.1,0.3l-0.1,0.4l0.1,0.6
	l0.2,0.1l0.3,0.1l0.6-0.2l0.2-0.2l0.2,0l0.5-0.3l0.2,0l1.6-0.8l0.4-0.1l0.3-0.3l0.4,0l0.3-0.2l0.2,0.1v-0.2l0.5-0.2l0.1-0.1l0.2,0
	l0.2-0.2l0.1,0l0.4-0.3l0.5-0.1l0.5-0.3l0.1-0.2l0.2,0l1.8-0.9l0.2,0l0.4-0.3l0.2,0l0.4-0.1l0.2,0.1l-0.1,0.2h0.4l0.2-0.1l0.3,0.2
	l0.6,0.2L182,35l0.2,0l0.1,0.2l0.2,0l0.5,0.3h0.3l0.3,0.2l0.3,0.3l0.3-0.1l0.3,0.2l0.5,0.2l0.3,0.2l1,0.3l0.1,0.1l0.3,0.1l0.5,0.3
	l0.2,0l0.2,0.2h0.2l0.7,0.3l0.2,0l0.1,0.1l0.2,0.1h0.2l0.1,0.2l0.4,0l0.1,0.2l0.8,0.3l0.2-0.1l0.2-0.4l0-0.2l-0.1-0.2l0.1-0.2
	l-0.1-0.8l0.1-0.7l0-0.9l0.1-0.2l-0.1-0.4l0.1-0.6l-0.1-0.2l0.1-0.2l0-0.4l0.1-0.4l-0.1-0.3l0-1.2l0.1-0.2l-0.1-0.7l0.1-0.2
	l-0.1-0.2l0.1-0.3l-0.1-0.2v-1.2l0.1-0.8l-0.1-0.3l0.1-0.2l-0.1-0.4l0.1-0.2v-0.2l-0.1-0.2l0.1-0.2l-0.1-0.2l0.1-0.4l0-0.7l0.1-0.1
	v-0.3l-0.1-0.2l0.1-0.3l0-0.5l-0.1-0.1v-0.4l0.1-0.7l-0.1-0.2l0.1-0.1l-0.1-0.1l0-0.4l0.1-0.2l-0.1-0.3V20l0.1-0.6l-0.1-0.3l0-0.5
	h0.1l-0.2-0.2l0.1-0.2l0-0.3l-0.1-0.3l0.1-0.8l-0.1-1.2l-0.1-0.2l0.1-0.2l-0.1-0.8l0.2-0.4l-0.1-0.6l0.1-0.4l-0.2-0.4l0.2-0.2
	l-0.1-0.8l0.1-0.2l-0.1-0.3l0.1-0.5l-0.1-0.5l0-0.4l-0.1-0.3l0.2-0.3l-0.1-1.3l0.1-0.8L190.8,6l0.1-0.8l-0.1-0.1l0.1-0.7l0-0.4
	l0.1-0.2l-0.1-0.3l0.1-0.2l-0.1-0.2l0-0.3l-0.1-0.2l0.2-0.4V2.2l0.3-0.2l0.4,0l0.5,0.1l0.1,0.2l0,0.6l0.1,0.2l-0.1,0.2l0.1,0.3v1.7
	l0.1,0.2l-0.2,0.2l0.1,0.3l0,0.8l-0.1,0.2l0,0.4l0.1,0.2l0,0.2l0.1,0.4l0,0.4l-0.1,0.1l0.1,0.5l0.1,0.2l-0.1,0.2v0.6l0.1,0.1
	l-0.1,0.2l0,1.1l-0.1,0.2l0.1,1.3l-0.1,0.3l0.1,0.4l-0.2,0.3l0.1,0.4l0.1,1.1l-0.2,0.5l0.2,0.2v0.7l-0.1,0.2l0.1,0.7l-0.1,0.5
	l0.1,1.2l-0.2,0.2l0.1,0.4l0,1.2l0.1,0.4l-0.1,0.6l0.1,0.2l-0.1,0.4l0.1,0.1v0.4l-0.1,0.1l0.1,0.2l0,0.5l0.1,0.2l-0.2,0.3l0.1,0.1
	v0.2l-0.1,0.1h0.2v0.2l-0.3,0.3l0.2-0.1v0.8l0.1,0.3l-0.1,0.2l0.1,0.2l-0.1,0.3l0,0.2l-0.1,0.1l0.1,0.9l-0.1,0.3l0.1,0.2l0,0.4
	l0.1,0.2l-0.1,0.1l0.1,0.1l-0.2,0.6l0.1,0.1l-0.1,0.4l0.1,0.2v0.2l-0.1,0.2l0.1,0.8l0,0.6l0.1,0.3l-0.1,0.8l0.1,0.6l-0.1,0.3
	l0.1,0.7l0,0.2l-0.1,0.2l0.1,0.6l-0.1,0.3l0.1,0.1v0.4l-0.1,0.1l0.1,0.2l0.1,1.1l-0.1,0.3l0.1,0.2l0,0.6l-0.1,0.6l0.1,0.2l-0.3,0.4
	l-0.2,0l-0.3-0.2h-0.2l-0.4-0.2h-0.2l-0.5-0.4l0-0.2l-0.3,0.1l-1-0.4l-0.2-0.1l-1.4-0.5l-0.1-0.2l-1.4-0.5l-1.7-0.9l-0.2,0l-0.5-0.3
	l-0.3,0l-0.1-0.1h-0.2l-0.1-0.1l-0.2-0.1l-0.1-0.1l-0.3-0.1v-0.2h-0.5l-0.1-0.3l-0.4,0.1l-0.3-0.2l-0.1-0.2l-0.9-0.1l-0.1-0.2v0.3
	l-0.7,0.4l-0.5,0.1l-0.1,0.1l-0.7,0.3l-0.2,0.1l-0.3,0L177,37l-0.1,0.2l-0.4,0.1l-0.3,0.2l-0.2-0.1l-0.2,0.1l-0.2,0.3l-0.8,0.3
	l-0.4,0l-0.6,0.5h-0.3l-0.4,0.3l-0.2-0.1l-0.1,0.1l-0.2-0.1l0.1,0.2l-0.4,0.1l-0.2,0.1l-0.1-0.1l0,0.2l-0.4,0.2l-0.1,0.2l-0.2,0
	l-0.2,0.1l-0.2,0l-0.4,0.2l-0.2,0.2l-0.2,0l-0.3,0.2l-0.4,0l-0.2,0.2h-0.2l-0.1,0.1l-0.8,0.3l-0.2,0l-0.2-0.2l0-0.4l-0.1-0.9
	l0.2-0.1l0-0.2l-0.1-0.1v-1l0.2-0.1l0.2-0.2l-0.4-0.1l0.2-0.2l-0.1-0.4l0-0.6l0.2,0l-0.2-0.3l0.1-0.1l0.1,0l-0.1-0.2l-0.2-0.3l0-0.3
	l0.2-0.2l-0.2-0.1l0-0.4l-0.1-0.2l0.1-0.1l0-0.6l0.1,0.1v-0.2l-0.2-0.2l0.2-0.3l-0.1-0.2l-0.1-0.1v-0.3l0.3-0.1l-0.1-0.1l-0.1,0.1
	l0-0.1l0.2-0.1l0.1-0.1l-0.2-0.1l-0.1-1.2l0.3,0.1l0.4,0.1l0.1-0.3l-0.3,0.2l0-0.1l-0.4-0.1l-0.1-0.8l0.1-0.1l-0.1-0.4l0.1-0.2
	l0.4,0.1l-0.1-0.3l0.2,0.1l-0.2-0.4l-0.1,0.4l-0.2,0.1l0.1-0.2v-0.6l0.1-0.2h0.2l0.1,0.1l0.1-0.1l0.1-0.1l0.3,0.1l-0.1-0.1l0.2-0.1
	l0.1-0.2h-0.2l0.2-0.2l-0.1-0.1l-0.2,0.2l-0.2,0.1l0.1,0.4l-0.4,0.1l-0.2,0l0-0.3h0.2l-0.1-0.2l-0.1-0.1l0.1-0.4l-0.1-0.2l0.2-0.4
	l-0.3-0.1l0.1-0.7l-0.1-0.2l0.2,0l0.1-0.1l-0.3,0v-0.2l-0.1-0.1l0.2-0.4l-0.2-0.3l0.2-0.7l-0.1-0.4L168,23l-0.1-0.2l0.1-0.4v-1.7
	l-0.1-0.2l0.1-0.6v-0.4l-0.1-0.2l0.1-0.3l-0.1-0.3l0.1-0.1l-0.1-0.2l0.1-0.2l-0.1-0.8L168,17l-0.1-0.3l0.1-0.4l-0.1-0.2l0.2-0.1
	l-0.2-0.8l0.1-1l-0.1-0.1l0-1l0.1-0.1l-0.2-0.2l0.2-0.2l-0.2-0.6l0.1-0.8l-0.1-0.3l0.1-0.3l-0.1-0.2l0.1-1l-0.1-0.4l0.1-1.4
	l-0.1-0.2l0.1-0.3l-0.1-0.6l0.1-0.6l0.1-0.1l-0.1-0.5l0.1-0.2V4.9l-0.1-0.6l0.1-0.4l-0.1-0.3V2.8l0.1-0.7h0.2l0.2-0.2l0.3,0l0.1,0.1
	l0.5,0.2l0,0.4l0.1,0.3l-0.1,0.4l0.1,1l-0.1,0.2l0.1,0.4l0,0.4l-0.1,0.2l0.1,0.2l0,0.4l0.1,0.2l-0.1,0.9l-0.1,0.2l0.1,0.2l-0.1,0.4
	l0.1,0.4l-0.1,0.2l0.1,0.2L169.3,9l0.1,0.4l-0.1,0.7l0.1,0.5l-0.1,0.2l0.1,0.4l0,0.2l0.1,0.5l-0.2,0.3l0.1,0.2l0,0.9l0.1,0.2
	l-0.1,0.3l0.1,0.8l-0.1,0.6l0.1,0.2l-0.1,0.2L169.3,15.6z M168,34.6l0.2,0l0.1-0.1l-0.3-0.2l0,0.2V34.6z M168.1,26.3l0.2,0l0,0.2
	l0.2,0.1l-0.2-0.3l0.1-0.2l-0.1,0l-0.2-0.2l-0.1,0.4L168.1,26.3z M168.1,29.7l0,0.2l0.2-0.2H168.1z M168.1,3.1L168.1,3.1L168.1,3.1
	L168.1,3.1z M168.1,24.3l0.1-0.3l-0.2,0.1L168.1,24.3z M168.1,33.6l0.4,0l0.1-0.1l-0.4,0L168.1,33.6z M168.1,35.7l0.2-0.1l0-0.2
	l-0.2,0.1L168.1,35.7z M168.1,23.5l0.1-0.1l0-0.2h-0.1v0.2L168.1,23.5z M168.3,30.7l0.1-0.2l-0.1-0.2l-0.2-0.1L168.3,30.7
	L168.3,30.7z M168.1,27.6h0.1H168.1L168.1,27.6z M168.1,34.2L168.1,34.2l0.1-0.1h-0.1L168.1,34.2z M168.1,34.9h0.3l0.1-0.1l-0.2-0.1
	L168.1,34.9z M168.2,21.3v0.1l0.3,0l-0.1-0.2H168.2z M168.3,8.7l0-0.2l-0.1-0.1L168.3,8.7z M168.5,25l-0.1-0.2l-0.2-0.1l0,0.2
	L168.5,25z M168.3,26.9l0.1,0.3l-0.2,0l0.1,0.2l0.2,0.1l0-0.3h0.1l-0.1-0.2L168.3,26.9z M168.5,4.3l-0.2-0.1l0.1,0.2L168.5,4.3z
	 M168.3,19.6L168.3,19.6l0.1-0.2h-0.1V19.6z M168.3,31.3l0,0.2h0.2v-0.2H168.3z M168.3,31.9l0.3,0.1l0-0.2h-0.2L168.3,31.9z
	 M168.3,36l0.1,0.3l0.1-0.3L168.3,36z M168.3,23.1l0.2,0.1l0-0.2L168.3,23.1z M168.5,10.6l0-0.1L168.5,10.6L168.5,10.6z M168.4,39.2
	L168.4,39.2l0.1-0.1L168.4,39.2L168.4,39.2z M168.5,24.4l0.1,0.1l0.1-0.2l-0.1-0.2l-0.1,0.2L168.5,24.4z M168.6,30.7l0-0.4l-0.1-0.1
	v0.3L168.6,30.7z M168.5,39.8L168.5,39.8L168.5,39.8L168.5,39.8L168.5,39.8z M168.5,32.2l0.1-0.2h-0.1V32.2z M168.6,37.9h0.2
	l-0.2-0.2L168.6,37.9z M168.6,25.5l0.2,0l0-0.1L168.6,25.5z M168.6,29.2l0.2-0.1l0.1-0.2l-0.2,0l-0.1,0.1V29.2z M168.6,37.6l0.1-0.1
	l-0.1-0.1L168.6,37.6z M168.6,38.7l0.2,0.1l0-0.2L168.6,38.7z M168.8,11.3v-0.2l-0.1-0.1l0,0.1L168.8,11.3z M168.6,25.9l0.2,0
	l-0.2-0.2V25.9z M168.9,27.2l0-0.1l-0.2,0.1L168.9,27.2z M168.7,25.2l0.2-0.1L168.7,25.2L168.7,25.2z M169,26.4h-0.2l-0.1,0.1
	l0.1,0.1L169,26.4L169,26.4l0.1-0.1L169,26.4z M168.7,35l0.1,0.2L168.7,35L168.7,35z M169.1,29.7l0.1-0.2l-0.4-0.1l0.1,0.2
	L169.1,29.7z M168.8,32.8L168.8,32.8L168.8,32.8L168.8,32.8L168.8,32.8z M168.9,33.6L168.9,33.6l0.2,0L168.9,33.6z M168.9,25.4h0.1
	l-0.1-0.1V25.4z M169.1,30.4l0-0.2l-0.1-0.1l-0.1,0.2L169.1,30.4z M168.9,38.5h0.1v-0.1L168.9,38.5L168.9,38.5z M169.1,31.2V31H169
	L169.1,31.2z M169,40.2h0.1l-0.1-0.1L169,40.2z M169.1,9.8l0-0.1h-0.1L169.1,9.8z M169.1,28.1h0.2V28L169.1,28.1z M169.1,35.6
	L169.1,35.6L169.1,35.6L169.1,35.6L169.1,35.6z M173.9,2.1l0.2-0.2l1.1-0.1l0.3,0.1l0.1-0.1L176,2l1.2-0.1l0.4,0.1l0.3-0.1l0.3,0.1
	l0.2,0l0.1-0.1l0.4,0.1l1.1-0.1l0.3,0.1l0.4-0.1l0.2,0.1l0.2-0.1h0.3l0.4,0.1l0.7-0.1l0.2,0.1h0.4l0.2-0.1l0.1,0.2l0.2-0.2h0.8
	l0.1,0.1l0.3-0.2l0.4,0.1l0.2-0.1l0.4,0l0.4-0.1l0.2,0.1l0.4,0.1l0.2-0.1h0.4v0.2l0.4-0.1l0.3-0.2l0.4,0.2l0.4-0.1l0.3,0.1l0.2-0.1
	l0.1,0l0.4-0.1L190,2l0.2,0.4l-0.1,0.2l0.1,0.4l0.1,1.6l-0.1,0.1l0.1,0.2l-0.1,0.2l0.1,0.1l-0.1,0.2l0.2,0.5l-0.1,0.4l0.1,0.5v0.9
	l-0.1,0.2l0,0.8l-0.1,0.6l0.1,0.3v0.9l-0.2,0.1l0.2,0.1l-0.1,0.4l0.1,0.4l-0.1,0.6l0.1,0.4l-0.1,0.2l0,0.2l-0.1,0.2l0.2,0.1l0,0.6
	l-0.1,0.2V15l-0.1,0.2l0.1,0.1l0,0.4l-0.1,0.4l0.1,0.4l-0.1,0.4l0.1,0.2l-0.1,1.5l-0.1,0.2l0.1,0.2l0,0.4l-0.1,0.2l0.1,0.3l-0.1,0.3
	l0.1,0.8v1.6l0.1,0.2l-0.1,0.6l0.1,0.3l-0.1,0.1v0.7l-0.1,0.2l0.1,0.1V25l0.1,0.2l-0.1,0.4l0.1,0.2l-0.1,0.2l0.1,0.8l-0.1,0.6
	l0.2,0.3l-0.1,0.2V30l-0.1,0.1l0.1,0.2v0.5l0.1,0.2l-0.1,0.7l0.1,1l-0.1,0.5l0.1,0.3l-0.1,1.2l0.1,0.3l0,1.1l-0.1,0.2l0.1,0.2
	l-0.1,0.1l0,0.2l-0.1,0.2l0.1,0.2l-0.3,0.5h-0.2l-0.1,0.1l-0.4-0.2l-0.3-0.2l-0.8-0.2l-0.3-0.2l-0.2,0l-0.6-0.4l-0.2,0.1l-0.1-0.1
	l-0.2,0l-0.1-0.2l-0.4,0l-0.3-0.2l-0.2,0l-0.3-0.3l-0.2,0.1l-0.2-0.1l-0.1-0.2l-0.4-0.1l-0.1-0.1l-0.5-0.1l-0.3-0.2l-0.4-0.1
	l-0.1-0.2l-0.3-0.2l-0.1-0.1l-0.3,0.1l-0.4-0.3l-0.4-0.1l-0.2-0.3l-0.3-0.1l-0.1-0.1l-0.1,0.1l-0.5-0.2l-0.1-0.2l0.2-0.1l0.3,0.2
	l0.2,0l-0.1-0.2l-0.4-0.2l0.1-0.2l-0.3-0.3l0,0.2l0.2,0.2l0,0.2l-0.2,0.3H180l-0.2-0.6l-0.1,0.2l0.1,0.2l-0.1,0.1l-0.1,0.1l0.1,0
	l0.1-0.2v0.2l-0.3,0.2h-0.2l-0.5,0.2l-0.1-0.1h-0.1v0.3l-0.7,0.2h-0.2l-0.1,0.1l-0.6,0.2l-0.1,0.2l-0.2,0l-0.5,0.3l-0.2,0l-0.3,0.1
	h-0.2l-0.2,0.1l-0.1,0.2l-0.7,0.1l-0.2,0.2l-0.4,0.1l0.1-0.3l-0.1,0.1l-0.1,0.4l-2,1l-0.3-0.1l-0.1,0.2l-0.3,0.2l-0.4,0l0,0.1
	l-0.3,0.2h-0.4l-0.2-0.1l-0.1-0.4v-0.4l-0.1-0.2l0.1-0.3l-0.2-0.2l0.1-0.3l-0.1-1.1l0-0.5l0.2-0.1l-0.2-0.1l-0.1-0.8l0.1-0.4
	l-0.1-0.2v-0.5l0.3-0.1l-0.1-0.1h-0.2l0-0.6l0.2-0.1l-0.1-0.1l-0.1-0.4l0.1-0.2l-0.1-0.5l0.1-0.2l-0.2-0.3l0.2-0.2l-0.1-0.4l0.1-0.2
	l0.1-0.1l-0.3-0.7l0-0.2l0.1-0.2l-0.1-0.2l-0.1-0.4l0.1-0.4v-0.4l0.1-0.1l-0.2-0.3v-0.5l0.1-0.1l-0.1-0.3l0.4,0l-0.3-0.2l0-1.6
	l0.1-0.2l-0.1-0.8l0-1l0.1-0.2l-0.2-0.3l0.1-0.2V20l-0.1-0.3l0-0.2l0.2-0.3l-0.1-0.4l0-0.6l-0.1-0.3l0-0.6l-0.1-0.2l0.2-0.5
	l-0.2-0.3l0.1-0.2l-0.1-0.2l0.1-0.2l-0.1-0.7l0.1-0.2l-0.1-0.4l0.1-1.6l-0.1-0.5l0.1-0.3l0-0.4l0.1-0.4l-0.1-0.3V9.6l0.1-0.4
	L169.8,9l0.1-0.1l-0.1-0.2V7.8l0.2-0.2l-0.2-0.2l0.1-0.5l-0.1-0.4l-0.1-0.2l0.1-0.2l0-0.4l-0.1-0.1l0.1-0.2V5l0.1-0.2l-0.1-0.3V2.5
	l0.2-0.4l0.2-0.1l0.3,0.1l0.2-0.2l1.2,0.1l0.2-0.1l0.3,0.1l1.4,0L173.9,2.1z M170.3,29.7l-0.2-0.1v0.2L170.3,29.7z M170.1,32.4
	L170.1,32.4l0.2,0L170.1,32.4z M170.1,34.3l0.3,0.3l-0.1-0.4L170.1,34.3z M170.4,34.9l-0.1-0.2h-0.1l0,0.2L170.4,34.9z M170.3,26.5
	h0.1l-0.1-0.1L170.3,26.5z M170.4,30.2L170.4,30.2L170.4,30.2L170.4,30.2z M170.3,26.8l0.1,0.1h0.2l-0.1-0.2L170.3,26.8L170.3,26.8z
	 M170.3,31.5h0.2l-0.2-0.2V31.5z M170.4,28h0.1v-0.1L170.4,28L170.4,28z M170.5,14.7L170.5,14.7l0-0.1L170.5,14.7z M170.5,33
	l0.2-0.1l-0.2,0V33z M170.7,26.4l0-0.1l-0.2-0.1L170.7,26.4z M170.6,27.6l0.2,0.1L170.6,27.6L170.6,27.6z M170.8,23.5l-0.2,0
	L170.8,23.5L170.8,23.5z M170.7,32.4l0.2,0l0.1-0.2l-0.2,0L170.7,32.4L170.7,32.4z M170.7,35.8l0.1,0.1L170.7,35.8L170.7,35.8z
	 M170.8,28.5l0.1-0.1h-0.1V28.5z M170.8,31.4l0.2-0.1l-0.1-0.1L170.8,31.4z M170.8,29.4l0.1,0.1l-0.1,0.2l0.2,0.1l0.1-0.6
	L170.8,29.4z M170.8,33.9L170.8,33.9L170.8,33.9L170.8,33.9L170.8,33.9z M170.8,31.1L171,31l-0.1-0.2l-0.1,0.1V31.1z M170.8,32.9
	h0.2v-0.1L170.8,32.9z M170.9,28.9L170.9,28.9L170.9,28.9L170.9,28.9L170.9,28.9z M170.9,30.8L170.9,30.8L170.9,30.8L170.9,30.8
	L170.9,30.8z M170.9,31.4l0.1,0.2l0.2-0.2H170.9z M171,33.6l0-0.2h-0.2L171,33.6z M171.1,28l0.1,0l0.1-0.1l-0.2,0L171.1,28z
	 M171.1,29.7h0.1v-0.1L171.1,29.7L171.1,29.7z M171.2,30.1L171.2,30.1h0.2l0-0.1L171.2,30.1z M171.3,32.4l0.1-0.2l-0.2,0L171.3,32.4
	z M171.4,29.2l-0.1-0.2l0,0.2L171.4,29.2z M171.6,27.7l-0.1-0.1l-0.2,0l0.1,0.2H171.6z M172.3,28.3l-0.3,0.4l-0.2,0l0,0.1l-0.3-0.1
	l-0.2,0.1l0.3,0.1l0.4,0.1l0-0.3l0.2,0l0-0.2L172.3,28.3l0-0.3l-0.2-0.1l0.1,0.2L172.3,28.3z M171.4,30.5l0.1,0v-0.1h-0.1V30.5z
	 M171.4,38.7l0.2,0v-0.1L171.4,38.7z M171.6,29.8h0.3v-0.1L171.6,29.8L171.6,29.8z M171.7,31.7L171.7,31.7L171.7,31.7L171.7,31.7
	L171.7,31.7z M171.7,32.8l0.1,0.1v-0.2L171.7,32.8z M171.8,28.2l0.1,0.1l0.2,0l-0.1-0.2L171.8,28.2z M171.9,39l0.1-0.2l-0.1-0.1
	l-0.1,0.1L171.9,39z M171.8,11.9L171.8,11.9L171.8,11.9L171.8,11.9L171.8,11.9z M172.8,30.3l-0.4-0.1l-0.1-0.1l-0.1,0.2l-0.1,0V30
	l-0.1,0.1v0.2l0.2,0.1l0,0.2l-0.2-0.1l-0.1-0.2l-0.1,0.2l0.1,0.2l0.3,0.2l-0.1,0.2l0.2-0.1l0.2,0.1l-0.1-0.4l0.2-0.4l0.1,0.2l0.2,0
	l0.1,0.1l0.2-0.3l0.2,0.2l0.2-0.1l-0.1-0.2L173,30L172.8,30.3L172.8,30.3z M171.9,31.4l0.1-0.1l-0.1-0.1L171.9,31.4z M172,25.7h0.2
	l0.1-0.2l-0.2-0.1l-0.1,0.1L172,25.7z M172.1,29.7v-0.2H172L172.1,29.7z M172,2.8L172,2.8L172,2.8L172,2.8L172,2.8z M172.1,38.2h0.3
	l-0.1-0.1v-0.1l-0.2,0.1L172.1,38.2z M172.1,27.5l0.1,0.2l0.2-0.2l-0.1-0.1h-0.1L172.1,27.5z M172.3,31.1l0.1,0.2l-0.1,0.2l0.2-0.1
	l0.1-0.2l0.1,0.1l0.1-0.1l-0.2-0.1L172.3,31.1z M172.4,29.2l0-0.2l-0.1-0.1l0,0.2L172.4,29.2z M172.3,31.9h0.1l-0.1-0.2V31.9z
	 M172.4,36.4h0.2l0.1-0.1l-0.2-0.1L172.4,36.4z M172.5,28.6L172.5,28.6l0-0.2L172.5,28.6z M172.9,29.6l-0.3-0.1l-0.1,0.1l0,0.3
	l0.7-0.3l0.1-0.1l-0.4,0L172.9,29.6z M172.6,30.7l0.1,0.2l0.2,0.1l0.1-0.1l0.1-0.2H172.6z M172.6,37.8l0.2,0l-0.1-0.1L172.6,37.8z
	 M172.7,26.5l0.2,0L172.7,26.5L172.7,26.5z M172.8,28.2l0-0.2l-0.1-0.1L172.8,28.2z M172.8,29.2h0.1v-0.1L172.8,29.2L172.8,29.2z
	 M173.2,27.5l-0.1,0.2l-0.1-0.2l0,0.2l0.1,0.1l0.2,0l0.1-0.1L173.2,27.5z M173.1,31.2V31h-0.2l0.1,0.2L173.1,31.2z M173.1,31.7
	l0,0.3l0.1,0v-0.4l-0.2,0L173.1,31.7z M173.1,28.6l0.2,0l-0.1-0.4l-0.1,0.2L173.1,28.6z M173.2,30.8l0.1,0.1l0.1-0.1H173.2z
	 M173.2,35.8L173.2,35.8l0.2,0L173.2,35.8z M173.2,2.3L173.2,2.3L173.2,2.3L173.2,2.3L173.2,2.3z M173.3,33.1L173.3,33.1L173.3,33.1
	L173.3,33.1z M173.3,29.9l0.2,0l0.1-0.1l-0.2-0.1L173.3,29.9z M173.3,38l0.1-0.1h-0.1V38z M173.4,28.9l0.2,0L173.4,28.9L173.4,28.9z
	 M173.4,31.8L173.4,31.8l0.3,0.1l-0.1-0.2L173.4,31.8z M173.4,35.6l0.2-0.1l0-0.2h-0.1L173.4,35.6z M173.5,29.3L173.5,29.3
	L173.5,29.3L173.5,29.3z M173.5,26.8h0.2l0.1-0.2h-0.2L173.5,26.8z M173.6,9.8L173.6,9.8L173.6,9.8L173.6,9.8L173.6,9.8z
	 M173.6,29.7l0.1,0.1v-0.1L173.6,29.7z M173.8,31.4l0-0.2l-0.2-0.1l0.1,0.1L173.8,31.4z M173.6,5.5L173.6,5.5L173.6,5.5L173.6,5.5
	L173.6,5.5z M173.6,23.2L173.6,23.2l0.2-0.1l-0.1-0.1L173.6,23.2z M173.8,29.6L173.8,29.6l0.1-0.4l-0.1,0l-0.1,0.3L173.8,29.6z
	 M173.8,28.6l0.1,0.1l0.2,0.1l0-0.2l-0.1-0.1L173.8,28.6z M173.8,28h0.2l0.1-0.1l-0.2,0L173.8,28z M173.9,30.4l0.1-0.2h-0.2
	L173.9,30.4z M174,26.3L174,26.3L174,26.3L174,26.3z M174.2,29.2l0.2-0.1l0.3,0.4l-0.1,0.1h0.1v0.2l-0.1,0.1l-0.2,0l-0.2-0.4l-0.2,0
	l0,0.2l-0.1,0.1l0.2,0.3l0.4-0.1l0.3-0.3l0-0.2l-0.1-0.2l0.2-0.1l0.1-0.2l-0.4,0.1v-0.2l-0.5-0.3l-0.1,0.1L174.2,29.2z M174,30.9
	l0.1,0.1h0.2l0.1-0.2l-0.1-0.1l-0.1,0.1H174z M174,37.6L174,37.6L174,37.6L174,37.6z M174,30.7l0.1,0l0.1-0.1L174,30.7L174,30.7z
	 M174.2,24.9L174.2,24.9L174.2,24.9L174.2,24.9L174.2,24.9z M174.4,28.9L174.4,28.9l0-0.2h-0.2L174.4,28.9z M174.4,28.3v-0.2
	l-0.1-0.1l0,0.2L174.4,28.3z M174.4,31.5L174.4,31.5l0.1-0.3h-0.1l0,0.2L174.4,31.5z M174.4,37.9L174.4,37.9L174.4,37.9L174.4,37.9
	L174.4,37.9z M174.5,28.6L174.5,28.6L174.5,28.6L174.5,28.6L174.5,28.6z M174.6,29l0.2-0.1l0-0.2l-0.2,0.1L174.6,29z M175,22.2
	l0-0.3l-0.2,0l0,0.2L175,22.2z M174.8,30.2L174.8,30.2L174.8,30.2L174.8,30.2L174.8,30.2z M175,29.8L175,29.8L175,29.8L175,29.8
	L175,29.8z M175.1,28.9l0.1-0.1v-0.2l-0.2,0.1L175.1,28.9z M175.3,23.6l0-0.1l-0.1-0.1L175.3,23.6z M175.5,28.2h-0.2l-0.2-0.1
	l0.1,0.2l0.2,0L175.5,28.2z M175.2,22.8l0.1,0.1h0.1l-0.1-0.1H175.2z M175.3,37.1L175.3,37.1L175.3,37.1L175.3,37.1z M175.3,30.3
	l0.2,0l0.1-0.2l0.1-0.1l0-0.1l-0.2,0.3L175.3,30.3z M175.4,34.8L175.4,34.8L175.4,34.8L175.4,34.8z M175.5,29.4v-0.1l-0.1,0
	L175.5,29.4z M175.4,29.6l0.2-0.1l-0.1-0.1L175.4,29.6z M175.4,27.8l0.2,0.1l0-0.2L175.4,27.8z M175.6,37.1v-0.3h-0.1l0,0.2
	L175.6,37.1z M175.7,23L175.7,23L175.7,23L175.7,23L175.7,23z M175.7,23.2l0.2,0.1v-0.2L175.7,23.2z M175.8,24.4L175.8,24.4
	L175.8,24.4L175.8,24.4z M175.8,30.7l0.1,0.1h0.2l-0.1-0.2L175.8,30.7z M175.9,28.6l0.1-0.2h-0.1L175.9,28.6z M176,32.2l0-0.2h-0.2
	L176,32.2z M175.9,29.2L175.9,29.2l0.3,0.1l-0.1-0.2L175.9,29.2z M176,30.3L176,30.3L176,30.3L176,30.3z M176.1,21.4L176.1,21.4
	L176.1,21.4L176.1,21.4L176.1,21.4z M176.1,26.7L176.1,26.7L176.1,26.7L176.1,26.7L176.1,26.7z M176.1,30.6l0.3,0.1l0-0.4l-0.2,0.1
	L176.1,30.6z M176.2,29h0.2l-0.1-0.2L176.2,29z M176.4,33.6l0.1-0.2L176.4,33.6L176.4,33.6z M176.5,7.9L176.5,7.9L176.5,7.9
	L176.5,7.9L176.5,7.9z M176.6,32.9h0.2v-0.1h-0.1L176.6,32.9z M176.6,33.7L176.6,33.7l0.1-0.1L176.6,33.7z M176.8,34.2l0-0.2
	l-0.1-0.1v0.1L176.8,34.2z M177,29.8L177,29.8L177,29.8L177,29.8L177,29.8z M177.3,32L177.3,32l0.2,0.1l-0.1-0.2v-0.2h-0.1l0,0.2V32
	z M177.5,9.1L177.4,9l0,0.1L177.5,9.1z M177.4,32.9l0.2-0.1l0-0.2l-0.1-0.2l-0.2-0.1l0.1,0.4L177.4,32.9z M177.4,30.4v0.4l0.1-0.1
	l0.1-0.4L177.4,30.4z M177.6,33.7h-0.2H177.6L177.6,33.7z M177.5,31.2l0.1,0.2l0.1-0.1L177.5,31.2z M177.7,35.7L177.7,35.7l0-0.1
	L177.7,35.7z M177.7,34L177.7,34L177.7,34L177.7,34z M177.8,32.1L177.8,32.1V32V32.1z M177.8,33.6l0.1-0.1h0.1l0-0.2l-0.2-0.1l0,0.2
	V33.6z M178,31L178,31l-0.2-0.2L178,31z M177.9,31.4l0.1,0.2l0.1-0.2H177.9z M177.9,33.1L177.9,33.1h0.2H177.9z M178,31.9l0.2-0.1
	l-0.1-0.1L178,31.9z M178.1,30.5h0.1H178.1L178.1,30.5z M178.2,35.5l0.1,0l0.1-0.1h-0.2L178.2,35.5z M178.6,32.7l0-0.2l-0.4-0.1
	l0.3,0.5h0.4l-0.1-0.2l0.2-0.3l-0.2-0.3l0,0.4L178.6,32.7z M178.3,32.9L178.3,32.9L178.3,32.9L178.3,32.9L178.3,32.9z M178.3,33.4
	l0,0.2l0.2,0l0.2,0.1l0-0.2L178.3,33.4L178.3,33.4z M178.4,33.2l0.2-0.2l-0.2,0.1V33.2z M178.4,32h0.2H178.4L178.4,32z M178.5,30.9
	l0.1,0.4l0.2-0.1l-0.1-0.4L178.5,30.9z M178.8,33.4l0.1,0.1l0.1-0.3h0.3l-0.2-0.3l-0.2,0l0,0.4L178.8,33.4z M178.9,19.7h0.2H178.9
	L178.9,19.7z M178.9,31.2L178.9,31.2l0.2,0L178.9,31.2z M179,29.8l0.1-0.1l-0.1,0L179,29.8z M179,30.6v0.1l0.2,0.1l0-0.2H179z
	 M179.1,31.9l0.1-0.1l-0.1-0.1l-0.1,0.1L179.1,31.9z M179.2,35.3v-0.2h-0.1l0,0.1L179.2,35.3z M179.3,32.4l0,0.2l0.1,0l0.2-0.1
	l-0.1,0.3l0.1,0.1l0.3-0.2l-0.1,0.3l0.3-0.1l-0.1-0.2l-0.4-0.4l-0.1,0.1L179.3,32.4z M179.6,30.3L179.6,30.3l0.1-0.2l-0.1,0.1
	L179.6,30.3z M179.6,10.9L179.6,10.9L179.6,10.9L179.6,10.9L179.6,10.9z M179.6,32.2l0.3,0l-0.1-0.2h-0.2L179.6,32.2z M179.7,18
	L179.7,18L179.7,18L179.7,18L179.7,18z M179.8,31l-0.1,0.3l0.2,0l0.1,0.1l0,0.2l0.1,0.1l0.2,0.3l0.2,0l0-0.2l-0.1-0.1l-0.1-0.2
	l0.4,0.1l-0.1-0.2l-0.6-0.2l-0.1-0.1l0.2,0l-0.1-0.2L180,31H179.8z M180.1,30.7l-0.1-0.2l-0.1,0.2L180.1,30.7z M179.9,34.7v0.2
	l0.4,0.1l0.1-0.3l-0.1-0.1l-0.2,0.1L179.9,34.7z M180.1,33.4l0.2-0.4l-0.2,0l-0.1,0.2L180.1,33.4z M180.1,32.5l0.4-0.3l-0.4-0.1
	V32.5z M180.4,15.1L180.4,15.1L180.4,15.1L180.4,15.1L180.4,15.1z M180.4,31.2L180.4,31.2L180.4,31.2L180.4,31.2L180.4,31.2z
	 M180.8,35.2l0-0.3h-0.2l0.1,0.2L180.8,35.2z M180.5,30.4L180.5,30.4L180.5,30.4L180.5,30.4z M181.1,35.3l-0.2,0.1l-0.4,0.1l0,0.1
	l0.2-0.1l0.6-0.1l0,0.2l0.1,0.1l0.1-0.2v-0.4l-0.3,0.1L181.1,35.3z M180.7,34.7L180.7,34.7L180.7,34.7L180.7,34.7L180.7,34.7z
	 M180.7,30.7l0.1-0.1l-0.1-0.1L180.7,30.7z M180.8,33l0.1,0.2l0.1-0.2L180.8,33z M180.8,10.5L180.8,10.5L180.8,10.5L180.8,10.5
	L180.8,10.5z M180.8,32.2v0.1l0.2-0.2L180.8,32.2z M180.9,31L180.9,31h0.2H180.9z M181.1,33.1L181.1,33.1l0.1-0.1L181.1,33.1z
	 M181.1,32.7l0,0.2l0.2,0.1l0.1-0.2H181.1z M181.2,19L181.2,19L181.2,19L181.2,19L181.2,19z M181.3,30.8l0.1-0.1l-0.1-0.1V30.8z
	 M181.3,32.4l0.1-0.1l0-0.2l-0.2,0V32.4z M181.4,33.7l0.2-0.1l0-0.1L181.4,33.7z M181.7,31.9l-0.2-0.1l0.1,0.2h0.2V31.9z M181.6,33
	L181.6,33L181.6,33L181.6,33L181.6,33z M181.6,32.5l0.1,0.2l-0.1,0.2l0.2-0.1v-0.2l-0.1-0.2L181.6,32.5z M181.7,20.9l0.2,0l0-0.1
	L181.7,20.9z M181.8,14.7h0.1H181.8L181.8,14.7z M181.9,36h0.2l-0.2-0.2L181.9,36z M182.1,21.9l0-0.2L182.1,21.9L182.1,21.9z
	 M182,24.8h0.1l-0.1-0.1L182,24.8z M182.3,33.1l0.1-0.2l-0.2-0.1V33L182.3,33.1z M182.4,32.4L182.4,32.4L182.4,32.4L182.4,32.4z
	 M182.7,33.7l0-0.2h-0.1L182.7,33.7z M182.5,33.9l0.2,0.1h0.2l-0.1-0.2l-0.2-0.1L182.5,33.9z M182.6,21.7h0.1l-0.1-0.2V21.7z
	 M182.8,32.9l0.1-0.1l-0.2-0.1L182.8,32.9z M182.7,36.4L182.7,36.4L182.7,36.4L182.7,36.4L182.7,36.4z M183.1,32.8v-0.2h-0.1
	L183.1,32.8z M183,36.4l0.2,0l0-0.1H183L183,36.4z M183,34l0.1,0.1V34L183,34z M183.1,33.2L183.1,33.2l0.2,0L183.1,33.2z M183.7,10
	V9.8h-0.1L183.7,10z M183.6,21.8l0.2-0.1l-0.2-0.1V21.8z M183.6,25.9L183.6,25.9L183.6,25.9L183.6,25.9L183.6,25.9z M183.7,19.5
	l0.1-0.1L183.7,19.5L183.7,19.5z M183.7,22.4h0.1l-0.1-0.1V22.4z M183.8,26.6l0-0.2l-0.1,0L183.8,26.6L183.8,26.6z M183.9,32.3
	l0.2,0l-0.2-0.2V32.3z M184,36.5L184,36.5L184,36.5L184,36.5L184,36.5z M184.1,8.6l0.1-0.1h-0.1V8.6z M184.1,23l0.1,0.1l0.1-0.2
	l-0.1-0.1L184.1,23z M184.1,34.8L184.1,34.8L184.1,34.8L184.1,34.8z M184.2,17.9l0.2-0.1l-0.2-0.1V17.9z M184.2,21.5L184.2,21.5
	l0.1-0.1L184.2,21.5L184.2,21.5z M184.5,37.2l0.1-0.2h-0.3l0,0.2L184.5,37.2z M184.4,22.7l0.1,0L184.4,22.7L184.4,22.7z M184.5,9
	L184.5,9L184.5,9L184.5,9z M184.6,12.4L184.6,12.4L184.6,12.4L184.6,12.4L184.6,12.4z M184.8,36.9L184.8,36.9l0.1-0.1h-0.1
	L184.8,36.9z M185.1,37.5l-0.1-0.2l-0.1,0.1L185.1,37.5z M185,22.7L185,22.7L185,22.7L185,22.7L185,22.7z M185.3,22h0.1l-0.1-0.1
	L185.3,22z M185.4,24.3l0.1-0.2h-0.1V24.3z M185.6,37.8l0.1-0.1v-0.1L185.6,37.8z M185.7,6.1L185.7,6.1L185.7,6.1L185.7,6.1
	L185.7,6.1z M185.9,23.5l0.1,0.1l0.1-0.1H185.9z M185.9,19.4L185.9,19.4L185.9,19.4L185.9,19.4L185.9,19.4z M185.9,35.6l0.1-0.1
	h-0.1V35.6z M186.1,23L186.1,23L186.1,23L186.1,23L186.1,23z M186.9,22.6l0.2-0.1l-0.1-0.2L186.9,22.6z M187.1,2.4L187.1,2.4
	L187.1,2.4L187.1,2.4L187.1,2.4z M187.4,26.2L187.4,26.2l0.1-0.1L187.4,26.2L187.4,26.2z M189.4,21.4l-0.1-0.1v0.2L189.4,21.4z
	 M191.1,2.7l0.5-0.1l0.1,0.1l0.1,0l0-0.2l-0.1-0.1l-0.1,0.1l0,0l-0.7,0L191.1,2.7z M191.2,2.4l0.1-0.1L191,2.3L191.2,2.4z
	 M191.3,39.8l-0.2,0L191.3,39.8L191.3,39.8z M191.3,3.7l0-0.2l-0.2-0.1v0.2L191.3,3.7z M191.3,21.4l0.1-0.3l-0.2,0v0.2L191.3,21.4z
	 M191.4,18.8l0.1,0L191.4,18.8L191.4,18.8z M191.4,22.1L191.4,22.1l0.2-0.1L191.4,22.1z M191.4,22.5l0.2-0.1L191.4,22.5L191.4,22.5z
	 M191.4,18.2l0.1,0.1l0.1-0.1H191.4z M191.5,24.6l0.3,0l-0.2-0.1L191.5,24.6z M191.6,6.4l0.2-0.1l-0.1,0L191.6,6.4z M191.6,40.2
	L191.6,40.2L191.6,40.2L191.6,40.2z M191.7,15.3L191.7,15.3l0.2,0L191.7,15.3z M191.8,38.7L191.8,38.7L191.8,38.7L191.8,38.7
	L191.8,38.7z M191.9,9L191.9,9L191.9,9L191.9,9L191.9,9z M192.1,22.2l-0.1-0.2h-0.1l0.1,0.2H192.1z M192.2,3.1V2.9h-0.1l0,0.1
	L192.2,3.1z"/>
<g>
	<g>
		<path d="M150.9,15.2c0.1-0.1,0.1-0.1,0.1-0.1c-0.1-0.1-0.3-0.2-0.4-0.3c0,0,0,0,0,0C150.6,15,150.8,15,150.9,15.2z"/>
		<path d="M144.3,16.8C144.4,16.8,144.4,16.7,144.3,16.8C144.3,16.7,144.3,16.7,144.3,16.8C144.3,16.8,144.3,16.8,144.3,16.8z"/>
		<path d="M152.1,17.1c0,0,0-0.1,0-0.1c0,0-0.1,0-0.1,0C152,17.1,152.1,17.1,152.1,17.1C152.1,17.2,152.1,17.1,152.1,17.1z"/>
		<path d="M144.5,16.6C144.5,16.6,144.4,16.5,144.5,16.6c-0.1,0-0.1,0-0.1,0C144.4,16.6,144.5,16.6,144.5,16.6z"/>
		<path d="M151.4,16.1c0-0.1-0.1-0.1-0.1-0.2c0,0-0.1,0-0.1,0.1c0.2,0.1-0.2,0.3,0.1,0.3C151.3,16.2,151.4,16.2,151.4,16.1z"/>
		<path d="M151.9,16.7c0,0,0.1,0,0.1-0.1c-0.1-0.2-0.1-0.3-0.2-0.5c-0.1,0-0.2,0-0.3-0.1c0.1,0.1,0,0.2,0,0.2c0.1,0,0.1-0.1,0.2,0
			c0,0.1,0,0.1,0,0.3C151.9,16.5,151.7,16.7,151.9,16.7c0-0.1-0.1-0.2,0-0.2C152,16.6,151.8,16.6,151.9,16.7z M151.7,16.5
			c0-0.1,0-0.1,0-0.2C151.9,16.3,151.9,16.5,151.7,16.5z"/>
		<path d="M151.6,17.2c0.1,0.1,0.1,0.2,0.1,0.2c0-0.1,0,0,0.1,0C151.7,17.2,151.7,17.1,151.6,17.2z"/>
		<path d="M152.2,18.1C152.2,18.1,152.2,18.1,152.2,18.1C152.2,18.1,152.2,18.1,152.2,18.1z"/>
		<path d="M152.1,18.8C152.2,18.8,152.2,18.8,152.1,18.8c0.1-0.1,0.1-0.1,0.1-0.2c-0.1,0-0.2,0-0.2-0.1c0.1,0,0.2,0,0.2,0
			c0-0.1,0-0.2,0-0.3c-0.1,0-0.1-0.1-0.2,0c-0.1,0.1,0.1,0.1,0,0.2c-0.1,0-0.1-0.3-0.2-0.3c0.1,0,0.1-0.2,0-0.2
			c0.1,0.1-0.1,0.1-0.2,0.2c-0.1,0,0-0.1,0-0.2c0.1,0,0.2,0.1,0.1-0.1c-0.1,0-0.1,0.1-0.1-0.1c0-0.1,0.3-0.1,0.2-0.2
			c0,0-0.1,0-0.1,0c-0.1,0-0.2-0.1-0.2,0c-0.1,0-0.2-0.2-0.3-0.1c0-0.1,0-0.3-0.1-0.2c0.1-0.2,0-0.3-0.1-0.4c0.3-0.1,0-0.4,0.1-0.7
			c-0.2,0,0,0.1-0.2,0.2c0-0.1-0.1-0.3-0.3-0.2c0-0.1,0-0.1-0.1-0.2c0.2,0,0.2-0.4,0.2-0.1c0.2-0.1-0.1-0.2,0.1-0.2
			c0,0.1,0.1,0.1,0.2,0.3c-0.1,0-0.1,0-0.1,0.1c0.2-0.1,0.1-0.3,0.2-0.3c-0.1,0.1,0,0.1,0.2,0c-0.1,0-0.2-0.2-0.3-0.2
			c0-0.1,0.2-0.1,0.2,0c0.1-0.1,0-0.1-0.1-0.2c0,0,0,0,0,0c0,0.1-0.1-0.1-0.2,0c-0.1,0-0.2,0.2,0,0.2c-0.1,0.2-0.1-0.2-0.4,0
			c-0.1-0.1,0-0.2,0-0.3c0.1,0,0.2-0.1,0.1-0.2c-0.1,0.1,0,0.2-0.2,0.2c0-0.2-0.1-0.1-0.3-0.3c0.3,0,0.2-0.3,0.1-0.4
			c0,0-0.1,0.1,0,0.2c-0.1,0-0.1-0.1-0.2-0.2c0.1,0,0.1,0,0.1-0.1c-0.2-0.1-0.4-0.2-0.7-0.3c-0.1,0.1-0.1,0.3,0.1,0.4
			c-0.1,0-0.2,0-0.3,0c0-0.3-0.2,0-0.2-0.2c0.2,0.1,0.2-0.1,0.1-0.3c-0.1,0-0.2,0-0.2,0c0,0.1-0.1,0.1,0,0.2c-0.2,0-0.2-0.1-0.2-0.2
			c-0.1,0-0.2,0-0.3,0c0,0.1,0.1,0.2,0,0.3c0,0.1,0.2,0,0.2,0.1c0,0.1-0.2,0-0.3,0c0-0.1-0.2-0.3,0-0.4l0,0c0,0,0,0-0.1,0
			c0,0,0,0-0.1,0c0,0,0,0.1,0,0.1c0,0-0.1-0.1-0.1-0.1c-1.4,0-2.6,0.8-3.3,1.9c0,0,0.1,0.1,0.2,0c0,0.1,0,0.2,0,0.2
			c-0.2,0-0.2,0.1-0.3,0.1c0,0,0,0,0,0c0,0,0,0.1,0,0.1c0.1,0.2,0.1,0.4,0,0.6c-0.1,0-0.1-0.1-0.2,0c0,0,0,0,0,0
			c0,0.2-0.1,0.3-0.1,0.5c0.1,0,0.1,0,0.2,0c0,0.1,0,0.2-0.1,0.2c0,0,0-0.1-0.1-0.1c0,0.1,0,0.1,0,0.2c0.1,0,0.1,0,0.2,0
			c0,0.1-0.1,0.1-0.2,0.2c0,0.1,0,0.2,0,0.2c0,2.2,1.8,4.1,4.1,4.1c1.9,0,3.5-1.3,4-3.1C152.1,18.9,152.1,18.8,152.1,18.8z
			 M148.3,20.2C148.3,20.2,148.3,20.2,148.3,20.2c0.1,0.1,0.2,0,0.3,0.2c-0.1,0-0.2,0.1-0.2,0.1C148.2,20.3,148.4,20.3,148.3,20.2z
			 M148.2,14.9c0.1,0,0.2,0,0.2,0c-0.1,0.1-0.1,0.1-0.2,0.2C148.1,15,148.3,15,148.2,14.9z M147.9,18c-0.2,0-0.1-0.1-0.1-0.2
			c0,0,0.1,0,0.1-0.1C148,17.9,147.9,17.9,147.9,18z M148,14.8c-0.2,0,0.1-0.4-0.2-0.3C147.9,14.2,148,14.6,148,14.8z M147.9,18.4
			c-0.1,0-0.1,0-0.2,0c0-0.1-0.1-0.1-0.1-0.2c-0.1,0.1,0,0.1-0.2,0.1c0.1-0.2,0.2-0.1,0.4-0.3C147.9,18.2,147.8,18.2,147.9,18.4z
			 M147.8,17.9c-0.1,0.1-0.2-0.1-0.3-0.1c-0.1,0,0.1,0.1,0.1,0.1c0,0,0,0,0,0.1c0,0,0,0,0,0.1c-0.2-0.2-0.2-0.3-0.4-0.3
			c0,0,0.1,0,0.1-0.1C147.5,17.9,147.5,17.5,147.8,17.9z M147.6,17.4c0,0.1-0.2-0.1-0.3,0.1c0-0.1,0-0.1-0.1-0.2
			C147.4,17.3,147.5,17.4,147.6,17.4z M146.8,16.6c0,0,0.1,0,0.1-0.1c0.1,0.2,0.2,0.1,0.3,0.4c-0.1,0.1-0.2,0.1-0.1,0.3
			c-0.1,0-0.1-0.2,0-0.3c-0.1-0.1-0.1,0.1-0.2,0.1c-0.1-0.1,0.1-0.1,0-0.2c0,0-0.1,0-0.2,0C146.9,16.7,146.8,16.7,146.8,16.6z
			 M146.8,17.6c-0.1-0.2-0.1-0.1-0.2,0c0-0.2,0.2-0.3,0.2-0.5c0.1,0,0.2,0,0.2,0.2C146.8,17.1,147,17.5,146.8,17.6z M146.9,18.1
			c0,0.1,0.1,0.1,0.1,0.2c0,0-0.1,0-0.1,0C146.8,18.2,146.8,18.1,146.9,18.1z M146.9,17.7c-0.1,0,0-0.1-0.1-0.2c0.1,0,0.1,0,0.2-0.1
			C147,17.6,147,17.7,146.9,17.7z M146.7,14.3c0,0,0,0.2,0.1,0.2c0,0.1-0.1-0.1-0.2,0C146.6,14.4,146.6,14.3,146.7,14.3z
			 M146.6,16.8c0.2-0.1,0-0.2,0-0.2c0.1,0,0.1,0.1,0.1,0.2c-0.1,0.1-0.3,0.2-0.5,0.3c0.1-0.2,0-0.4,0.1-0.7
			C146.5,16.4,146.4,16.8,146.6,16.8z M146.3,18.1c0,0.1,0,0.1,0,0.2c-0.1,0.1-0.1,0-0.2,0c0-0.1,0,0,0.1,0
			C146.2,18.3,146.1,18.2,146.3,18.1z M146.2,20.3c0.2-0.1,0.1,0.2,0.2,0.3C146.1,20.7,146.2,20.5,146.2,20.3z M146.3,20
			c-0.1-0.1,0.1-0.1,0-0.2c0,0,0.1,0,0.1,0c0,0.1,0,0.2,0,0.2C146.4,20.1,146.3,20,146.3,20z M146.4,15.4c-0.2,0,0,0.2-0.2,0.2
			c0-0.1,0-0.2,0-0.3C146.2,15.3,146.3,15.2,146.4,15.4z M146,14.8c0.1,0-0.1,0.2,0.1,0.2c-0.1,0.2-0.4-0.1-0.5-0.2
			C145.8,14.7,146,14.9,146,14.8z M145.8,20.9c-0.3-0.1,0.1-0.5,0.2-0.2c-0.1,0-0.1,0-0.2,0C145.8,20.7,145.9,20.8,145.8,20.9z
			 M145.6,20.3c-0.2,0,0-0.2,0.1-0.2c0,0,0,0.1,0.1,0.1C145.9,20.4,145.6,20.1,145.6,20.3z M146,20.5c-0.1,0.1-0.1-0.2-0.2-0.1
			C145.8,20.3,146,20.4,146,20.5z M145.7,18.8c0-0.1,0-0.1-0.1-0.2c0.1,0.1,0.2-0.1,0.2,0.1C145.8,18.8,145.8,18.8,145.7,18.8z
			 M145.8,19.3c0,0.1-0.1,0.1-0.1,0.1c-0.1-0.1,0-0.1,0-0.3C145.7,19.2,145.8,19.3,145.8,19.3z M145.7,15.9c0.1,0,0.2,0.2,0,0.2
			C145.6,16,145.7,16,145.7,15.9z M145.9,17.1c0,0.1,0,0.2,0,0.2C145.7,17.3,145.7,17.1,145.9,17.1z M145.9,15.1
			C145.8,15.1,145.9,15.1,145.9,15.1C145.7,15.2,145.8,15,145.9,15.1C145.9,15,145.9,15.1,145.9,15.1
			C146,15.1,145.9,15.1,145.9,15.1z M145.6,14.9c0.1,0,0.2,0.3,0,0.3C145.5,15.1,145.7,15,145.6,14.9z M145.6,18.4
			c0,0.2,0,0.3-0.1,0.4C145.4,18.6,145.5,18.5,145.6,18.4z M145.5,18.1c0,0.1,0,0.1,0,0.2c-0.1,0.1-0.2,0.1-0.2,0
			C145.4,18.2,145.4,18.2,145.5,18.1z M145,17.3c0,0.1,0.1,0,0.2,0.2c-0.1,0,0,0.1-0.1,0.1c0,0.1,0.1,0.1,0.2,0
			c0,0.2-0.2,0.3,0.1,0.3c0,0.1-0.2,0.1-0.1,0.2c0,0-0.3-0.1-0.2,0c-0.1,0-0.1-0.1-0.1-0.1c0.2-0.1,0.2-0.3,0.1-0.5
			c0.1-0.1,0.1,0,0.2,0c0-0.2-0.2,0-0.2-0.1c0,0,0,0.1,0,0.2c-0.1-0.1-0.2-0.1-0.2-0.2c0.1,0,0.1-0.1,0.1-0.2c0.1,0,0.1,0,0.2-0.1
			C145,17.3,145.1,17.3,145,17.3C145.2,17.4,145.1,17.4,145,17.3z M144.7,16.3c0.1,0.1,0.4,0.5,0.2,0.7c0.1,0.1,0.1-0.1,0.2-0.1
			c0.1,0.1,0,0.1,0,0.2C144.7,17.1,144.6,16.6,144.7,16.3z M144.7,19.4c-0.1-0.1,0.1-0.1,0.1-0.2c-0.1,0.1-0.2,0,0-0.2
			c0.1,0,0.1,0.1,0.1,0.2C144.8,19.2,144.8,19.3,144.7,19.4z M145.1,19c0-0.1-0.1-0.1-0.1-0.2c-0.1,0-0.1,0.1-0.1,0.2
			c-0.1,0-0.1,0-0.2-0.1c0.2-0.1,0-0.2,0.1-0.3c0-0.1-0.1,0.2-0.2-0.1c0.1,0,0.1,0,0.2-0.1c0,0.1,0.1,0.2,0,0.3c0,0,0.1,0,0.1,0.1
			c0.1-0.1,0-0.2,0-0.3c0.2,0,0.1,0.5,0.2,0.3c0.1,0,0,0.1,0.1,0.1C145,18.7,145.2,18.9,145.1,19z M145.4,19c0,0.1,0,0.3-0.2,0.4
			c0,0.1,0.1,0,0.1,0.1c0.2,0-0.2,0.1-0.2,0c0,0-0.1,0.1-0.1,0.2C145,19.4,145.4,19.3,145.4,19z M145.2,19.9
			c0.1-0.2,0.3-0.3,0.5-0.2c0,0,0-0.1,0-0.1c0.1,0,0.1,0.2,0.3,0.1C145.9,20,145.5,19.7,145.2,19.9z M145.7,21
			c-0.1,0-0.1-0.1-0.2-0.1L145.7,21c0.1,0.1,0.2,0.1,0.3-0.1c0,0.3,0.6,0.4,0.5,0.7L145.7,21z M146.5,20.7c-0.1,0-0.1-0.3-0.1-0.4
			c0.2,0,0,0.3,0.2,0.2c0,0,0,0.1,0,0.1C146.6,20.7,146.5,20.7,146.5,20.7z M146.6,21c-0.1-0.1,0-0.1,0-0.2c0.1-0.1,0.1,0.1,0.2,0
			C146.8,20.9,146.8,21,146.6,21z M146.9,19.9c-0.1-0.2-0.1,0-0.2,0c0-0.1,0-0.2,0-0.3c0.1,0.2,0.2,0.2,0.4,0
			C147.2,19.9,147,19.7,146.9,19.9z M147.3,19.4c0.2-0.1,0-0.1,0-0.2c0,0,0.1,0,0.1-0.1c0,0.2,0.1,0.1,0.2,0.2
			C147.5,19.4,147.4,19.5,147.3,19.4z M147.7,19.7c0-0.1,0.2-0.2,0.3-0.3C147.9,19.5,147.9,19.6,147.7,19.7z M147.8,19.8
			C147.9,19.8,147.9,19.9,147.8,19.8c0,0.1,0.1,0.1,0.1,0.2c-0.1,0-0.1,0-0.2,0C147.7,20,147.9,19.9,147.8,19.8z M147.9,20.3
			c-0.1-0.1-0.1-0.2,0-0.2c0.1-0.1,0.1,0.2,0.2,0.1C148,20.2,147.9,20.3,147.9,20.3z M147.8,18.8c-0.1,0,0.1,0.1,0,0.1
			c-0.1,0.1,0-0.1-0.1-0.1c0-0.1,0.1-0.1,0.2-0.1c-0.1,0-0.5-0.1-0.2-0.2c0,0-0.1,0.1,0,0.1c0.1,0.1,0.1-0.1,0.2-0.2
			c-0.1,0.2,0.1,0.4,0.3,0.5C148,18.9,147.9,18.8,147.8,18.8z M148,18.7c0-0.2,0.2-0.3,0-0.4C148.3,18.3,148.2,18.7,148,18.7z
			 M148.3,18.8c0.1,0.1,0.1,0.2,0.1,0.3C148.2,19.2,148.2,18.9,148.3,18.8z M148.3,20.8c-0.1-0.1,0-0.1,0-0.2c0,0,0.1,0,0.1,0.1
			c0,0,0-0.1,0-0.2c0.2,0,0,0.1,0.2,0.2C148.5,20.8,148.4,20.8,148.3,20.8z M148.6,20.7c-0.1,0-0.1-0.1-0.1-0.2c0,0,0.1,0,0.1-0.1
			C148.7,20.4,148.6,20.6,148.6,20.7z M148.5,19.6c0.1-0.1,0.2,0,0.3,0C148.9,19.8,148.6,19.7,148.5,19.6z M148.8,19.1
			c-0.1,0-0.1-0.1-0.2-0.2c0.1,0,0.1-0.1,0.1-0.1c0,0.1,0.1,0.1,0.1,0.1C148.8,19,148.7,19.1,148.8,19.1z M148.8,15.8
			c-0.1,0-0.1,0-0.2,0c0-0.1,0.3-0.1,0.1-0.2c0.1,0,0.1-0.1,0.1-0.1C148.8,15.6,148.7,15.7,148.8,15.8
			C148.8,15.9,148.8,15.8,148.8,15.8z M151.7,18.1c0.1,0,0.1,0.1,0.1,0.2c-0.1,0-0.1,0-0.2,0.1C151.6,18.2,151.7,18.2,151.7,18.1z
			 M151.4,18.8c0,0,0,0.1,0,0.2c-0.1,0-0.1-0.2-0.2-0.1C151.2,18.7,151.4,18.9,151.4,18.8z M151.3,18.1c0.1,0.1-0.1,0.1-0.1,0.2
			c-0.1,0-0.1-0.1-0.1-0.1C151.2,18.2,151.2,18.2,151.3,18.1z M150.7,17.3c0-0.1,0.1,0,0.1-0.1c0.1,0.1,0,0.2-0.1,0.3
			C150.7,17.4,150.6,17.4,150.7,17.3C150.8,17.3,150.9,17.3,150.7,17.3z M150.7,18.5c0.1,0,0.1,0.1,0.1,0.1c0.1-0.1,0-0.1-0.1-0.3
			c0.1,0,0.2,0.1,0.3,0c0,0.2,0.1,0.3,0.1,0.5c0-0.2-0.1-0.2-0.1-0.4c-0.1,0.1-0.1,0.1-0.3,0.1C150.6,18.6,150.7,18.5,150.7,18.5z
			 M151.1,17.5c0,0.1-0.3,0-0.2-0.1C151,17.4,151,17.6,151.1,17.5z M151.1,17.1c-0.1-0.1-0.5,0-0.4-0.2c0.1,0,0.1,0.1,0.1,0.1
			c0.1,0,0-0.1,0.2-0.2C151,16.9,151,17,151.1,17.1z M150.9,16.2c0.2,0.2-0.1,0.1-0.3,0.1C150.6,16.1,150.9,16.3,150.9,16.2z
			 M150.7,15.6c0,0.1,0,0.1,0,0.1c-0.1,0-0.2,0-0.2-0.1C150.5,15.5,150.6,15.7,150.7,15.6z M149.6,14.5c0,0.1,0.1,0.3,0.2,0.3
			c0,0.1,0,0.1,0,0.2c0.1,0.1,0.2-0.1,0.2,0.1c-0.1,0-0.2,0-0.3,0c0-0.2,0-0.2-0.1-0.3C149.6,14.8,149.5,14.6,149.6,14.5z
			 M149.7,15.4c0.1,0.1-0.2,0.1-0.1,0.2c-0.1,0-0.1,0-0.1-0.1C149.5,15.3,149.5,15.3,149.7,15.4z M149.4,15.8
			c0.1,0.1-0.1,0.2-0.1,0.3c-0.1-0.1-0.1-0.2-0.2-0.4C149.2,15.7,149.2,15.9,149.4,15.8z M149.3,19.7c0.1-0.1,0.3-0.1,0.4,0.1
			C149.5,19.9,149.4,19.8,149.3,19.7z M149.3,17c0,0.1-0.1,0.1,0,0.2c-0.2,0,0-0.3,0.1-0.5C149.4,16.9,149.3,17,149.3,17
			c0.2,0,0.3,0,0.4,0C149.6,17.1,149.4,17.3,149.3,17z M149.7,15.5c-0.1-0.1,0.1-0.1,0-0.2c0,0,0.1,0,0.1,0c0.2,0,0.1,0.2,0.3,0.2
			c0,0.1-0.2,0.2,0,0.2c0,0,0,0,0,0.1c0,0-0.1,0-0.1,0c0-0.1-0.1-0.2-0.1-0.3C149.8,15.3,149.8,15.5,149.7,15.5z M149.8,18.4
			c0,0,0.1,0,0.1-0.1c0,0,0,0.2,0.1,0.2C150,18.7,149.8,18.5,149.8,18.4z M150.5,16.6c-0.1,0-0.1,0.1-0.1,0.1
			C150.4,16.7,150.3,16.6,150.5,16.6c-0.1-0.1-0.2,0-0.3-0.1c-0.1-0.1,0-0.2-0.1-0.3c0.1,0,0.1-0.1,0.1-0.1
			c-0.1-0.1-0.2-0.2-0.3-0.3c0.1,0,0.2,0.2,0.2,0.1c0.1,0,0.1,0.1,0.2,0.2c0.1,0,0.1-0.1,0.1-0.2c0-0.1,0.2,0.3,0.2,0
			c0.2,0,0,0.2,0,0.2c-0.2-0.1-0.5,0.4-0.1,0.4c0-0.1-0.1-0.1-0.1-0.1c0.1-0.1,0.1-0.2,0.3-0.2c0,0.2,0,0.1,0.1,0.2
			c-0.3,0.1,0.2,0.2-0.1,0.3C150.5,16.7,150.5,16.6,150.5,16.6z M150.6,19.9c0.1-0.1-0.1,0.3,0.1,0.4
			C150.5,20.3,150.5,20,150.6,19.9z M151.1,19.8c0.2-0.1,0,0.2,0,0.2C151,20,151.2,19.9,151.1,19.8z M151.2,20.1
			c0.1-0.1,0.2-0.1,0.2,0C151.3,20.2,151.2,20.2,151.2,20.1z M151.1,19.5c0.1-0.1-0.2-0.3,0-0.4c-0.1,0-0.2,0.2-0.2,0.4
			c-0.1-0.1-0.2-0.2-0.4-0.3c0.2-0.1,0.3,0.2,0.5-0.1c0-0.1-0.1-0.1-0.1-0.1c0.1-0.2,0.2,0.2,0.4,0.1c-0.2,0.2,0.1,0.3,0.2,0.6
			C151.3,19.6,151.3,19.4,151.1,19.5z M151.3,19c0.1,0,0.1,0.1,0.2,0.1C151.4,19.3,151.3,19.1,151.3,19z M151.7,19.5
			c-0.2,0.1-0.1-0.2-0.2-0.2C151.5,19.3,151.8,19.4,151.7,19.5z M151.8,19.4c0-0.1,0.1-0.2-0.1-0.1c-0.1-0.1-0.1-0.2,0-0.2
			c0.2,0.1,0.1,0,0.2-0.1C151.8,19.1,152,19.3,151.8,19.4z"/>
	</g>
	<g>
		<path d="M214.7,15.2c0.1-0.1,0.1-0.1,0.1-0.1c-0.1-0.1-0.3-0.2-0.4-0.3c0,0,0,0,0,0C214.5,15,214.6,15,214.7,15.2z"/>
		<path d="M208.2,16.8C208.2,16.8,208.2,16.7,208.2,16.8C208.2,16.7,208.2,16.7,208.2,16.8C208.2,16.8,208.2,16.8,208.2,16.8z"/>
		<path d="M216,17.1c0,0,0-0.1,0-0.1c0,0-0.1,0-0.1,0C215.8,17.1,215.9,17.1,216,17.1C215.9,17.2,215.9,17.1,216,17.1z"/>
		<path d="M208.3,16.6C208.3,16.6,208.3,16.5,208.3,16.6c-0.1,0-0.1,0-0.1,0C208.3,16.6,208.3,16.6,208.3,16.6z"/>
		<path d="M215.3,16.1c0-0.1-0.1-0.1-0.1-0.2c0,0-0.1,0-0.1,0.1c0.2,0.1-0.2,0.3,0.1,0.3C215.1,16.2,215.2,16.2,215.3,16.1z"/>
		<path d="M215.7,16.7c0,0,0.1,0,0.1-0.1c-0.1-0.2-0.1-0.3-0.2-0.5c-0.1,0-0.2,0-0.3-0.1c0.1,0.1,0,0.2,0,0.2c0.1,0,0.2-0.1,0.2,0
			c0,0.1,0,0.1,0,0.3C215.7,16.5,215.5,16.7,215.7,16.7c0-0.1-0.1-0.2,0-0.2C215.8,16.6,215.6,16.6,215.7,16.7z M215.6,16.5
			c0-0.1,0-0.1,0-0.2C215.7,16.3,215.7,16.5,215.6,16.5z"/>
		<path d="M215.4,17.2c0.1,0.1,0.1,0.2,0.1,0.2c0-0.1,0,0,0.1,0C215.5,17.2,215.5,17.1,215.4,17.2z"/>
		<path d="M216.1,18.1C216.1,18.1,216.1,18.1,216.1,18.1C216.1,18.1,216.1,18.1,216.1,18.1z"/>
		<path d="M216,18.8C216,18.8,216,18.8,216,18.8c0.1-0.1,0.1-0.1,0.1-0.2c-0.1,0-0.2,0-0.2-0.1c0.1,0,0.2,0,0.2,0c0-0.1,0-0.2,0-0.3
			c-0.1,0-0.1-0.1-0.2,0c-0.1,0.1,0.1,0.1,0,0.2c-0.1,0-0.1-0.3-0.2-0.3c0.1,0,0.1-0.2,0-0.2c0.1,0.1-0.1,0.1-0.2,0.2
			c-0.1,0,0-0.1,0-0.2c0.1,0,0.2,0.1,0.1-0.1c-0.1,0-0.1,0.1-0.1-0.1c0-0.1,0.3-0.1,0.2-0.2c0,0-0.1,0-0.1,0c-0.1,0-0.2-0.1-0.2,0
			c-0.1,0-0.2-0.2-0.3-0.1c0-0.1,0-0.3-0.1-0.2c0.1-0.2,0-0.3-0.1-0.4c0.3-0.1,0-0.4,0.1-0.7c-0.2,0,0,0.1-0.2,0.2
			c0-0.1-0.1-0.3-0.3-0.2c0-0.1,0-0.1-0.1-0.2c0.2,0,0.2-0.4,0.2-0.1c0.2-0.1-0.1-0.2,0.1-0.2c0,0.1,0.1,0.1,0.2,0.3
			c-0.1,0-0.1,0-0.1,0.1c0.2-0.1,0.1-0.3,0.2-0.3c-0.1,0.1,0,0.1,0.2,0c-0.1,0-0.2-0.2-0.3-0.2c0-0.1,0.1-0.1,0.2,0
			c0.1-0.1-0.1-0.1-0.1-0.2c0,0,0,0,0,0c0,0.1-0.1-0.1-0.2,0c-0.1,0-0.2,0.2,0,0.2c-0.1,0.2-0.1-0.2-0.4,0c-0.1-0.1,0-0.2,0-0.3
			c0.1,0,0.2-0.1,0.1-0.2c-0.1,0.1,0,0.2-0.2,0.2c0-0.2-0.1-0.1-0.3-0.3c0.3,0,0.2-0.3,0.1-0.4c0,0-0.1,0.1,0,0.2
			c-0.1,0-0.1-0.1-0.2-0.2c0.1,0,0.1,0,0.1-0.1c-0.2-0.1-0.5-0.2-0.7-0.3c-0.1,0.1-0.1,0.3,0.1,0.4c-0.1,0-0.2,0-0.3,0
			c0-0.3-0.2,0-0.2-0.2c0.2,0.1,0.2-0.1,0.1-0.3c-0.1,0-0.2,0-0.2,0c0,0.1-0.1,0.1,0,0.2c-0.2,0-0.2-0.1-0.2-0.2c-0.1,0-0.2,0-0.3,0
			c0,0.1,0,0.2,0,0.3c0,0.1,0.2,0,0.2,0.1c0,0.1-0.2,0-0.3,0c-0.1-0.1-0.2-0.3,0-0.4l0,0c0,0,0,0-0.1,0c0,0,0,0-0.1,0
			c0,0,0,0.1,0,0.1c0,0-0.1-0.1-0.1-0.1c-1.4,0-2.6,0.8-3.3,1.9c0,0,0.1,0.1,0.2,0c0,0.1,0,0.2,0,0.2c-0.2,0-0.2,0.1-0.3,0.1
			c0,0,0,0,0,0c0,0,0,0.1,0,0.1c0.1,0.2,0.1,0.4,0,0.6c-0.1,0-0.1-0.1-0.2,0c0,0,0,0,0,0c-0.1,0.2-0.1,0.3-0.1,0.5
			c0.1,0,0.1,0,0.2,0c-0.1,0.1,0,0.2-0.1,0.2c0,0,0-0.1-0.1-0.1c0,0.1,0,0.1,0,0.2c0.1,0,0.1,0,0.2,0c0,0.1-0.1,0.1-0.2,0.2
			c0,0.1,0,0.2,0,0.2c0,2.2,1.8,4.1,4.1,4.1c1.9,0,3.5-1.3,4-3.1C215.9,18.9,215.9,18.8,216,18.8z M212.1,20.2
			C212.1,20.2,212.2,20.2,212.1,20.2c0.1,0.1,0.2,0,0.3,0.2c-0.1,0-0.2,0.1-0.2,0.1C212,20.3,212.2,20.3,212.1,20.2z M212,14.9
			c0.1,0,0.2,0,0.2,0c-0.1,0.1-0.1,0.1-0.2,0.2C212,15,212.1,15,212,14.9z M211.8,18c-0.2,0-0.1-0.1-0.1-0.2c0,0,0.1,0,0.1-0.1
			C211.8,17.9,211.7,17.9,211.8,18z M211.8,14.8c-0.2,0,0.1-0.4-0.2-0.3C211.7,14.2,211.8,14.6,211.8,14.8z M211.7,18.4
			c-0.1,0-0.1,0-0.2,0c0-0.1-0.1-0.1-0.1-0.2c-0.1,0.1,0,0.1-0.2,0.1c0.1-0.2,0.2-0.1,0.4-0.3C211.8,18.2,211.6,18.2,211.7,18.4z
			 M211.6,17.9c-0.1,0.1-0.2-0.1-0.3-0.1c-0.1,0,0.1,0.1,0.1,0.1c0,0,0,0,0,0.1c0,0,0,0,0,0.1c-0.2-0.2-0.2-0.3-0.4-0.3
			c0.1,0,0.1,0,0.1-0.1C211.3,17.9,211.3,17.5,211.6,17.9z M211.5,17.4c0,0.1-0.2-0.1-0.3,0.1c0-0.1,0-0.1-0.1-0.2
			C211.2,17.3,211.3,17.4,211.5,17.4z M210.6,16.6c0,0,0.1,0,0.1-0.1c0.1,0.2,0.2,0.1,0.3,0.4c-0.1,0.1-0.2,0.1-0.1,0.3
			c-0.1,0-0.1-0.2,0-0.3c-0.1-0.1-0.1,0.1-0.2,0.1c-0.1-0.1,0.1-0.1,0-0.2c0,0-0.1,0-0.1,0C210.7,16.7,210.6,16.7,210.6,16.6z
			 M210.6,17.6c-0.1-0.2-0.1-0.1-0.2,0c0-0.2,0.2-0.3,0.2-0.5c0.1,0,0.2,0,0.2,0.2C210.6,17.1,210.8,17.5,210.6,17.6z M210.7,18.1
			c0,0.1,0.1,0.1,0.1,0.2c0,0-0.1,0-0.1,0C210.6,18.2,210.6,18.1,210.7,18.1z M210.7,17.7c-0.1,0,0-0.1-0.1-0.2c0.1,0,0.1,0,0.2-0.1
			C210.8,17.6,210.8,17.7,210.7,17.7z M210.5,14.3c0,0,0,0.2,0.1,0.2c0,0.1-0.1-0.1-0.2,0C210.4,14.4,210.4,14.3,210.5,14.3z
			 M210.4,16.8c0.2-0.1,0-0.2,0-0.2c0.1,0,0.1,0.1,0.1,0.2c-0.1,0.1-0.3,0.2-0.5,0.3c0.1-0.2,0-0.4,0.1-0.7
			C210.3,16.4,210.2,16.8,210.4,16.8z M210.1,18.1c0,0.1,0,0.1,0,0.2c-0.1,0.1-0.1,0-0.2,0c0-0.1,0,0,0.1,0
			C210.1,18.3,209.9,18.2,210.1,18.1z M210,20.3c0.2-0.1,0.1,0.2,0.2,0.3C209.9,20.7,210,20.5,210,20.3z M210.1,20
			c-0.1-0.1,0.1-0.1,0-0.2c0,0,0.1,0,0.1,0c0,0.1,0,0.2,0,0.2C210.2,20.1,210.2,20,210.1,20z M210.2,15.4c-0.2,0,0,0.2-0.2,0.2
			c0-0.1,0-0.2,0-0.3C210,15.3,210.2,15.2,210.2,15.4z M209.9,14.8c0.1,0-0.1,0.2,0.1,0.2c-0.1,0.2-0.4-0.1-0.5-0.2
			C209.7,14.7,209.8,14.9,209.9,14.8z M209.6,20.9c-0.3-0.1,0.1-0.5,0.2-0.2c-0.1,0-0.1,0-0.2,0C209.6,20.7,209.7,20.8,209.6,20.9z
			 M209.4,20.3c-0.2,0,0-0.2,0.1-0.2c0,0,0,0.1,0.1,0.1C209.7,20.4,209.4,20.1,209.4,20.3z M209.8,20.5c-0.1,0.1-0.1-0.2-0.2-0.1
			C209.6,20.3,209.8,20.4,209.8,20.5z M209.6,18.8c0-0.1,0-0.1-0.1-0.2c0.1,0.1,0.2-0.1,0.2,0.1C209.7,18.8,209.6,18.8,209.6,18.8z
			 M209.6,19.3c0,0.1-0.1,0.1-0.1,0.1c-0.1-0.1,0-0.1,0-0.3C209.6,19.2,209.6,19.3,209.6,19.3z M209.5,15.9c0.1,0,0.2,0.2,0,0.2
			C209.5,16,209.6,16,209.5,15.9z M209.7,17.1c0,0.1,0,0.2,0,0.2C209.6,17.3,209.5,17.1,209.7,17.1z M209.7,15.1
			C209.6,15.1,209.7,15.1,209.7,15.1C209.5,15.2,209.6,15,209.7,15.1C209.7,15,209.7,15.1,209.7,15.1
			C209.8,15.1,209.7,15.1,209.7,15.1z M209.4,14.9c0.1,0,0.2,0.3,0,0.3C209.3,15.1,209.5,15,209.4,14.9z M209.4,18.4
			c0,0.2,0,0.3-0.1,0.4C209.3,18.6,209.3,18.5,209.4,18.4z M209.4,18.1c0,0.1,0,0.1,0,0.2c-0.1,0.1-0.2,0.1-0.2,0
			C209.2,18.2,209.3,18.2,209.4,18.1z M208.9,17.3c0,0.1,0.1,0,0.2,0.2c-0.1,0,0,0.1-0.1,0.1c0,0.1,0.1,0.1,0.2,0
			c0,0.2-0.2,0.3,0.1,0.3c0,0.1-0.2,0.1-0.1,0.2c0,0-0.3-0.1-0.2,0c-0.1,0-0.1-0.1-0.1-0.1c0.2-0.1,0.1-0.3,0.1-0.5
			c0.1-0.1,0.1,0,0.2,0c0-0.2-0.2,0-0.2-0.1c0,0,0,0.1,0,0.2c-0.1-0.1-0.2-0.1-0.2-0.2c0.1,0,0.1-0.1,0.1-0.2c0.1,0,0.1,0,0.2-0.1
			C208.8,17.3,208.9,17.3,208.9,17.3C209.1,17.4,208.9,17.4,208.9,17.3z M208.5,16.3c0.1,0.1,0.4,0.5,0.2,0.7
			c0.1,0.1,0.1-0.1,0.2-0.1c0.1,0.1,0,0.1,0,0.2C208.5,17.1,208.4,16.6,208.5,16.3z M208.6,19.4c-0.1-0.1,0.1-0.1,0.1-0.2
			c-0.1,0.1-0.2,0,0-0.2c0.1,0,0.1,0.1,0.1,0.2C208.6,19.2,208.7,19.3,208.6,19.4z M208.9,19c0-0.1-0.1-0.1-0.1-0.2
			c-0.1,0-0.1,0.1-0.1,0.2c-0.1,0-0.1,0-0.2-0.1c0.2-0.1,0-0.2,0.1-0.3c0-0.1-0.1,0.2-0.2-0.1c0.1,0,0.1,0,0.2-0.1
			c0,0.1,0.1,0.2,0,0.3c0,0,0.1,0,0.1,0.1c0.1-0.1,0-0.2,0-0.3c0.2,0,0.1,0.5,0.2,0.3c0.1,0,0,0.1,0,0.1
			C208.9,18.7,209,18.9,208.9,19z M209.3,19c0,0.1,0,0.3-0.2,0.4c0,0.1,0.1,0,0.1,0.1c0.2,0-0.2,0.1-0.2,0c0,0-0.1,0.1-0.1,0.2
			C208.9,19.4,209.2,19.3,209.3,19z M209.1,19.9c0.1-0.2,0.3-0.3,0.5-0.2c0,0,0-0.1,0-0.1c0.1,0,0.1,0.2,0.3,0.1
			C209.7,20,209.3,19.7,209.1,19.9z M209.5,21c-0.1,0-0.1-0.1-0.2-0.1L209.5,21c0.1,0.1,0.2,0.1,0.3-0.1c0,0.3,0.6,0.4,0.5,0.7
			L209.5,21z M210.3,20.7c-0.1,0-0.1-0.3-0.1-0.4c0.2,0,0,0.3,0.2,0.2c0,0,0,0.1,0,0.1C210.4,20.7,210.3,20.7,210.3,20.7z M210.5,21
			c-0.1-0.1,0-0.1,0-0.2c0.1-0.1,0.1,0.1,0.2,0C210.6,20.9,210.6,21,210.5,21z M210.7,19.9c-0.1-0.2-0.1,0-0.2,0c0-0.1,0-0.2,0-0.3
			c0.2,0.2,0.3,0.2,0.4,0C211,19.9,210.8,19.7,210.7,19.9z M211.2,19.4c0.2-0.1,0-0.1,0-0.2c0,0,0.1,0,0.1-0.1
			c0,0.2,0.1,0.1,0.2,0.2C211.3,19.4,211.2,19.5,211.2,19.4z M211.5,19.7c0-0.1,0.2-0.2,0.3-0.3C211.7,19.5,211.7,19.6,211.5,19.7z
			 M211.6,19.8C211.7,19.8,211.7,19.9,211.6,19.8c0,0.1,0.1,0.1,0.1,0.2c-0.1,0-0.1,0-0.2,0C211.5,20,211.7,19.9,211.6,19.8z
			 M211.7,20.3c-0.1-0.1-0.1-0.2,0-0.2c0.1-0.1,0.1,0.2,0.2,0.1C211.8,20.2,211.7,20.3,211.7,20.3z M211.7,18.8
			c-0.1,0,0.1,0.1,0,0.1c-0.1,0.1,0-0.1-0.1-0.1c0-0.1,0.1-0.1,0.2-0.1c-0.1,0-0.5-0.1-0.2-0.2c0,0-0.1,0.1,0,0.1
			c0.1,0.1,0.1-0.1,0.2-0.2c-0.1,0.2,0.1,0.4,0.3,0.5C211.8,18.9,211.8,18.8,211.7,18.8z M211.8,18.7c0-0.2,0.2-0.3,0-0.4
			C212.1,18.3,212,18.7,211.8,18.7z M212.1,18.8c0.1,0.1,0.1,0.2,0.1,0.3C212,19.2,212,18.9,212.1,18.8z M212.1,20.8
			c-0.1-0.1,0-0.1,0-0.2c0,0,0.1,0,0.1,0.1c0,0,0-0.1,0-0.2c0.2,0,0,0.1,0.2,0.2C212.3,20.8,212.2,20.8,212.1,20.8z M212.4,20.7
			c-0.1,0-0.1-0.1-0.1-0.2c0,0,0.1,0,0.1-0.1C212.5,20.4,212.4,20.6,212.4,20.7z M212.4,19.6c0.1-0.1,0.2,0,0.3,0
			C212.7,19.8,212.4,19.7,212.4,19.6z M212.6,19.1c-0.1,0-0.1-0.1-0.2-0.2c0.1,0,0.1-0.1,0.1-0.1c0,0.1,0.1,0.1,0.1,0.1
			C212.6,19,212.6,19.1,212.6,19.1z M212.7,15.8c-0.1,0-0.1,0-0.2,0c0-0.1,0.3-0.1,0.1-0.2c0.1,0,0.1-0.1,0.1-0.1
			C212.6,15.6,212.5,15.7,212.7,15.8C212.6,15.9,212.6,15.8,212.7,15.8z M215.5,18.1c0.1,0,0.1,0.1,0.1,0.2c-0.1,0-0.1,0-0.2,0.1
			C215.4,18.2,215.6,18.2,215.5,18.1z M215.3,18.8c0,0,0,0.1,0,0.2c-0.1,0-0.1-0.2-0.2-0.1C215.1,18.7,215.2,18.9,215.3,18.8z
			 M215.1,18.1c0.1,0.1-0.1,0.1-0.1,0.2c-0.1,0-0.1-0.1-0.1-0.1C215,18.2,215,18.2,215.1,18.1z M214.5,17.3c0-0.1,0.1,0,0.1-0.1
			c0.1,0.1,0,0.2-0.1,0.3C214.5,17.4,214.5,17.4,214.5,17.3C214.6,17.3,214.7,17.3,214.5,17.3z M214.5,18.5c0.1,0,0.1,0.1,0.1,0.1
			c0.1-0.1,0-0.1-0.1-0.3c0.2,0,0.2,0.1,0.3,0c0,0.2,0.1,0.3,0.1,0.5c0-0.2-0.1-0.2-0.1-0.4c-0.1,0.1-0.1,0.1-0.3,0.1
			C214.4,18.6,214.6,18.5,214.5,18.5z M214.9,17.5c0,0.1-0.3,0-0.2-0.1C214.8,17.4,214.9,17.6,214.9,17.5z M214.9,17.1
			c-0.1-0.1-0.5,0-0.4-0.2c0.1,0,0.1,0.1,0.1,0.1c0.1,0,0-0.1,0.2-0.2C214.8,16.9,214.9,17,214.9,17.1z M214.7,16.2
			c0.2,0.2-0.1,0.1-0.3,0.1C214.4,16.1,214.7,16.3,214.7,16.2z M214.6,15.6c0,0.1,0,0.1,0,0.1c-0.1,0-0.2,0-0.2-0.1
			C214.4,15.5,214.5,15.7,214.6,15.6z M213.4,14.5c0,0.1,0.1,0.3,0.2,0.3c0,0.1,0,0.1,0,0.2c0.1,0.1,0.2-0.1,0.2,0.1
			c-0.1,0-0.2,0-0.3,0c0-0.2,0-0.2-0.1-0.3C213.4,14.8,213.3,14.6,213.4,14.5z M213.5,15.4c0.1,0.1-0.2,0.1-0.1,0.2
			c-0.1,0-0.1,0-0.1-0.1C213.4,15.3,213.3,15.3,213.5,15.4z M213.2,15.8c0.1,0.1-0.1,0.2-0.1,0.3c-0.1-0.1-0.1-0.2-0.2-0.4
			C213.1,15.7,213.1,15.9,213.2,15.8z M213.1,19.7c0.1-0.1,0.3-0.1,0.4,0.1C213.3,19.9,213.2,19.8,213.1,19.7z M213.1,17
			c0,0.1-0.1,0.1,0,0.2c-0.2,0,0-0.3,0.1-0.5C213.3,16.9,213.1,17,213.1,17c0.2,0,0.3,0,0.4,0C213.4,17.1,213.2,17.3,213.1,17z
			 M213.5,15.5c-0.1-0.1,0.1-0.1,0-0.2c0,0,0.1,0,0.1,0c0.2,0,0.1,0.2,0.3,0.2c0,0.1-0.2,0.2,0,0.2c0,0,0,0,0,0.1c0,0-0.1,0-0.1,0
			c0-0.1-0.1-0.2-0.1-0.3C213.7,15.3,213.6,15.5,213.5,15.5z M213.6,18.4c0,0,0.1,0,0.1-0.1c0,0,0,0.2,0.1,0.2
			C213.8,18.7,213.6,18.5,213.6,18.4z M214.3,16.6c-0.1,0-0.1,0.1-0.1,0.1C214.2,16.7,214.1,16.6,214.3,16.6c-0.1-0.1-0.2,0-0.3-0.1
			c-0.1-0.1,0-0.2-0.1-0.3c0.1,0,0.1-0.1,0.1-0.1c-0.1-0.1-0.2-0.2-0.3-0.3c0.1,0,0.2,0.2,0.2,0.1c0.1,0,0.1,0.1,0.2,0.2
			c0.1,0,0.1-0.1,0.1-0.2c0-0.1,0.2,0.3,0.2,0c0.2,0,0,0.2,0,0.2c-0.2-0.1-0.5,0.4-0.1,0.4c0-0.1-0.1-0.1-0.1-0.1
			c0.1-0.1,0.1-0.2,0.3-0.2c0,0.2,0,0.1,0.1,0.2c-0.3,0.1,0.2,0.2-0.1,0.3C214.3,16.7,214.3,16.6,214.3,16.6z M214.5,19.9
			c0.1-0.1-0.1,0.3,0.1,0.4C214.4,20.3,214.4,20,214.5,19.9z M215,19.8c0.2-0.1,0,0.2,0,0.2C214.9,20,215.1,19.9,215,19.8z
			 M215,20.1c0.1-0.1,0.2-0.1,0.2,0C215.1,20.2,215,20.2,215,20.1z M215,19.5c0.1-0.1-0.2-0.3,0-0.4c-0.1,0-0.2,0.2-0.2,0.4
			c-0.1-0.1-0.2-0.2-0.4-0.3c0.2-0.1,0.3,0.2,0.5-0.1c0-0.1-0.1-0.1-0.1-0.1c0.1-0.2,0.2,0.2,0.4,0.1c-0.2,0.2,0.1,0.3,0.2,0.6
			C215.1,19.6,215.1,19.4,215,19.5z M215.1,19c0.1,0,0.1,0.1,0.2,0.1C215.3,19.3,215.1,19.1,215.1,19z M215.5,19.5
			c-0.2,0.1-0.1-0.2-0.2-0.2C215.4,19.3,215.6,19.4,215.5,19.5z M215.6,19.4c0-0.1,0.1-0.2-0.1-0.1c-0.1-0.1-0.1-0.2,0-0.2
			c0.2,0.1,0.1,0,0.2-0.1C215.6,19.1,215.8,19.3,215.6,19.4z"/>
	</g>
</g>
<g>
	<path fill="#FFFFFF" d="M187.4,13.8c0,1,0,1.6,0,1.8c0,0.1-0.2,0.2-0.5,0.3c0,0,0,0,0,0c-0.6,0-0.9,0-0.9,0h-0.4
		c0,0-0.2-0.1-0.5-0.1c-0.1,0.1-0.1,0.1-0.2,0.1c-0.2,0-0.4-0.3-0.4-0.9c0,0,0,0,0,0c0-0.3-0.1-0.6-0.2-0.8
		c-0.1-0.1-0.2-0.3-0.3-0.6s-0.2-0.6-0.4-0.7c0,0-0.1,0-0.1,0c0,0-0.1,0-0.2,0.1c-0.1,0-0.1,0.1-0.2,0.1l-0.2-0.2
		c0,0.1-0.1,0.2-0.2,0.3h-0.1c0-0.1-0.1-0.1-0.1-0.1s-0.1,0.1-0.2,0.2c-0.1,0.1-0.1,0.2-0.1,0.2v0.1c-0.1,0.1-0.2,0.3-0.2,0.6
		c0,0.1-0.1,0.2-0.2,0.3c0,0.1,0,0.2-0.1,0.3c0,0.3,0,0.4,0.1,0.5c0,0.3,0,0.5,0,0.5c0,0.2,0,0.3,0,0.4c0,0.1,0,0.3,0,0.5
		c0,0,0,0.2-0.1,0.5c0,0-0.1,0.5,0,1.2c0,0,0,0.2,0.1,0.3c0,0.2,0,0.3,0,0.3c0,0.1,0,0.3,0,0.5l0,0V20c0,0.2,0,0.4,0,0.6
		c-0.1,0-0.1,0.2-0.1,0.6c0,0.4,0,0.6,0,0.6c0,0.2-0.1,0.3-0.1,0.3v0.3c0,0,0.1,0.1,0.1,0.2c0,0.3,0,0.4,0,0.6c0,0.6,0,1.1,0,1.4
		c0,0,0,0.1,0.1,0.2v0.5c0,0.2,0,0.3,0,0.4c0,0.2,0.1,0.5,0.3,0.9c0,0,0.1,0.1,0.1,0.2c0.1,0.3,0.2,0.4,0.3,0.4
		c0.1-0.1,0.1-0.1,0.2-0.1c0.1,0,0.2,0,0.2,0.1h0.2c0.1,0,0.2-0.1,0.4-0.2c0.1,0,0.1,0,0.2,0c0.1,0.1,0.2,0.3,0.3,0.6
		c0,0.2,0.1,0.5,0.1,0.7c0,0.2,0,0.5-0.1,0.7l-0.1,0.1c-0.1,0.3-0.3,0.4-0.7,0.3c0,0-0.2-0.1-0.5,0c-0.1,0.1-0.3,0.1-0.4,0.1
		c-0.1,0-0.2,0-0.3-0.1c-0.1,0-0.2,0-0.4,0.1l-0.1,0c-0.5,0-0.8,0-0.9-0.1c-0.1,0-0.2,0-0.4,0H180c0,0-0.1,0-0.1,0
		c-0.2,0-0.4,0.1-0.5,0.2h-0.1c0,0-0.1-0.1-0.2-0.1l-0.3-0.1h-0.5c0,0-0.2,0-0.4-0.1c-0.1,0.1-0.2,0.1-0.3,0.1c-0.1,0-0.2,0-0.3-0.1
		c0,0-0.1,0-0.1-0.1c-0.1,0-0.2,0.1-0.3,0.1c-0.4,0.1-0.6,0-0.7-0.3v-1.2c0-0.6,0.2-0.9,0.5-0.9c0,0,0.1,0,0.2,0.1
		c0,0,0.1-0.1,0.2-0.1c0.1,0,0.1,0,0.2,0.1c0.1,0.1,0.1,0.1,0.2,0.1c0.1,0,0.1,0,0.2-0.1c0.3,0,0.5,0,0.6-0.1c0-0.5,0.1-1.4,0.1-2.4
		c0,0,0-0.1,0.1-0.3c0-0.2,0-0.3-0.1-0.3c0-0.4,0-0.9,0-1.3v-3c0,0,0-0.1,0-0.3c0,0,0,0,0,0v-0.7c0,0,0,0,0,0v-0.4c0,0,0,0,0,0v-0.3
		l0,0v-0.9l0,0c0-0.2,0-0.4,0-0.4v-0.8h0v-0.3l0,0l0-1.9c0-0.2-0.3-0.4-0.7-0.4c-0.1-0.1-0.2-0.2-0.3-0.2c-0.2,0-0.4,0.1-0.6,0.3
		c-0.1,0.1-0.2,0.3-0.3,0.6c-0.1,0.1-0.1,0.2-0.2,0.4c0,0.1,0,0.3,0,0.6c0,0.2,0,0.5,0,0.6c0,0.2-0.1,0.4-0.2,0.5
		c-0.1,0-0.2,0-0.4,0c0,0-0.1,0-0.1,0c-0.3,0-0.4,0-0.3,0H175c0,0-0.2-0.1-0.3-0.1c-0.2,0-0.3,0-0.3,0.1c-0.1,0-0.3,0-0.4,0.1
		c-0.1,0-0.3-0.1-0.5-0.3c-0.1-0.2-0.1-0.7-0.1-1.6c0-0.5,0-0.9,0-1.3c0-0.6,0-1.1,0-1.5c0.1-0.2,0.2-0.4,0.3-0.4
		c0.1-0.1,0.2-0.1,0.4-0.1c0.3,0,0.6,0,0.9,0.1v0c0.1-0.1,0.3-0.1,0.5-0.1c0.1,0,0.1,0,0.2,0c0,0,0.3,0,0.7-0.1
		c0.2-0.1,0.3-0.1,0.4-0.1c0.1,0.1,0.2,0.2,0.4,0.3c0.1,0,0.4-0.1,0.6-0.2c0,0,0.1-0.1,0.2-0.1c0.1,0,0.2,0.1,0.4,0.2
		c0.1,0,0.2,0.1,0.2,0.1c0,0,0.1,0,0.3,0h0.3v0h0.4c0.1,0,0.4-0.1,0.6-0.1h0.2l0.2,0.1c0,0,0.1,0,0.2,0.1c0.1,0,0.2-0.1,0.3-0.2
		c0.2,0,0.4,0,0.5,0.1h0.1c0.1-0.1,0.2-0.1,0.3-0.1c0.1,0,0.2,0.1,0.3,0.2c0,0,0.1,0,0.1,0c0.1-0.1,0.2-0.2,0.4-0.1
		c0.2,0,0.3,0,0.3,0c0.2,0,0.3,0,0.4,0.1c0.2,0,0.6,0,1.2-0.1c0,0,0.1,0,0.1,0c0.1,0,0.3,0,0.5,0.1c0.2,0,0.4,0.1,0.5,0.1
		c0.3,0,0.5,0,0.6,0c0.1-0.1,0.2-0.1,0.3-0.1c0.1,0,0.2,0,0.4,0.1c0.1,0.2,0.1,0.4,0.1,0.6c0,0.2,0,0.5,0,0.7c0,0.3,0,0.5,0,0.6
		C187.4,13.3,187.4,13.6,187.4,13.8z M174.3,12.3c0,0-0.1,0-0.1-0.1l0-0.1c-0.1,0-0.1,0-0.1-0.1v0.1c0,0.1,0,0.2,0,0.4
		c0,0.2,0,0.3,0,0.3h0.1C174.3,12.6,174.3,12.4,174.3,12.3z M174.5,13.6h-0.1l0,0.1c0,0,0,0,0,0.1C174.4,13.7,174.4,13.7,174.5,13.6
		z M174.6,15.1c0.1,0,0-0.2-0.1-0.5c-0.1,0-0.1,0-0.1,0C174.4,14.7,174.4,14.9,174.6,15.1z M174.6,12.3c-0.1,0-0.1,0-0.1,0
		c0,0.1,0,0.1,0,0.1C174.6,12.4,174.6,12.3,174.6,12.3z M175,12c0-0.1,0-0.1-0.1-0.2h-0.1c0,0,0,0.1,0,0.2C174.9,12.1,175,12,175,12
		z M175,11.6L175,11.6c0-0.1,0-0.1-0.1-0.1L175,11.6L175,11.6z M175.4,14.3c0,0,0-0.1-0.1-0.2c0,0-0.1,0-0.2,0.1v0.1h0.1
		c0,0,0,0,0,0.1h0v0h0.1C175.4,14.4,175.4,14.3,175.4,14.3z M175.4,15c0-0.2,0-0.3,0-0.4h-0.1C175.3,14.8,175.3,14.9,175.4,15
		C175.4,15,175.4,15,175.4,15z M175.6,12.5c-0.1-0.1-0.1-0.2-0.1-0.2l-0.1,0c0,0.1,0,0.1,0,0.1h0l0,0.1
		C175.6,12.5,175.6,12.5,175.6,12.5z M175.6,12.5L175.6,12.5L175.6,12.5L175.6,12.5z M175.7,13.5v-0.2h0
		C175.6,13.4,175.6,13.5,175.7,13.5L175.7,13.5z M176.4,11.5h-0.2l-0.1,0.3l0.1,0.1C176.4,12,176.4,11.8,176.4,11.5z M176.9,12.3
		c0-0.1,0-0.2-0.1-0.3c-0.1,0-0.1,0-0.1,0.1c0,0,0,0.1-0.1,0.1c0,0.1,0,0.2,0.1,0.2C176.8,12.3,176.9,12.3,176.9,12.3z M176.9,11.6
		c0-0.1,0-0.2-0.1-0.2l-0.1,0.1c0,0.1,0,0.1,0,0.2L176.9,11.6z M178.2,27.8c-0.1-0.1-0.3-0.1-0.3-0.1c-0.1-0.2-0.1-0.3-0.2-0.3
		c0,0-0.1,0-0.1,0.1v0.3l0.1,0.1l0.1,0.2c-0.2,0.2-0.3,0.2-0.3,0.3l-0.1-0.3c0-0.1-0.1-0.2-0.2-0.2l-0.2,0.2c-0.1,0.2,0,0.4,0.1,0.4
		c0.1,0.1,0.2,0.2,0.3,0.2c0.2,0,0.3-0.1,0.3-0.3c0.1,0,0.1-0.1,0.2-0.1c0.1-0.1,0.2-0.1,0.3-0.1C178.2,28.1,178.2,28,178.2,27.8z
		 M177.5,12c0,0-0.1-0.1-0.2-0.1l0,0.2C177.4,12,177.5,12,177.5,12z M177.9,11.5L177.9,11.5c0-0.1-0.1-0.1-0.1-0.1
		c-0.1,0-0.1,0.1-0.2,0.2v0C177.8,11.6,177.9,11.6,177.9,11.5z M178.1,12.2C178.1,12.2,178.1,12.2,178.1,12.2l-0.2,0
		c0,0.1,0,0.1,0,0.2C178,12.3,178.1,12.2,178.1,12.2z M178.6,27.5L178.6,27.5l-0.1-0.1v0h-0.1v0.1C178.5,27.6,178.5,27.6,178.6,27.5
		z M178.9,28.5C178.9,28.5,178.9,28.4,178.9,28.5c-0.1,0-0.2,0-0.3,0c0,0.1,0,0.1,0,0.2C178.8,28.7,178.9,28.6,178.9,28.5z
		 M179.1,11.5L179.1,11.5C179,11.5,179,11.5,179.1,11.5c-0.2,0-0.2,0-0.3,0c-0.1,0.2-0.1,0.3,0,0.4h0.1c0,0,0,0,0-0.1
		c0-0.1,0.1-0.1,0.1-0.1L179.1,11.5z M178.9,27.3L178.9,27.3c-0.1,0-0.1,0-0.1,0v0.1C178.8,27.3,178.8,27.3,178.9,27.3L178.9,27.3z
		 M179.2,16.1c0.1-0.1,0.1-0.2,0.1-0.2c0-0.1-0.1-0.2-0.2-0.3H179c0,0.3,0,0.5,0.1,0.6C179.1,16.1,179.1,16.1,179.2,16.1z
		 M179.3,20.1c0,0,0-0.1,0-0.1c0-0.2,0-0.4-0.1-0.4c-0.1,0.1-0.2,0.1-0.2,0.2l0,1.1c0,0,0,0,0,0.1C179.2,20.9,179.3,20.6,179.3,20.1
		z M179.4,23.5c0-0.2,0.1-0.3,0.1-0.5c0-0.2,0-0.3-0.1-0.3h-0.1c-0.2,0.5-0.3,0.9-0.3,1c0,0.1,0,0.2,0.1,0.3
		C179.2,23.8,179.3,23.7,179.4,23.5z M179.2,26.7c-0.1,0-0.2,0.1-0.2,0.4h0.1c0.1-0.1,0.1-0.1,0.1-0.2S179.2,26.8,179.2,26.7z
		 M179.4,25.5L179.4,25.5L179.4,25.5c-0.2-0.1-0.3-0.1-0.3,0c-0.1,0.4-0.1,0.6,0,0.6c0.1,0,0.1-0.1,0.2-0.3
		C179.3,25.6,179.4,25.5,179.4,25.5z M179.2,14v-0.3l-0.1,0c0,0.2,0,0.4,0,0.4h0.1C179.2,14.1,179.2,14,179.2,14z M179.3,21.8
		c-0.1,0-0.2,0-0.2,0c0,0.1,0,0.2,0,0.2C179.2,22,179.2,22,179.3,21.8z M179.7,28.5c-0.1-0.4-0.3-0.5-0.5-0.5c0,0-0.1,0.2-0.1,0.4
		l0.1,0.1c0.1,0.2,0.1,0.3,0.2,0.3l0.1,0.1h0.1C179.7,28.6,179.7,28.5,179.7,28.5z M179.7,16.6c-0.1-0.2-0.2-0.3-0.2-0.4
		c0,0.2,0,0.4,0,0.5c-0.1,0.1-0.1,0.2-0.1,0.4c0,0.2,0,0.4,0,0.6c0,0,0.1,0,0.1,0v-0.1c0.1-0.3,0.1-0.6,0.1-0.9h0.1
		C179.7,16.7,179.7,16.6,179.7,16.6z M179.9,25c-0.1,0-0.1,0-0.2,0l0,0v0.2h0.2C179.9,25.1,179.9,25,179.9,25z M179.9,26.3
		c0,0-0.1,0-0.1,0v0H179.9z M180.1,28.6v-0.1c0,0-0.1,0-0.1,0v0.1C180.1,28.6,180.1,28.7,180.1,28.6
		C180.1,28.7,180.1,28.6,180.1,28.6z M180.7,25.5c-0.3,0-0.4,0.1-0.5,0.2v0.1c0,0,0.1,0.1,0.1,0.1c0.1,0,0.1,0.1,0.1,0.1
		C180.6,25.7,180.7,25.6,180.7,25.5z M180.5,24.6L180.5,24.6c0-0.1,0-0.1,0-0.1c0,0-0.1,0-0.1-0.1h-0.1c0,0.1-0.1,0.1-0.1,0.2
		c0,0,0,0.1,0.1,0.1C180.4,24.6,180.5,24.6,180.5,24.6z M180.7,18.7c0-0.2,0-0.4-0.1-0.4h-0.2c0,0-0.1,0-0.1,0c0,0.1,0,0.1,0,0.2
		C180.4,18.6,180.5,18.6,180.7,18.7L180.7,18.7z M180.4,12.5v-0.1c0,0,0,0-0.1,0L180.4,12.5L180.4,12.5z M181,24v-0.3
		c0,0-0.1-0.1-0.1-0.2c0-0.2,0-0.5,0-0.7c-0.1-0.1-0.1-0.1-0.2-0.1c0,0,0,0,0,0.1c-0.1,0.2-0.1,0.3-0.1,0.4c0,0.1,0,0.1,0.1,0.2
		c0,0.1,0.1,0.1,0.1,0.1c0.1,0,0.2,0.2,0.2,0.5h0.1C180.9,24.1,180.9,24,181,24z M181.1,21.6c0-0.2-0.1-0.3-0.2-0.3
		c-0.1,0.1-0.2,0.2-0.2,0.3c0,0.1,0.1,0.2,0.2,0.3C181,21.8,181.1,21.7,181.1,21.6z M181,17.6c0-0.2,0-0.4-0.1-0.5h0
		c0,0.2,0,0.4,0,0.5C180.9,17.7,180.9,17.6,181,17.6z M181,20.2c-0.1,0-0.1-0.1-0.1-0.1l-0.1,0.1c0,0.1,0,0.2,0,0.3
		C181,20.5,181,20.4,181,20.2z M181,14.5c0-0.2,0-0.2-0.1-0.3C180.9,14.3,180.9,14.4,181,14.5L181,14.5z M181,16.6
		c0-0.2,0-0.3,0-0.4c0,0-0.1,0-0.1,0.1c0,0.2,0,0.3,0,0.4C180.9,16.7,181,16.7,181,16.6z M181.1,28.5L181.1,28.5L181.1,28.5
		L181.1,28.5z M181.5,27.1c0-0.2-0.1-0.4-0.3-0.4c0,0.2,0,0.4,0.1,0.5C181.4,27.1,181.5,27.1,181.5,27.1z M181.6,12.6h-0.1
		c-0.1,0.3-0.1,0.5-0.1,0.5h0.1C181.6,13,181.7,12.8,181.6,12.6z M181.7,28.1c-0.1-0.1-0.2-0.1-0.2-0.1c-0.1,0-0.1,0.1-0.1,0.2
		c0,0,0.1,0.1,0.1,0.1C181.7,28.3,181.7,28.2,181.7,28.1z M182.2,27.8c0-0.1,0-0.2,0-0.2c0,0-0.1,0-0.1,0c0,0.1,0,0.2,0,0.2
		C182.1,27.8,182.2,27.8,182.2,27.8z M183.3,28.4c-0.2-0.2-0.3-0.4-0.4-0.5c-0.2-0.1-0.3,0-0.4,0.2c0,0.1,0,0.2,0,0.2
		c-0.2,0-0.3,0-0.3,0.1v0.2h0.2l0.2-0.2c0.1-0.1,0.2-0.1,0.3-0.1c0,0,0.1,0,0.1,0c0,0.2,0.1,0.3,0.2,0.4
		C183.2,28.7,183.3,28.6,183.3,28.4z M182.5,11.9c0-0.2,0-0.4-0.1-0.4h-0.1c0,0.1-0.1,0.2-0.1,0.3c0,0,0,0.1,0.1,0.2
		C182.4,12,182.4,12,182.5,11.9z M182.6,12.2L182.6,12.2C182.6,12.2,182.6,12.2,182.6,12.2C182.6,12.2,182.6,12.2,182.6,12.2z
		 M183.8,11.3c-0.2,0.2-0.2,0.4-0.2,0.5h-0.2c-0.1,0-0.1,0-0.2-0.1c0,0,0,0,0,0c0,0.2,0.1,0.4,0.2,0.4c0.1,0,0.2-0.1,0.2-0.2
		c0.2-0.1,0.3-0.3,0.3-0.4C183.9,11.5,183.8,11.4,183.8,11.3z M184.1,12.5L184.1,12.5L184.1,12.5C184,12.5,184,12.5,184.1,12.5z
		 M184.3,12.9v-0.1c0,0,0,0,0,0L184.3,12.9L184.3,12.9z M184.8,12v-0.2h0c-0.1,0-0.1,0.1-0.1,0.2H184.8z M185.5,14.6
		c0-0.2-0.1-0.4-0.1-0.4c0,0-0.1,0.1-0.3,0.4l0,0.4c0,0,0.1,0.1,0.1,0.1c0,0,0.1,0,0.2-0.1C185.5,15,185.6,14.8,185.5,14.6z
		 M186.3,11.7h-0.1c0,0-0.1,0-0.2,0.1l-0.3-0.3c0,0-0.1,0-0.1,0.1v0.4c0,0.2,0.1,0.3,0.1,0.4c0,0,0.1,0,0.1,0h0.1
		C186,12.2,186.2,12,186.3,11.7z M186.8,14.9c0.1-0.3,0-0.5-0.3-0.5c-0.2,0.2-0.2,0.4-0.2,0.6l0.1,0.1c0.1,0,0.2,0,0.2-0.1
		C186.7,15,186.8,14.9,186.8,14.9z M186.6,12.4c0-0.1,0-0.2-0.2-0.2c0,0-0.1,0-0.1,0.1c0,0.4-0.1,0.6,0,0.6
		C186.4,12.8,186.5,12.6,186.6,12.4z M186.6,13.8v-0.2c0-0.1-0.1-0.2-0.1-0.2c-0.1,0.1-0.1,0.1-0.1,0.2s0.1,0.2,0.2,0.3L186.6,13.8
		C186.5,13.9,186.5,13.9,186.6,13.8z"/>
</g>
<g>
	<g>
		<g>
			<g>
				<g>
					<path fill="#222222" d="M0,17.3c-0.1,0.1,0,0.3,0.2,0.2l0.1-0.3L0,17.3z"/>
					<path fill="#222222" d="M1.2,18c0.2-0.2,0.5-0.4,0.3-0.7c-0.2,0.3-0.3,0.2-0.5,0.6c-0.2,0-0.3-0.1-0.3-0.2
						c-0.1,0.1-0.3-0.1-0.4,0.1c0.2,0.3,0.5,0.3,0.9,0.1C1.3,17.8,1.3,17.9,1.2,18z"/>
					<path fill="#222222" d="M19.2,18.5l-0.1,0C19.2,18.5,19.2,18.5,19.2,18.5z"/>
					<path fill="#222222" d="M30.4,18.7c-0.1,0-0.1,0-0.1,0.1C30.4,18.7,30.4,18.7,30.4,18.7z"/>
					<path fill="#222222" d="M32.3,19c0,0-0.1,0-0.1,0C32.2,19,32.3,19,32.3,19z"/>
					<path fill="#222222" d="M19.2,18.5l0.3,0.1C19.6,18.5,19.4,18.5,19.2,18.5z"/>
					<path fill="#222222" d="M3.7,17.2c-0.1,0-0.1,0-0.2,0.1C3.6,17.2,3.7,17.2,3.7,17.2C3.7,17.2,3.7,17.2,3.7,17.2z"/>
					<path fill="#222222" d="M14.3,18.7L14.3,18.7c-0.1,0-0.1,0.1-0.2,0.1L14.3,18.7z"/>
					<path fill="#222222" d="M10.6,18.8c0.1,0,0.1-0.3,0.1-0.4c0,0.1-0.1,0.2-0.2,0.2C10.5,18.6,10.5,18.7,10.6,18.8z"/>
					<path fill="#222222" d="M4.6,18.3l-0.1,0C4.5,18.3,4.5,18.3,4.6,18.3z"/>
					<path fill="#222222" d="M17,18.8c0,0,0,0.1,0,0.1C17.1,18.9,17.1,18.8,17,18.8z"/>
					<path fill="#222222" d="M122.6,16.7C122.6,16.7,122.6,16.7,122.6,16.7C122.6,16.7,122.7,16.7,122.6,16.7z"/>
					<path fill="#222222" d="M127,18.1L127,18.1c-0.1,0.1-0.1,0.1-0.1,0.2L127,18.1z"/>
					<path fill="#222222" d="M35.8,19.4C35.8,19.4,35.8,19.4,35.8,19.4C35.7,19.4,35.7,19.4,35.8,19.4z"/>
					<path fill="#222222" d="M67.8,19.2c-0.4-0.3,0.6-0.3,0-0.6C67.9,18.7,67.4,19,67.8,19.2z"/>
					<path fill="#222222" d="M3.8,17.2c0.1,0,0.1,0,0.2,0C3.9,17.2,3.9,17.2,3.8,17.2z"/>
					<path fill="#222222" d="M67.9,18.6C67.9,18.6,67.9,18.6,67.9,18.6L67.9,18.6C67.8,18.5,67.8,18.6,67.9,18.6z"/>
					<path fill="#222222" d="M43.8,19.2c0,0,0-0.1-0.1-0.1C43.8,19.1,43.8,19.1,43.8,19.2z"/>
					<path fill="#222222" d="M37.8,18.8l0.1,0C37.9,18.8,37.9,18.8,37.8,18.8z"/>
					<path fill="#222222" d="M46.9,18.8c0.1,0,0.1,0.1,0.2,0c0,0,0,0,0,0C47.1,18.8,47,18.9,46.9,18.8z"/>
					<path fill="#222222" d="M50.2,18.8C50.2,18.8,50.1,18.8,50.2,18.8c-0.1-0.1-0.1,0-0.2,0L50.2,18.8z"/>
					<path fill="#222222" d="M112.8,16.8c0.1,0.1,0.1,0.2,0.1,0.3C112.9,16.9,113.4,16.8,112.8,16.8z"/>
					<path fill="#222222" d="M3.7,17.3c0-0.1,0-0.1,0.1-0.1c0,0-0.1,0-0.1,0C3.7,17.2,3.7,17.3,3.7,17.3z"/>
					<path fill="#222222" d="M47.1,16.6l0.5,0C47.4,16.6,47.3,16.6,47.1,16.6z"/>
					<path fill="#222222" d="M89.6,16.9l0.1,0C89.7,16.8,89.6,16.8,89.6,16.9z"/>
					<path fill="#222222" d="M49.1,16.6c0.1,0.1,0.2,0.2,0.3,0.2c0,0,0,0,0.1-0.1L49.1,16.6z"/>
					<path fill="#222222" d="M112.9,17.1C112.9,17.1,112.9,17.1,112.9,17.1C112.9,17.1,112.9,17.1,112.9,17.1z"/>
					<path fill="#222222" d="M116.3,16.4c-0.5,0-0.2,0.4-0.3,0.6c-0.6,0.1-0.3-0.3-0.5-0.5c-0.4,0.1-0.6,0.4-0.9,0.4
						c0-0.1-0.1-0.1,0-0.2c-0.4,0.3-1.1,0-1.6,0.4c0,0-0.1-0.1-0.1-0.1c0.1,0.2,0.1,0.4,0.1,0.5c-0.2,0-0.4,0.2-0.5,0
						c0.1,0,0.1-0.1,0.2-0.2l-0.2,0.1c-0.2-0.3,0.3-0.1,0.3-0.4c-0.4,0.1-1,0.4-1.3,0.3c-0.1-0.3,0.8-0.1,0.3-0.4l0.5,0.1
						c-0.4-0.5,0.3,0-0.1-0.5c-0.7-0.1-0.8,0.2-1.5,0.1c-0.2,0.2,0.1,0.3-0.1,0.5c-1,0.3-0.8-0.9-1.5-0.4c-0.2,0.2-0.3,0.7-0.8,0.4
						l0.2-0.4c-0.7,0-0.4,0.6-1.1,0.3c0.1-0.2,0.5-0.1,0.4-0.2c-0.5-0.3-0.3,0.2-0.7,0.2l-0.1-0.3c-0.7,0.1-1.5,0.3-2.3,0.4
						c0-0.1,0.2-0.2,0-0.3c-1,0.2-2.2,0-3.1-0.2l-0.4,0.3c-0.1,0-0.2-0.1-0.1-0.2c-0.4-0.1,0,0.2-0.2,0.3c-0.2,0-0.3-0.2-0.1-0.3
						c-0.7,0.2-1.9,0.5-2.6,0.2l0.1-0.1c-0.5-0.1-0.6,0.6-1.1,0.3l0.1-0.1c-1.2-0.1-2.5,0.1-3.4-0.3c-0.2,0.4-1.2-0.2-1.3,0.4
						c-0.7-0.3-0.5-0.4-1.4-0.6c-0.3,0-0.4,0.4-0.7,0.4l0-0.3l-0.4,0.3L90,16.7l-0.3,0.1c0.1,0,0.3,0.1,0.2,0.2
						c-0.5,0.1-1.1-0.2-1.1-0.4l-1.1,0.3c0-0.1,0.2-0.2,0.4-0.2c-0.6,0.3-0.1-0.3-0.6,0c0.1,0.1,0,0.2-0.1,0.2
						c-0.3-0.2-0.9-0.2-1.3-0.1l0.1-0.2c-0.8-0.1-1.7,0.1-2.6,0.1c0.3,0.1,0.3,0.5,0,0.5l-0.1-0.3c-0.2,0.2,0.3,0.1-0.1,0.4
						c-0.3,0-0.2-0.4,0-0.5l-0.4,0.1c0-0.1,0.1-0.1,0.1-0.3c-0.2,0.2-0.7-0.3-1,0l0-0.1c-0.9,0-1.3,0.1-2.1,0.1
						c0,0.3-0.3,0.2-0.5,0.4c-0.5-0.1-1.2-0.3-1.8-0.3c-0.5,0.1-0.1,0.2-0.3,0.4c0-0.3-0.7-0.2-0.4-0.4c-0.8,0-1,0.1-2,0.3
						c0.1,0.1,0.2,0.2,0.2,0.2c-0.2,0-0.4-0.1-0.4-0.2l0,0c-1.1,0.4-2.6-0.7-3.5-0.2l0.1,0l-0.9,0.3c-0.4,0,0.3-0.2-0.1-0.4
						c-1,0.4-1.6-0.1-2.4,0.2c-0.6-0.8-2.3,0.1-3.1-0.4l0,0.2c-0.2,0.2-0.3-0.1-0.4-0.1c0,0.1,0.2,0.2,0.1,0.3
						c-1.9,0.2-3.9-0.3-5.8-0.4c-0.7,0-0.4,0.9-1.3,0.5l0.3-0.3c-1.4,0.4-2.9,0-4.3,0.3c0.1-0.1,0.1-0.2,0.2-0.2
						c-0.3-0.2-1.1,0-1.1,0.2c-0.2,0-0.1-0.2-0.2-0.3c-0.3-0.1-0.7,0.3-0.9,0.1c0,0,0.1-0.1,0.1-0.1c-0.2,0.1-0.9,0-0.7,0.2
						c-0.5-0.1-1,0.1-1.4,0c-0.3,0.3-0.9-0.1-1,0.3c0-0.5-0.9-0.4-1.2-0.2c0.1-0.1-0.3-0.1-0.2-0.3c-0.4,0-0.7,0.1-0.7,0.3
						c-0.7-0.5-1.4,0.4-1.8-0.3c-1.1,0.2-2.2,0.4-3.2,0.5c0-0.5,1.1,0,1.1-0.5c-1,0.2-1.5,0.6-2.5,0.5c-0.2-0.1,0.1-0.2,0.2-0.3
						c-1,0.2-1.8,0-2.7,0.2c0,0,0.1-0.1,0.2-0.1c-0.2,0-0.4-0.1-0.4,0.1l0.2-0.1c0.3,0.3-0.7,0.6-0.7,0.8c0.3-0.6-0.8-0.1-0.4-0.9
						c-0.1,0-0.2,0.1-0.2,0.3c-0.2,0-0.2-0.1,0-0.3c-0.6,0.1-0.4,0.3-0.9,0.3c0-0.1,0.1-0.1,0.2-0.3c-0.3,0.2-0.6,0.4-1,0.3
						c0-0.1,0-0.1,0.1-0.1c-0.8,0-1.3,0.5-2.2,0.3c0.3-0.4-0.3-0.1-0.3-0.5l-0.5,0.1l0.2,0.2c-0.4,0-0.8,0.3-1.1,0.1l0.3-0.2
						l-0.8,0.1l0.4,0.1c-0.4,0.2,0,0.5-0.5,0.4c0.1,0-0.4,0-0.6-0.2c0,0,0,0,0,0c-0.2,0.1-0.4,0.2-0.7,0.2c-0.1-0.1,0.1-0.4,0-0.5
						c-0.2,0.3-1,0.1-1.2,0.4c0.1-0.1,0.1-0.3,0.1-0.3l-0.2,0.3c-0.2-0.1-0.2-0.1-0.2-0.3c-0.6,0,0.2,0.5-0.5,0.3
						c0.1,0,0-0.1,0.1-0.1c-0.7-0.1-1.3,0.2-1.9,0c-0.2-0.4,0.5-0.1,0.3-0.4c-0.9,0.1-1.9,0.5-2.7,0.4l0.2,0c-0.1,0.5-0.6-0.3-1.1,0
						c0.1,0,0.1-0.3,0.1-0.2c-0.6-0.1-1.2,0.1-2.1,0.3l0.1-0.1c-0.4-0.1-0.9-0.1-1.3-0.1c-0.1,0.1-0.3,0.1-0.2,0.3
						C17.1,16.8,16,18,15,17.4c0.1,0,0.3-0.1,0.2-0.1l-0.9,0.1c0.1,0.2,0.1,0.1,0.3,0.3C14.5,17.9,14.2,18,14,18
						c0.4-0.2,0-0.4-0.2-0.5c0,0.1,0,0.1,0,0.2c-0.5-0.4-0.1,0.5-0.7,0.2l0-0.1c-0.2,0.1-0.5,0.2-0.7,0.2c-0.1-0.3,0.3-0.1,0.3-0.3
						c-0.4,0-0.7,0.5-1,0.2c0.2-0.1,0.4-0.1,0.5-0.1c-0.4-0.3-0.4-0.2-0.7-0.3l0,0L11,17.3l0.2,0.1c-0.4,0.7-0.9,0.1-1.5,0.6
						c0.6-0.4,0.1-0.2,0.1-0.6c-0.2-0.1-0.4-0.2-0.3-0.3c-0.3,0.2-0.5-0.2-0.9,0.2c0-0.1-0.3,0-0.2-0.3c-0.4,0.1,0.1,0.2,0.1,0.3
						c-0.6,0.3-1.3-0.4-2.2,0.1c-0.7,0.2-0.8,0.5-1.5,0.7c-0.2-0.2,0.2-0.4,0.2-0.4c-0.4-0.1-0.6-0.1-1,0c0.1-0.1,0-0.2-0.1-0.3
						c-0.3,0-0.2,0.4-0.5,0.2c0.1-0.1,0.1-0.3,0.3-0.4c-0.3,0.1-0.6,0.3-1,0.4c-0.1-0.2,0.2-0.3,0.3-0.4c-0.4,0.1-1,0.2-1.1,0.4
						l0.2,0.1c-0.1,0-0.1-0.2,0-0.3c0.3-0.2,0.5,0.1,0.5,0.2l-0.2,0.1c0.2,0.6,0.9-0.1,1.4-0.1l-0.2,0.4l0.5-0.3
						c0.1,0.1,0.2,0.3-0.1,0.4c0.3,0.2,0.3-0.1,0.6,0.1c0,0,0,0.1,0,0.1l0.3-0.1c-0.1,0.1,0.1,0.3-0.1,0.2c0.6,0.2,1-0.3,1.2,0l0,0
						c0.8-0.1,0.1-0.3,0.7-0.7L7,18.5l0.1-0.3c0.1,0,0.3,0,0.2,0.2c0.3-0.2-0.1-0.1,0.1-0.3c0.4,0.3,1.1-0.1,1.2,0.4
						c0.1-0.2-0.4-0.2,0-0.3c0.1,0.5,0.5-0.1,0.9,0.2c-0.1,0.3-0.5,0.1-0.1,0.4c0.2-0.5,0.7,0.1,1,0c0-0.4,0.7-0.2,1.2-0.3
						c0,0.1,1,0.2,1.5,0.3l0,0.1c0.1-0.4,0.6-0.3,1-0.4c0,0.2-0.1,0.3-0.3,0.4l0.3,0c0.1-0.1,0.2-0.2,0.4-0.2l-0.1,0.3
						c0.5,0,0.9-0.3,1.5-0.1c0-0.3-0.5-0.7,0.2-0.9c0,0.1,0,0.4-0.1,0.4c0.1,0,0.2-0.1,0.3-0.1l-0.3,0.2c0.3,0.1,0.1-0.2,0.4-0.2
						c0,0.2,0.2,0.1,0.1,0.3c-0.1,0-0.2-0.1-0.3,0c0.2,0,0.5,0.2,0.6,0.3c0-0.1,0-0.3,0.2-0.3c0.5,0,0.2,0.2,0.4,0.3
						c0.1-0.1,0.4,0,0.4-0.3c0.1,0,0.2,0.1,0.2,0.2c0.2-0.1,1.1,0,0.8-0.4l-0.1,0c0,0,0,0,0,0c0,0,0,0,0,0h0c0.8-0.3,1.6,0.2,2.4,0
						l0,0.1c0.5-0.1,1-0.1,1.4-0.3c0.1,0,0.3,0.2,0.3,0.3c0.4-0.1,0.4-0.2,0.9,0c-0.4,0.2,0.1,0.2-0.4,0.1c0.5,0.1,0.6,0.2,1.1,0
						c-0.2,0.3,0.3,0.3,0.6,0.2L25,18.7c0.2,0,0.5,0,0.7,0L25.5,19c0.9,0.4,1.7-0.7,2.4,0c0.2-0.2-0.5-0.2-0.3-0.4
						c0.4,0,0.9,0.5,1,0.5c0.6,0.2,0.6-0.5,1.2-0.4c-0.1-0.1-0.2-0.4,0.3-0.5c0.4,0,0.5,0.5,0.3,0.6c-0.1,0-0.2,0-0.2-0.1
						c-0.1,0-0.3,0.1-0.2,0.2l0.1-0.1c0.2,0.1,0.8,0.1,0.7,0.3c0.3-0.1,0.1-0.2-0.1-0.3c0.6,0.2,0.9,0,1.4,0.1
						c-0.1-0.1-0.2-0.2-0.1-0.2c0.8,0.1,0.4-0.2,0.9-0.3c0.3,0.2-0.1,0.4,0.5,0.3c0.4,0.1,0.1,0.3-0.1,0.4c0.5-0.2,1,0.2,1.3,0.2
						l-0.3,0.1c0.2-0.1,0.3-0.1,0.4-0.1l-0.2-0.2c0.2,0,0.3,0,0.3,0.1c0.2-0.2-0.1-0.4,0.2-0.6c0.2,0.1,0.7-0.1,0.7,0.2
						c-0.7-0.1,0.1,0.3-0.5,0.4c0.1,0,0.2,0,0.4,0c0,0,0,0.1-0.1,0.1c0.6,0.3,0.3-0.4,1-0.3c-0.1,0.2,0.2,0.3,0.3,0.3
						c-0.3,0-0.1-0.3,0.1-0.4c0.4,0.1,0.5-0.1,0.7-0.1l-0.3-0.1c0.1-0.2,0.3-0.2,0.6-0.2c0,0.1-0.3,0.1-0.2,0.2
						c0.3-0.3,0.8,0.3,1.2,0.1c0.2,0.1,0,0.3,0.2,0.4c0.5-0.2,0.6,0.2,1.1,0.1c-0.2-0.2-0.2-0.2,0.2-0.4L39.9,19l0.6-0.3
						c-0.3,0-0.6,0.1-0.7,0.1c0.3-0.2,0.2-0.1,0.1-0.3c0.4,0.4,0.7-0.2,1.2,0l0,0.6c0.6,0.3,1.1-0.3,2-0.2l-0.3-0.1
						c0.1-0.2,0.5,0,0.8-0.1c0,0.2,0.1,0.3,0.3,0.4c0-0.1,0.6,0,0.7-0.4l0.4,0.3c0.7,0.1,0.8-0.6,1.4-0.5c-0.2,0.2,0.1,0.4-0.3,0.5
						c0.2,0,0.4,0,0.4-0.1c0.1,0.1,0.6-0.3,0.8-0.1c0.1-0.1,0.1-0.3,0.4-0.3c0,0,0,0.1,0,0.1c0-0.1,0.4-0.1,0.2-0.4
						c0.7,0.6,1.9,0,2.5,0.5c0.5-0.1,1-0.1,1.5-0.1c0,0.1,0,0.1-0.1,0.1c0.6,0.2,0.4-0.6,1-0.4c0.3,0.3-0.4,0.2-0.1,0.3
						c0.1,0.6,0.8-0.1,1.3,0.3l-0.1,0c0.3,0.2,0.8-0.2,1.4-0.2c0,0,0,0.1,0,0.1c0.4-0.3,1.1-0.4,1.7-0.5c-0.2,0.3-0.2,0.1-0.1,0.4
						c0.2,0-0.1-0.4,0.4-0.5c0.2,0.1,0.5,0.3,0.6,0.5l-0.5,0c0.2,0.4,0.6,0,0.8,0l0,0.2c0.7-0.1,0.7-0.4,1.5-0.4l-0.1-0.1
						c0.4-0.4,0.3,0.2,0.8-0.1l0.1,0.4c0.3-0.1,1-0.4,1.5-0.5c-0.3,0.3-0.9,0.4-1.2,0.6c0.3,0,0.9,0,1.1-0.2c-0.1,0-0.2,0.1-0.4,0.1
						c0.3-0.3,0.8-0.5,1.3-0.5c-0.1,0.8,1.4,0.2,1.8,0.8c1-0.3,1.9,0.1,3,0.1c-0.4-0.6,0.3,0,0.3-0.6c0.3,0,0.4,0,0.4,0l0.8,0.4
						c0.2,0.2-0.2,0.1-0.2,0.3c0.6,0,0.2,0.3,0.6,0.4c-0.1-0.2,0.2-0.3,0.5-0.2l-0.5-0.3c0.8-0.3,0.7,0.5,1.5,0.2l-0.3,0.2
						c0.4-0.1,1.5,0,1.9-0.5c0.1,0.1,0.2,0.2,0,0.3c1,0.1,2.2-0.5,3-0.2l-0.1,0.1c0.2,0,0.3-0.3,0.5-0.1c0,0.1-0.1,0.1,0,0.2
						c0.1-0.1,0.5-0.3,0.7-0.2l-0.2,0.2c1,0.2,1.5-0.4,2.3-0.5c0,0.4,0.8,0.6,1.1,0.7l0,0.1c1.1,0.1,1.9-0.4,2.9-0.5
						c0.6,0.5,2.2,0.2,3.2,0.5c-0.2-0.1,0-0.3,0.2-0.4c0.2,0.1,0.7-0.3,0.6,0.1l-0.1,0c0.2,0.4,0.7,0.3,1.1,0.3l0.1-0.5
						c1,0.8,2.7-0.3,3.2,0.4c0.2-0.1,0.5-0.1,0.8-0.3l0,0.3c0.7,0.1,1,0.1,1.9,0l-0.2,0.2c0.5,0,0.6-0.8,1-0.8l0.1,0.4
						c0.8,0,1.7,0.4,2.5,0c0,0.1,0,0.2-0.2,0.2c0.4,0,1.5,0.3,1.4-0.3c0,0.4,0.9,0,1.3-0.1l-0.1,0.3c0.4-0.4,0.4-0.5,0.9-0.6
						c0.1,0,0.1,0.2-0.1,0.2c0.4,0.1,0.3-0.3,0.8-0.1l-0.2,0.2c0.4,0,0.4-0.1,0.6-0.3c0.3-0.1,0.8,0.1,0.9,0.3
						c0.1-0.2,0.3-0.4,0.5-0.3c0,0.1-0.1,0.2-0.1,0.2c0.7,0.2,1.1-0.3,1.6-0.1c0,0.1,0,0.1,0.1,0.2c-0.6,0-1,0-1,0
						c0,0.3,0.5,0.3,0.1,0.7c0.4-0.2,1-0.6,1.4-0.5c0,0,0,0,0.1,0.1l0,0c0.1,0,0.2,0,0.3,0c0.1,0,0.2,0.1,0.4,0.1
						c0.1,0.2,0.5,0.1,0.8,0.1c0-0.3,0.3-0.2,0-0.5c0,0,0,0-0.2,0c0,0-0.1,0-0.1,0c0,0,0,0,0,0c-0.2,0-0.3,0-0.6,0
						c0.2-0.1,0.4-0.3,0.6-0.1c0.1-0.2,0.2-0.4,0.3-0.5c0.3,0.4,0.9,0.6,1,0.8c0.7-0.2,1.6-0.1,2.1-0.6c0.2-0.1,0.2,0.2,0.3,0.2
						c-0.1,0.1-0.3,0-0.3,0.1c0.4-0.1,1.2-0.1,1.3-0.4c0.5,0.2-0.3,0.3,0.4,0.3l-0.1,0.1c1.4,0.6,2.2-0.9,3.7-0.2
						c-0.1,0-0.2-0.1-0.2-0.1c1.7,0.3,3.5-0.3,5.2,0.2c0.5,0.1,0.5-0.1,0.8-0.3l0.1,0.3l0.5-0.3c0.7-0.3,1.2,0.7,2.1,0.3l-0.1-0.2
						c0.3,0,1-0.1,1,0.1c0,0,0.1-0.2,0.2-0.1l0,0.2l0.8-0.3c0.6,0.1-0.1,0.6,0.8,0.7c0.3-0.1,0.9-0.5,0.8-0.6
						c-0.1,0-0.3-0.1-0.4-0.3l0.3-0.1c0.1-0.5,0.3-0.9-0.5-1.3l-0.5,0.3l-0.2-0.2l0.4,0c-0.2-0.2-0.4,0-0.6,0.1
						c0-0.1-0.1-0.2-0.2-0.2l-0.5,0.4c-0.1-0.2,0.2-0.4-0.1-0.5c-0.2,0.2,0.2,0.4-0.2,0.5c-0.2-0.2-0.2-0.4-0.5-0.2
						c0-0.1,0-0.2,0.1-0.2c-0.3,0.1-0.7,0.1-0.8,0.3c-0.3-0.3-0.9,0.1-0.9-0.4c-0.1,0.1-0.5,0.3-0.7,0.4c0.4-0.5-0.9,0-0.8-0.6
						c-0.3,0.5-1.2,0.2-1.7,0.5c0,0,0.1-0.1,0.1-0.1c-0.3,0-0.4-0.2-0.6-0.3c0,0.4-0.5,0.5-0.8,0.7c-0.4-0.4,0.2-0.5,0.1-0.8
						c0,0.3-0.7,0.3-0.6,0.6c-0.3-0.2-0.3-0.1-0.4-0.4c-0.1,0.5-0.3,0.1-0.5,0.4c-0.4-0.2-0.1-0.5-0.6-0.3
						C115.9,16.6,116.3,16.4,116.3,16.4z M104.9,17.3C104.9,17.3,104.9,17.3,104.9,17.3c0.1,0,0.2,0,0.2,0
						C105.1,17.2,105,17.2,104.9,17.3z M103.9,17.3c0.1,0,0.3,0,0.4,0c0,0.1,0,0.2-0.1,0.2C104.3,17.4,104.1,17.3,103.9,17.3z
						 M106,19.2c-0.2,0-0.2,0-0.2-0.1c0.1,0,0.2,0,0.3,0c0,0,0,0,0,0C106,19.1,106,19.2,106,19.2z"/>
					<path fill="#222222" d="M106.2,18.8C106.3,18.8,106.3,18.8,106.2,18.8C106.3,18.8,106.2,18.8,106.2,18.8
						C106.2,18.8,106.2,18.8,106.2,18.8C106.2,18.8,106.2,18.8,106.2,18.8z"/>
					<path fill="#222222" d="M19.1,18.4L19.1,18.4C19.1,18.4,19.1,18.4,19.1,18.4C19.1,18.4,19.1,18.4,19.1,18.4z"/>
					<polygon fill="#222222" points="90.7,16.7 90.7,16.8 90.7,16.7 					"/>
					<path fill="#222222" d="M13.8,17.5C13.8,17.4,13.8,17.4,13.8,17.5C13.8,17.4,13.8,17.4,13.8,17.5z"/>
					<path fill="#222222" d="M11.5,17.4l-0.3-0.1C11.3,17.4,11.5,17.4,11.5,17.4z"/>
					<path fill="#222222" d="M9.8,17.3c0,0,0,0.1,0,0.1c0,0,0,0,0,0L9.8,17.3z"/>
					<path fill="#222222" d="M37.7,16.9C37.8,16.9,37.8,16.9,37.7,16.9C38,16.9,37.8,16.9,37.7,16.9z"/>
					<path fill="#222222" d="M29.4,17.6c0.1-0.1,0.2-0.1,0.3-0.1C29.5,17.4,29.4,17.4,29.4,17.6z"/>
					<path fill="#222222" d="M47,16.6C47,16.6,47,16.6,47,16.6C47,16.6,47.1,16.6,47,16.6L47,16.6z"/>
					<path fill="#222222" d="M30.1,17.5c-0.1-0.1-0.3,0-0.4,0C29.8,17.5,29.9,17.5,30.1,17.5z"/>
					<path fill="#222222" d="M2.2,17.1L2.2,17.1C2.1,17.1,2.1,17.2,2.2,17.1L2.2,17.1z"/>
					<path fill="#222222" d="M2.1,17.2L2.1,17.2C2,17.2,2,17.2,2.1,17.2z"/>
					<path fill="#222222" d="M1.8,17.3L2,17.2C1.9,17.2,1.8,17.2,1.8,17.3z"/>
					<path fill="#222222" d="M4.5,17.3l0-0.1C4.5,17.2,4.5,17.2,4.5,17.3z"/>
					<path fill="#222222" d="M5.2,17.2c-0.2,0-0.4-0.2-0.7-0.2l0,0.1C4.6,17,5,17.4,5.2,17.2z"/>
					<path fill="#222222" d="M8.1,18.5l-0.6-0.1c0.1,0.1,0.2,0.3,0,0.3C8.3,19,7.4,18.4,8.1,18.5z"/>
					<path fill="#222222" d="M10,18.6c-0.3,0.1,0,0.2,0,0.2C10.2,18.8,10.2,18.7,10,18.6z"/>
					<path fill="#222222" d="M23.3,18.6l0,0.3C23.5,18.9,23.2,18.8,23.3,18.6z"/>
					<polygon fill="#222222" points="25.8,17.3 25.6,17.2 25.4,17.4 					"/>
					<polygon fill="#222222" points="27.3,19.1 27.2,19.2 27.6,19.1 					"/>
					<path fill="#222222" d="M49.6,19.1l-0.1-0.3C49.4,18.8,49.3,19.2,49.6,19.1z"/>
					<path fill="#222222" d="M59.2,18.7c0.1,0.2,0.4,0.3,0.5,0.1C59.6,18.8,59.3,18.7,59.2,18.7z"/>
					<polygon fill="#222222" points="88.1,19.2 87.9,19.4 88.3,19.3 					"/>
				</g>
			</g>
		</g>
	</g>
</g>
<g>
	<g>
		<g>
			<g>
				<g>
					<path fill="#222222" d="M360,18.7c0.1-0.1,0-0.3-0.2-0.2l-0.1,0.3L360,18.7z"/>
					<path fill="#222222" d="M358.8,18.1c-0.2,0.2-0.5,0.4-0.3,0.7c0.2-0.3,0.3-0.2,0.5-0.6c0.2,0,0.3,0.1,0.3,0.2
						c0.1-0.1,0.3,0.1,0.4-0.1c-0.2-0.3-0.5-0.3-0.9-0.1C358.7,18.2,358.7,18.1,358.8,18.1z"/>
					<path fill="#222222" d="M340.8,17.5l0.1,0C340.8,17.6,340.8,17.5,340.8,17.5z"/>
					<path fill="#222222" d="M329.6,17.4c0.1,0,0.1,0,0.1-0.1C329.6,17.3,329.6,17.3,329.6,17.4z"/>
					<path fill="#222222" d="M327.7,17c0,0,0.1,0,0.1,0C327.8,17,327.7,17,327.7,17z"/>
					<path fill="#222222" d="M340.8,17.5l-0.3-0.1C340.4,17.5,340.6,17.5,340.8,17.5z"/>
					<path fill="#222222" d="M356.3,18.9c0.1,0,0.1,0,0.2-0.1C356.4,18.8,356.3,18.8,356.3,18.9C356.3,18.8,356.3,18.8,356.3,18.9z"
						/>
					<path fill="#222222" d="M345.7,17.3L345.7,17.3c0.1,0,0.1-0.1,0.2-0.1L345.7,17.3z"/>
					<path fill="#222222" d="M349.4,17.2c-0.1,0-0.1,0.3-0.1,0.4c0-0.1,0.1-0.2,0.2-0.2C349.5,17.4,349.5,17.3,349.4,17.2z"/>
					<path fill="#222222" d="M355.4,17.7l0.1,0C355.5,17.7,355.5,17.7,355.4,17.7z"/>
					<path fill="#222222" d="M343,17.2c0,0,0-0.1,0-0.1C342.9,17.1,342.9,17.2,343,17.2z"/>
					<path fill="#222222" d="M237.4,19.3C237.4,19.3,237.4,19.3,237.4,19.3C237.4,19.3,237.3,19.3,237.4,19.3z"/>
					<path fill="#222222" d="M233,17.9L233,17.9c0.1-0.1,0.1-0.1,0.1-0.2L233,17.9z"/>
					<path fill="#222222" d="M324.2,16.6C324.2,16.6,324.2,16.6,324.2,16.6C324.3,16.6,324.3,16.6,324.2,16.6z"/>
					<path fill="#222222" d="M292.2,16.8c0.4,0.3-0.6,0.3,0,0.6C292.1,17.3,292.6,17,292.2,16.8z"/>
					<path fill="#222222" d="M356.2,18.8c-0.1,0-0.1,0-0.2,0C356.1,18.8,356.1,18.8,356.2,18.8z"/>
					<path fill="#222222" d="M292.1,17.4C292.1,17.4,292.1,17.4,292.1,17.4L292.1,17.4C292.2,17.5,292.2,17.5,292.1,17.4z"/>
					<path fill="#222222" d="M316.2,16.8c0,0,0,0.1,0.1,0.1C316.2,16.9,316.2,16.9,316.2,16.8z"/>
					<path fill="#222222" d="M322.2,17.2l-0.1,0C322.1,17.2,322.1,17.2,322.2,17.2z"/>
					<path fill="#222222" d="M313.1,17.2c-0.1,0-0.1-0.1-0.2,0c0,0,0,0,0,0C312.9,17.2,313,17.2,313.1,17.2z"/>
					<path fill="#222222" d="M309.8,17.2C309.8,17.2,309.9,17.2,309.8,17.2c0.1,0.1,0.1,0,0.2,0L309.8,17.2z"/>
					<path fill="#222222" d="M247.2,19.2c-0.1-0.1-0.1-0.2-0.1-0.3C247.1,19.1,246.6,19.2,247.2,19.2z"/>
					<path fill="#222222" d="M356.3,18.7c0,0.1,0,0.1-0.1,0.1c0,0,0.1,0,0.1,0C356.3,18.8,356.3,18.7,356.3,18.7z"/>
					<path fill="#222222" d="M312.9,19.4l-0.5,0C312.6,19.4,312.7,19.4,312.9,19.4z"/>
					<path fill="#222222" d="M270.4,19.1l-0.1,0C270.3,19.2,270.4,19.2,270.4,19.1z"/>
					<path fill="#222222" d="M310.9,19.4c-0.1-0.1-0.2-0.2-0.3-0.2c0,0,0,0-0.1,0.1L310.9,19.4z"/>
					<path fill="#222222" d="M247.1,18.9C247.1,18.9,247.1,18.9,247.1,18.9C247.1,18.9,247.1,18.9,247.1,18.9z"/>
					<path fill="#222222" d="M243.7,19.6c0.5,0,0.2-0.4,0.3-0.6c0.6-0.1,0.3,0.3,0.5,0.5c0.4-0.1,0.6-0.4,0.9-0.4
						c0,0.1,0.1,0.1,0,0.2c0.4-0.3,1.1,0,1.6-0.4c0,0,0.1,0.1,0.1,0.1c-0.1-0.2-0.1-0.4-0.1-0.5c0.2,0,0.4-0.2,0.5,0
						c-0.1,0-0.1,0.1-0.2,0.2l0.2-0.1c0.2,0.3-0.3,0.1-0.3,0.4c0.4-0.1,1-0.4,1.3-0.3c0.1,0.3-0.8,0.1-0.3,0.4l-0.5-0.1
						c0.4,0.5-0.3,0,0.1,0.5c0.7,0.1,0.8-0.2,1.5-0.1c0.2-0.2-0.1-0.3,0.1-0.5c1-0.3,0.8,0.9,1.5,0.4c0.2-0.2,0.3-0.7,0.8-0.4
						l-0.2,0.4c0.7,0,0.4-0.6,1.1-0.3c-0.1,0.2-0.5,0.1-0.4,0.2c0.5,0.3,0.3-0.2,0.7-0.2l0.1,0.3c0.7-0.1,1.5-0.3,2.3-0.4
						c0,0.1-0.2,0.2,0,0.3c1-0.2,2.2,0,3.1,0.2l0.4-0.3c0.1,0,0.2,0.1,0.1,0.2c0.4,0.1,0-0.2,0.2-0.3c0.2,0,0.3,0.2,0.1,0.3
						c0.7-0.2,1.9-0.5,2.6-0.2l-0.1,0.1c0.5,0.1,0.6-0.6,1.1-0.3l-0.1,0.1c1.2,0.1,2.5-0.1,3.4,0.3c0.2-0.4,1.2,0.2,1.3-0.4
						c0.7,0.3,0.5,0.4,1.4,0.6c0.3,0,0.4-0.4,0.7-0.4l0,0.3l0.4-0.3l0.2,0.4l0.3-0.1c-0.1,0-0.3-0.1-0.2-0.2
						c0.5-0.1,1.1,0.2,1.1,0.4l1.1-0.3c0,0.1-0.2,0.2-0.4,0.2c0.6-0.3,0.1,0.3,0.6,0c-0.1-0.1,0-0.2,0.1-0.2
						c0.3,0.2,0.9,0.2,1.3,0.1l-0.1,0.2c0.8,0.1,1.7-0.1,2.6-0.1c-0.3-0.1-0.3-0.5,0-0.5l0.1,0.3c0.2-0.2-0.3-0.1,0.1-0.4
						c0.3,0,0.2,0.4,0,0.5l0.4-0.1c0,0.1-0.1,0.1-0.1,0.3c0.2-0.2,0.7,0.3,1,0l0,0.1c0.9,0,1.3-0.1,2.1-0.1c0-0.3,0.3-0.2,0.5-0.4
						c0.5,0.1,1.2,0.3,1.8,0.3c0.5-0.1,0.1-0.2,0.3-0.4c0,0.3,0.7,0.2,0.4,0.4c0.8,0,1-0.1,2-0.3c-0.1-0.1-0.2-0.2-0.2-0.2
						c0.2,0,0.4,0.1,0.4,0.2l0,0c1.1-0.4,2.6,0.7,3.5,0.2l-0.1,0l0.9-0.3c0.4,0-0.3,0.2,0.1,0.4c1-0.4,1.6,0.1,2.4-0.2
						c0.6,0.8,2.3-0.1,3.1,0.4l0-0.2c0.2-0.2,0.3,0.1,0.4,0.1c0-0.1-0.2-0.2-0.1-0.3c1.9-0.2,3.9,0.3,5.8,0.4c0.7,0,0.4-0.9,1.3-0.5
						l-0.3,0.3c1.4-0.4,2.9,0,4.3-0.3c-0.1,0.1-0.1,0.2-0.2,0.2c0.3,0.2,1.1,0,1.1-0.2c0.2,0,0.1,0.2,0.2,0.3
						c0.3,0.1,0.7-0.3,0.9-0.1c0,0-0.1,0.1-0.1,0.1c0.2-0.1,0.9,0,0.7-0.2c0.5,0.1,1-0.1,1.4,0c0.3-0.3,0.9,0.1,1-0.3
						c0,0.5,0.9,0.4,1.2,0.2c-0.1,0.1,0.3,0.1,0.2,0.3c0.4,0,0.7-0.1,0.7-0.3c0.7,0.5,1.4-0.4,1.8,0.3c1.1-0.2,2.2-0.4,3.2-0.5
						c0,0.5-1.1,0-1.1,0.5c1-0.2,1.5-0.6,2.5-0.5c0.2,0.1-0.1,0.2-0.2,0.3c1-0.2,1.8,0,2.7-0.2c0,0-0.1,0.1-0.2,0.1
						c0.2,0,0.4,0.1,0.4-0.1l-0.2,0.1c-0.3-0.3,0.7-0.6,0.7-0.8c-0.3,0.6,0.8,0.1,0.4,0.9c0.1,0,0.2-0.1,0.2-0.3
						c0.2,0,0.2,0.1,0,0.3c0.6-0.1,0.4-0.3,0.9-0.3c0,0.1-0.1,0.1-0.2,0.3c0.3-0.2,0.6-0.4,1-0.3c0,0.1,0,0.1-0.1,0.1
						c0.8,0,1.3-0.5,2.2-0.3c-0.3,0.4,0.3,0.1,0.3,0.5l0.5-0.1l-0.2-0.2c0.4,0,0.8-0.3,1.1-0.1l-0.3,0.2l0.8-0.1l-0.4-0.1
						c0.4-0.2,0-0.5,0.5-0.4c-0.1,0,0.4,0,0.6,0.2c0,0,0,0,0,0c0.2-0.1,0.4-0.2,0.7-0.2c0.1,0.1-0.1,0.4,0,0.5
						c0.2-0.3,1-0.1,1.2-0.4c-0.1,0.1-0.1,0.3-0.1,0.3l0.2-0.3c0.2,0.1,0.2,0.1,0.2,0.3c0.6,0-0.2-0.5,0.5-0.3c-0.1,0,0,0.1-0.1,0.1
						c0.7,0.1,1.3-0.2,1.9,0c0.2,0.4-0.5,0.1-0.3,0.4c0.9-0.1,1.9-0.5,2.7-0.4l-0.2,0c0.1-0.5,0.6,0.3,1.1,0c-0.1,0-0.1,0.3-0.1,0.2
						c0.6,0.1,1.2-0.1,2.1-0.3l-0.1,0.1c0.4,0.1,0.9,0.1,1.3,0.1c0.1-0.1,0.3-0.1,0.2-0.3c1.2,0.8,2.2-0.4,3.3,0.2
						c-0.1,0-0.3,0.1-0.2,0.1l0.9-0.1c-0.1-0.2-0.1-0.1-0.3-0.3c0.1-0.1,0.4-0.2,0.6-0.2c-0.4,0.2,0,0.4,0.2,0.5c0-0.1,0-0.1,0-0.2
						c0.5,0.4,0.1-0.5,0.7-0.2l0,0.1c0.2-0.1,0.5-0.2,0.7-0.2c0.1,0.3-0.3,0.1-0.3,0.3c0.4,0,0.7-0.5,1-0.2
						c-0.2,0.1-0.4,0.1-0.5,0.1c0.4,0.3,0.4,0.2,0.7,0.3l0,0l0.6,0.1l-0.2-0.1c0.4-0.7,0.9-0.1,1.5-0.6c-0.6,0.4-0.1,0.2-0.1,0.6
						c0.2,0.1,0.4,0.2,0.3,0.3c0.3-0.2,0.5,0.2,0.9-0.2c0,0.1,0.3,0,0.2,0.3c0.4-0.1-0.1-0.2-0.1-0.3c0.6-0.3,1.3,0.4,2.2-0.1
						c0.7-0.2,0.8-0.5,1.5-0.7c0.2,0.2-0.2,0.4-0.2,0.4c0.4,0.1,0.6,0.1,1,0c-0.1,0.1,0,0.2,0.1,0.3c0.3,0,0.2-0.4,0.5-0.2
						c-0.1,0.1-0.1,0.3-0.3,0.4c0.3-0.1,0.6-0.3,1-0.4c0.1,0.2-0.2,0.3-0.3,0.4c0.4-0.1,1-0.2,1.1-0.4l-0.2-0.1c0.1,0,0.1,0.2,0,0.3
						c-0.3,0.2-0.5-0.1-0.5-0.2l0.2-0.1c-0.2-0.6-0.9,0.1-1.4,0.1l0.2-0.4l-0.5,0.3c-0.1-0.1-0.2-0.3,0.1-0.4
						c-0.3-0.2-0.3,0.1-0.6-0.1c0,0,0-0.1,0-0.1l-0.3,0.1c0.1-0.1-0.1-0.3,0.1-0.2c-0.6-0.2-1,0.3-1.2,0l0,0
						c-0.8,0.1-0.1,0.3-0.7,0.7l-0.4-0.8l-0.1,0.3c-0.1,0-0.3,0-0.2-0.2c-0.3,0.2,0.1,0.1-0.1,0.3c-0.4-0.3-1.1,0.1-1.2-0.4
						c-0.1,0.2,0.4,0.2,0,0.3c-0.1-0.5-0.5,0.1-0.9-0.2c0.1-0.3,0.5-0.1,0.1-0.4c-0.2,0.5-0.7-0.1-1,0c0,0.4-0.7,0.2-1.2,0.3
						c0-0.1-1-0.2-1.5-0.3l0-0.1c-0.1,0.4-0.6,0.3-1,0.4c0-0.2,0.1-0.3,0.3-0.4l-0.3,0c-0.1,0.1-0.2,0.2-0.4,0.2l0.1-0.3
						c-0.5,0-0.9,0.3-1.5,0.1c0,0.3,0.5,0.7-0.2,0.9c0-0.1,0-0.4,0.1-0.4c-0.1,0-0.2,0.1-0.3,0.1l0.3-0.2c-0.3-0.1-0.1,0.2-0.4,0.2
						c0-0.2-0.2-0.1-0.1-0.3c0.1,0,0.2,0.1,0.3,0c-0.2,0-0.5-0.2-0.6-0.3c0,0.1,0,0.3-0.2,0.3c-0.5,0-0.2-0.2-0.4-0.3
						c-0.1,0.1-0.4,0-0.4,0.3c-0.1,0-0.2-0.1-0.2-0.2c-0.2,0.1-1.1,0-0.8,0.4l0.1,0c0,0,0,0,0,0c0,0,0,0,0,0h0
						c-0.8,0.3-1.6-0.2-2.4,0l0-0.1c-0.5,0.1-1,0.1-1.4,0.3c-0.1,0-0.3-0.2-0.3-0.3c-0.4,0.1-0.4,0.2-0.9,0c0.4-0.2-0.1-0.2,0.4-0.1
						c-0.5-0.1-0.6-0.2-1.1,0c0.2-0.3-0.3-0.3-0.6-0.2l0.3,0.2c-0.2,0-0.5,0-0.7,0l0.1-0.3c-0.9-0.4-1.7,0.7-2.4,0
						c-0.2,0.2,0.5,0.2,0.3,0.4c-0.4,0-0.9-0.5-1-0.5c-0.6-0.2-0.6,0.5-1.2,0.4c0.1,0.1,0.2,0.4-0.3,0.5c-0.4,0-0.5-0.5-0.3-0.6
						c0.1,0,0.2,0,0.2,0.1c0.1,0,0.3-0.1,0.2-0.2l-0.1,0.1c-0.2-0.1-0.8-0.1-0.7-0.3c-0.3,0.1-0.1,0.2,0.1,0.3
						c-0.6-0.2-0.9,0-1.4-0.1c0.1,0.1,0.2,0.2,0.1,0.2c-0.8-0.1-0.4,0.2-0.9,0.3c-0.3-0.2,0.1-0.4-0.5-0.3c-0.4-0.1-0.1-0.3,0.1-0.4
						c-0.5,0.2-1-0.2-1.3-0.2l0.3-0.1c-0.2,0.1-0.3,0.1-0.4,0.1l0.2,0.2c-0.2,0-0.3,0-0.3-0.1c-0.2,0.2,0.1,0.4-0.2,0.6
						c-0.2-0.1-0.7,0.1-0.7-0.2c0.7,0.1-0.1-0.3,0.5-0.4c-0.1,0-0.2,0-0.4,0c0,0,0-0.1,0.1-0.1c-0.6-0.3-0.3,0.4-1,0.3
						c0.1-0.2-0.2-0.3-0.3-0.3c0.3,0,0.1,0.3-0.1,0.4c-0.4-0.1-0.5,0.1-0.7,0.1l0.3,0.1c-0.1,0.2-0.3,0.2-0.6,0.2
						c0-0.1,0.3-0.1,0.2-0.2c-0.3,0.3-0.8-0.3-1.2-0.1c-0.2-0.1,0-0.3-0.2-0.4c-0.5,0.2-0.6-0.2-1.1-0.1c0.2,0.2,0.2,0.2-0.2,0.4
						l0.9-0.2l-0.6,0.3c0.3,0,0.6-0.1,0.7-0.1c-0.3,0.2-0.2,0.1-0.1,0.3c-0.4-0.4-0.7,0.2-1.2,0l0-0.6c-0.6-0.3-1.1,0.3-2,0.2
						l0.3,0.1c-0.1,0.2-0.5,0-0.8,0.1c0-0.2-0.1-0.3-0.3-0.4c0,0.1-0.6,0-0.7,0.4l-0.4-0.3c-0.7-0.1-0.8,0.6-1.4,0.5
						c0.2-0.2-0.1-0.4,0.3-0.5c-0.2,0-0.4,0-0.4,0.1c-0.1-0.1-0.6,0.3-0.8,0.1c-0.1,0.1-0.1,0.3-0.4,0.3c0,0,0-0.1,0-0.1
						c0,0.1-0.4,0.1-0.2,0.4c-0.7-0.6-1.9,0-2.5-0.5c-0.5,0.1-1,0.1-1.5,0.1c0-0.1,0-0.1,0.1-0.1c-0.6-0.2-0.4,0.6-1,0.4
						c-0.3-0.3,0.4-0.2,0.1-0.3c-0.1-0.6-0.8,0.1-1.3-0.3l0.1,0c-0.3-0.2-0.8,0.2-1.4,0.2c0,0,0-0.1,0-0.1c-0.4,0.3-1.1,0.4-1.7,0.5
						c0.2-0.3,0.2-0.1,0.1-0.4c-0.2,0,0.1,0.4-0.4,0.5c-0.2-0.1-0.5-0.3-0.6-0.5l0.5,0c-0.2-0.4-0.6,0-0.8,0l0-0.2
						c-0.7,0.1-0.7,0.4-1.5,0.4l0.1,0.1c-0.4,0.4-0.3-0.2-0.8,0.1l-0.1-0.4c-0.3,0.1-1,0.4-1.5,0.5c0.3-0.3,0.9-0.4,1.2-0.6
						c-0.3,0-0.9,0-1.1,0.2c0.1,0,0.2-0.1,0.4-0.1c-0.3,0.3-0.8,0.5-1.3,0.5c0.1-0.8-1.4-0.2-1.8-0.8c-1,0.3-1.9-0.1-3-0.1
						c0.4,0.6-0.3,0-0.3,0.6c-0.3,0-0.4,0-0.4,0l-0.8-0.4c-0.2-0.2,0.2-0.1,0.2-0.3c-0.6,0-0.2-0.3-0.6-0.4c0.1,0.2-0.2,0.3-0.5,0.2
						l0.5,0.3c-0.8,0.3-0.7-0.5-1.5-0.2l0.3-0.2c-0.4,0.1-1.5,0-1.9,0.5c-0.1-0.1-0.2-0.2,0-0.3c-1-0.1-2.2,0.5-3,0.2l0.1-0.1
						c-0.2,0-0.3,0.3-0.5,0.1c0-0.1,0.1-0.1,0-0.2c-0.1,0.1-0.5,0.3-0.7,0.2l0.2-0.2c-1-0.2-1.5,0.4-2.3,0.5c0-0.4-0.8-0.6-1.1-0.7
						l0-0.1c-1.1-0.1-1.9,0.4-2.9,0.5c-0.6-0.5-2.2-0.2-3.2-0.5c0.2,0.1,0,0.3-0.2,0.4c-0.2-0.1-0.7,0.3-0.6-0.1l0.1,0
						c-0.2-0.4-0.7-0.3-1.1-0.3l-0.1,0.5c-1-0.8-2.7,0.3-3.2-0.4c-0.2,0.1-0.5,0.1-0.8,0.3l0-0.3c-0.7-0.1-1-0.1-1.9,0l0.2-0.2
						c-0.5,0-0.6,0.8-1,0.8l-0.1-0.4c-0.8,0-1.7-0.4-2.5,0c0-0.1,0-0.2,0.2-0.2c-0.4,0-1.5-0.3-1.4,0.3c0-0.4-0.9,0-1.3,0.1l0.1-0.3
						c-0.4,0.4-0.4,0.5-0.9,0.6c-0.1,0-0.1-0.2,0.1-0.2c-0.4-0.1-0.3,0.3-0.8,0.1l0.2-0.2c-0.4,0-0.4,0.1-0.6,0.3
						c-0.3,0.1-0.8-0.1-0.9-0.3c-0.1,0.2-0.3,0.4-0.5,0.3c0-0.1,0.1-0.2,0.1-0.2c-0.7-0.2-1.1,0.3-1.6,0.1c0-0.1,0-0.1-0.1-0.2
						c0.6,0,1,0,1,0c0-0.3-0.5-0.3-0.1-0.7c-0.4,0.2-1,0.6-1.4,0.5c0,0,0,0-0.1-0.1l0,0c-0.1,0-0.2,0-0.3,0c-0.1,0-0.2-0.1-0.4-0.1
						c-0.1-0.2-0.5-0.1-0.8-0.1c0,0.3-0.3,0.2,0,0.5c0,0,0,0,0.2,0c0,0,0.1,0,0.1,0c0,0,0,0,0,0c0.2,0,0.3,0,0.6,0
						c-0.2,0.1-0.4,0.3-0.6,0.1c-0.1,0.2-0.2,0.4-0.3,0.5c-0.3-0.4-0.9-0.6-1-0.8c-0.7,0.2-1.6,0.1-2.1,0.6
						c-0.2,0.1-0.2-0.2-0.3-0.2c0.1-0.1,0.3,0,0.3-0.1c-0.4,0.1-1.2,0.1-1.3,0.4c-0.5-0.2,0.3-0.3-0.4-0.3l0.1-0.1
						c-1.4-0.6-2.2,0.9-3.7,0.2c0.1,0,0.2,0.1,0.2,0.1c-1.7-0.3-3.5,0.3-5.2-0.2c-0.5-0.1-0.5,0.1-0.8,0.3l-0.1-0.3l-0.5,0.3
						c-0.7,0.3-1.2-0.7-2.1-0.3l0.1,0.2c-0.3,0-1,0.1-1-0.1c0,0-0.1,0.2-0.2,0.1l0-0.2l-0.8,0.3c-0.6-0.1,0.1-0.6-0.8-0.7
						c-0.3,0.1-0.9,0.5-0.8,0.6c0.1,0,0.3,0.1,0.4,0.3l-0.3,0.1c-0.1,0.5-0.3,0.9,0.5,1.3l0.5-0.3l0.2,0.2l-0.4,0
						c0.2,0.2,0.4,0,0.6-0.1c0,0.1,0.1,0.2,0.2,0.2l0.5-0.4c0.1,0.2-0.2,0.4,0.1,0.5c0.2-0.2-0.2-0.4,0.2-0.5
						c0.2,0.2,0.2,0.4,0.5,0.2c0,0.1,0,0.2-0.1,0.2c0.3-0.1,0.7-0.1,0.8-0.3c0.3,0.3,0.9-0.1,0.9,0.4c0.1-0.1,0.5-0.3,0.7-0.4
						c-0.4,0.5,0.9,0,0.8,0.6c0.3-0.5,1.2-0.2,1.7-0.5c0,0-0.1,0.1-0.1,0.1c0.3,0,0.4,0.2,0.6,0.3c0-0.4,0.5-0.5,0.8-0.7
						c0.4,0.4-0.2,0.5-0.1,0.8c0-0.3,0.7-0.3,0.6-0.6c0.3,0.2,0.3,0.1,0.4,0.4c0.1-0.5,0.3-0.1,0.5-0.4c0.4,0.2,0.1,0.5,0.6,0.3
						C244.1,19.4,243.7,19.6,243.7,19.6z M255.1,18.8C255.1,18.8,255.1,18.8,255.1,18.8c-0.1,0-0.2,0-0.2,0
						C254.9,18.8,255,18.8,255.1,18.8z M256.1,18.7c-0.1,0-0.3,0-0.4,0c0-0.1,0-0.2,0.1-0.2C255.7,18.6,255.9,18.7,256.1,18.7z
						 M254,16.8c0.2,0,0.2,0,0.2,0.1c-0.1,0-0.2,0-0.3,0c0,0,0,0,0,0C254,16.9,254,16.8,254,16.8z"/>
					<path fill="#222222" d="M253.8,17.2C253.7,17.2,253.7,17.2,253.8,17.2C253.7,17.2,253.8,17.2,253.8,17.2
						C253.8,17.2,253.8,17.2,253.8,17.2C253.8,17.2,253.8,17.2,253.8,17.2z"/>
					<path fill="#222222" d="M340.9,17.6L340.9,17.6C340.9,17.6,340.9,17.6,340.9,17.6C340.9,17.6,340.9,17.6,340.9,17.6z"/>
					<polygon fill="#222222" points="269.3,19.3 269.3,19.2 269.3,19.3 					"/>
					<path fill="#222222" d="M346.2,18.6C346.2,18.6,346.2,18.6,346.2,18.6C346.2,18.6,346.2,18.6,346.2,18.6z"/>
					<path fill="#222222" d="M348.5,18.6l0.3,0.1C348.7,18.7,348.5,18.6,348.5,18.6z"/>
					<path fill="#222222" d="M350.2,18.8c0,0,0-0.1,0-0.1c0,0,0,0,0,0L350.2,18.8z"/>
					<path fill="#222222" d="M322.3,19.1C322.2,19.1,322.2,19.1,322.3,19.1C322,19.2,322.2,19.1,322.3,19.1z"/>
					<path fill="#222222" d="M330.6,18.4c-0.1,0.1-0.2,0.1-0.3,0.1C330.5,18.6,330.6,18.6,330.6,18.4z"/>
					<path fill="#222222" d="M313,19.4C313,19.4,313,19.4,313,19.4C313,19.4,312.9,19.4,313,19.4L313,19.4z"/>
					<path fill="#222222" d="M329.9,18.6c0.1,0.1,0.3,0,0.4,0C330.2,18.5,330.1,18.5,329.9,18.6z"/>
					<path fill="#222222" d="M357.8,18.9L357.8,18.9C357.9,18.9,357.9,18.9,357.8,18.9L357.8,18.9z"/>
					<path fill="#222222" d="M357.9,18.8L357.9,18.8C358,18.8,358,18.8,357.9,18.8z"/>
					<path fill="#222222" d="M358.2,18.7l-0.2,0.1C358.1,18.8,358.2,18.8,358.2,18.7z"/>
					<path fill="#222222" d="M355.5,18.8l0,0.1C355.5,18.8,355.5,18.8,355.5,18.8z"/>
					<path fill="#222222" d="M354.8,18.8c0.2,0,0.4,0.2,0.7,0.2l0-0.1C355.4,19,355,18.6,354.8,18.8z"/>
					<path fill="#222222" d="M351.9,17.5l0.6,0.1c-0.1-0.1-0.2-0.3,0-0.3C351.7,17,352.6,17.6,351.9,17.5z"/>
					<path fill="#222222" d="M350,17.4c0.3-0.1,0-0.2,0-0.2C349.8,17.2,349.8,17.3,350,17.4z"/>
					<path fill="#222222" d="M336.7,17.4l0-0.3C336.5,17.1,336.8,17.2,336.7,17.4z"/>
					<polygon fill="#222222" points="334.2,18.7 334.4,18.8 334.6,18.6 					"/>
					<polygon fill="#222222" points="332.7,16.9 332.8,16.8 332.4,16.9 					"/>
					<path fill="#222222" d="M310.4,17l0.1,0.3C310.6,17.2,310.7,16.9,310.4,17z"/>
					<path fill="#222222" d="M300.8,17.3c-0.1-0.2-0.4-0.3-0.5-0.1C300.4,17.2,300.7,17.3,300.8,17.3z"/>
					<polygon fill="#222222" points="271.9,16.8 272.1,16.7 271.7,16.7 					"/>
				</g>
			</g>
		</g>
	</g>
</g>
</svg>
